G04 #@! TF.GenerationSoftware,KiCad,Pcbnew,(6.0.10)*
G04 #@! TF.CreationDate,2023-03-10T15:43:37+05:30*
G04 #@! TF.ProjectId,EDL,45444c2e-6b69-4636-9164-5f7063625858,rev?*
G04 #@! TF.SameCoordinates,Original*
G04 #@! TF.FileFunction,Legend,Top*
G04 #@! TF.FilePolarity,Positive*
%FSLAX46Y46*%
G04 Gerber Fmt 4.6, Leading zero omitted, Abs format (unit mm)*
G04 Created by KiCad (PCBNEW (6.0.10)) date 2023-03-10 15:43:37*
%MOMM*%
%LPD*%
G01*
G04 APERTURE LIST*
G04 Aperture macros list*
%AMRoundRect*
0 Rectangle with rounded corners*
0 $1 Rounding radius*
0 $2 $3 $4 $5 $6 $7 $8 $9 X,Y pos of 4 corners*
0 Add a 4 corners polygon primitive as box body*
4,1,4,$2,$3,$4,$5,$6,$7,$8,$9,$2,$3,0*
0 Add four circle primitives for the rounded corners*
1,1,$1+$1,$2,$3*
1,1,$1+$1,$4,$5*
1,1,$1+$1,$6,$7*
1,1,$1+$1,$8,$9*
0 Add four rect primitives between the rounded corners*
20,1,$1+$1,$2,$3,$4,$5,0*
20,1,$1+$1,$4,$5,$6,$7,0*
20,1,$1+$1,$6,$7,$8,$9,0*
20,1,$1+$1,$8,$9,$2,$3,0*%
G04 Aperture macros list end*
%ADD10C,0.150000*%
%ADD11C,0.300000*%
%ADD12C,0.120000*%
%ADD13RoundRect,0.250000X0.350000X0.450000X-0.350000X0.450000X-0.350000X-0.450000X0.350000X-0.450000X0*%
%ADD14RoundRect,0.250000X-0.350000X-0.450000X0.350000X-0.450000X0.350000X0.450000X-0.350000X0.450000X0*%
%ADD15R,1.700000X1.700000*%
%ADD16O,1.700000X1.700000*%
%ADD17RoundRect,0.250000X0.450000X-0.350000X0.450000X0.350000X-0.450000X0.350000X-0.450000X-0.350000X0*%
%ADD18C,1.440000*%
%ADD19RoundRect,0.250000X-0.475000X0.337500X-0.475000X-0.337500X0.475000X-0.337500X0.475000X0.337500X0*%
%ADD20R,1.600000X1.600000*%
%ADD21O,1.600000X1.600000*%
%ADD22RoundRect,0.250000X-0.700000X1.825000X-0.700000X-1.825000X0.700000X-1.825000X0.700000X1.825000X0*%
%ADD23RoundRect,0.250000X-0.450000X0.350000X-0.450000X-0.350000X0.450000X-0.350000X0.450000X0.350000X0*%
%ADD24RoundRect,0.250000X-0.325000X-0.450000X0.325000X-0.450000X0.325000X0.450000X-0.325000X0.450000X0*%
%ADD25C,5.000000*%
%ADD26C,2.900000*%
%ADD27RoundRect,0.250000X0.337500X0.475000X-0.337500X0.475000X-0.337500X-0.475000X0.337500X-0.475000X0*%
%ADD28R,2.600000X2.600000*%
%ADD29C,2.600000*%
%ADD30RoundRect,0.250000X-0.337500X-0.475000X0.337500X-0.475000X0.337500X0.475000X-0.337500X0.475000X0*%
G04 APERTURE END LIST*
D10*
X96177857Y-90954226D02*
X96177857Y-89704226D01*
X96535000Y-89704226D01*
X96749285Y-89763750D01*
X96892142Y-89882797D01*
X96963571Y-90001845D01*
X97035000Y-90239940D01*
X97035000Y-90418511D01*
X96963571Y-90656607D01*
X96892142Y-90775654D01*
X96749285Y-90894702D01*
X96535000Y-90954226D01*
X96177857Y-90954226D01*
X98249285Y-90894702D02*
X98106428Y-90954226D01*
X97820714Y-90954226D01*
X97677857Y-90894702D01*
X97606428Y-90775654D01*
X97606428Y-90299464D01*
X97677857Y-90180416D01*
X97820714Y-90120892D01*
X98106428Y-90120892D01*
X98249285Y-90180416D01*
X98320714Y-90299464D01*
X98320714Y-90418511D01*
X97606428Y-90537559D01*
X98892142Y-90894702D02*
X99035000Y-90954226D01*
X99320714Y-90954226D01*
X99463571Y-90894702D01*
X99535000Y-90775654D01*
X99535000Y-90716130D01*
X99463571Y-90597083D01*
X99320714Y-90537559D01*
X99106428Y-90537559D01*
X98963571Y-90478035D01*
X98892142Y-90358988D01*
X98892142Y-90299464D01*
X98963571Y-90180416D01*
X99106428Y-90120892D01*
X99320714Y-90120892D01*
X99463571Y-90180416D01*
X100177857Y-90954226D02*
X100177857Y-90120892D01*
X100177857Y-89704226D02*
X100106428Y-89763750D01*
X100177857Y-89823273D01*
X100249285Y-89763750D01*
X100177857Y-89704226D01*
X100177857Y-89823273D01*
X101535000Y-90120892D02*
X101535000Y-91132797D01*
X101463571Y-91251845D01*
X101392142Y-91311369D01*
X101249285Y-91370892D01*
X101035000Y-91370892D01*
X100892142Y-91311369D01*
X101535000Y-90894702D02*
X101392142Y-90954226D01*
X101106428Y-90954226D01*
X100963571Y-90894702D01*
X100892142Y-90835178D01*
X100820714Y-90716130D01*
X100820714Y-90358988D01*
X100892142Y-90239940D01*
X100963571Y-90180416D01*
X101106428Y-90120892D01*
X101392142Y-90120892D01*
X101535000Y-90180416D01*
X102249285Y-90120892D02*
X102249285Y-90954226D01*
X102249285Y-90239940D02*
X102320714Y-90180416D01*
X102463571Y-90120892D01*
X102677857Y-90120892D01*
X102820714Y-90180416D01*
X102892142Y-90299464D01*
X102892142Y-90954226D01*
X104177857Y-90894702D02*
X104035000Y-90954226D01*
X103749285Y-90954226D01*
X103606428Y-90894702D01*
X103535000Y-90775654D01*
X103535000Y-90299464D01*
X103606428Y-90180416D01*
X103749285Y-90120892D01*
X104035000Y-90120892D01*
X104177857Y-90180416D01*
X104249285Y-90299464D01*
X104249285Y-90418511D01*
X103535000Y-90537559D01*
X105535000Y-90954226D02*
X105535000Y-89704226D01*
X105535000Y-90894702D02*
X105392142Y-90954226D01*
X105106428Y-90954226D01*
X104963571Y-90894702D01*
X104892142Y-90835178D01*
X104820714Y-90716130D01*
X104820714Y-90358988D01*
X104892142Y-90239940D01*
X104963571Y-90180416D01*
X105106428Y-90120892D01*
X105392142Y-90120892D01*
X105535000Y-90180416D01*
X107392142Y-90954226D02*
X107392142Y-89704226D01*
X107392142Y-90180416D02*
X107535000Y-90120892D01*
X107820714Y-90120892D01*
X107963571Y-90180416D01*
X108035000Y-90239940D01*
X108106428Y-90358988D01*
X108106428Y-90716130D01*
X108035000Y-90835178D01*
X107963571Y-90894702D01*
X107820714Y-90954226D01*
X107535000Y-90954226D01*
X107392142Y-90894702D01*
X108606428Y-90120892D02*
X108963571Y-90954226D01*
X109320714Y-90120892D02*
X108963571Y-90954226D01*
X108820714Y-91251845D01*
X108749285Y-91311369D01*
X108606428Y-91370892D01*
X109892142Y-90835178D02*
X109963571Y-90894702D01*
X109892142Y-90954226D01*
X109820714Y-90894702D01*
X109892142Y-90835178D01*
X109892142Y-90954226D01*
X109892142Y-90180416D02*
X109963571Y-90239940D01*
X109892142Y-90299464D01*
X109820714Y-90239940D01*
X109892142Y-90180416D01*
X109892142Y-90299464D01*
X99320714Y-92907202D02*
X99535000Y-92966726D01*
X99892142Y-92966726D01*
X100035000Y-92907202D01*
X100106428Y-92847678D01*
X100177857Y-92728630D01*
X100177857Y-92609583D01*
X100106428Y-92490535D01*
X100035000Y-92431011D01*
X99892142Y-92371488D01*
X99606428Y-92311964D01*
X99463571Y-92252440D01*
X99392142Y-92192916D01*
X99320714Y-92073869D01*
X99320714Y-91954821D01*
X99392142Y-91835773D01*
X99463571Y-91776250D01*
X99606428Y-91716726D01*
X99963571Y-91716726D01*
X100177857Y-91776250D01*
X100820714Y-92966726D02*
X100820714Y-91716726D01*
X101463571Y-92966726D02*
X101463571Y-92311964D01*
X101392142Y-92192916D01*
X101249285Y-92133392D01*
X101035000Y-92133392D01*
X100892142Y-92192916D01*
X100820714Y-92252440D01*
X102177857Y-92966726D02*
X102177857Y-92133392D01*
X102177857Y-91716726D02*
X102106428Y-91776250D01*
X102177857Y-91835773D01*
X102249285Y-91776250D01*
X102177857Y-91716726D01*
X102177857Y-91835773D01*
X102749285Y-92133392D02*
X103106428Y-92966726D01*
X103463571Y-92133392D01*
X104677857Y-92966726D02*
X104677857Y-92311964D01*
X104606428Y-92192916D01*
X104463571Y-92133392D01*
X104177857Y-92133392D01*
X104035000Y-92192916D01*
X104677857Y-92907202D02*
X104535000Y-92966726D01*
X104177857Y-92966726D01*
X104035000Y-92907202D01*
X103963571Y-92788154D01*
X103963571Y-92669107D01*
X104035000Y-92550059D01*
X104177857Y-92490535D01*
X104535000Y-92490535D01*
X104677857Y-92431011D01*
X105392142Y-92966726D02*
X105392142Y-92133392D01*
X105392142Y-92252440D02*
X105463571Y-92192916D01*
X105606428Y-92133392D01*
X105820714Y-92133392D01*
X105963571Y-92192916D01*
X106035000Y-92311964D01*
X106035000Y-92966726D01*
X106035000Y-92311964D02*
X106106428Y-92192916D01*
X106249285Y-92133392D01*
X106463571Y-92133392D01*
X106606428Y-92192916D01*
X106677857Y-92311964D01*
X106677857Y-92966726D01*
X100177857Y-94979226D02*
X99677857Y-94383988D01*
X99320714Y-94979226D02*
X99320714Y-93729226D01*
X99892142Y-93729226D01*
X100035000Y-93788750D01*
X100106428Y-93848273D01*
X100177857Y-93967321D01*
X100177857Y-94145892D01*
X100106428Y-94264940D01*
X100035000Y-94324464D01*
X99892142Y-94383988D01*
X99320714Y-94383988D01*
X101463571Y-94979226D02*
X101463571Y-94324464D01*
X101392142Y-94205416D01*
X101249285Y-94145892D01*
X100963571Y-94145892D01*
X100820714Y-94205416D01*
X101463571Y-94919702D02*
X101320714Y-94979226D01*
X100963571Y-94979226D01*
X100820714Y-94919702D01*
X100749285Y-94800654D01*
X100749285Y-94681607D01*
X100820714Y-94562559D01*
X100963571Y-94503035D01*
X101320714Y-94503035D01*
X101463571Y-94443511D01*
X102106428Y-94919702D02*
X102249285Y-94979226D01*
X102535000Y-94979226D01*
X102677857Y-94919702D01*
X102749285Y-94800654D01*
X102749285Y-94741130D01*
X102677857Y-94622083D01*
X102535000Y-94562559D01*
X102320714Y-94562559D01*
X102177857Y-94503035D01*
X102106428Y-94383988D01*
X102106428Y-94324464D01*
X102177857Y-94205416D01*
X102320714Y-94145892D01*
X102535000Y-94145892D01*
X102677857Y-94205416D01*
X103392142Y-94979226D02*
X103392142Y-93729226D01*
X104035000Y-94979226D02*
X104035000Y-94324464D01*
X103963571Y-94205416D01*
X103820714Y-94145892D01*
X103606428Y-94145892D01*
X103463571Y-94205416D01*
X103392142Y-94264940D01*
X104749285Y-94979226D02*
X104749285Y-94145892D01*
X104749285Y-94264940D02*
X104820714Y-94205416D01*
X104963571Y-94145892D01*
X105177857Y-94145892D01*
X105320714Y-94205416D01*
X105392142Y-94324464D01*
X105392142Y-94979226D01*
X105392142Y-94324464D02*
X105463571Y-94205416D01*
X105606428Y-94145892D01*
X105820714Y-94145892D01*
X105963571Y-94205416D01*
X106035000Y-94324464D01*
X106035000Y-94979226D01*
X106749285Y-94979226D02*
X106749285Y-94145892D01*
X106749285Y-93729226D02*
X106677857Y-93788750D01*
X106749285Y-93848273D01*
X106820714Y-93788750D01*
X106749285Y-93729226D01*
X106749285Y-93848273D01*
X98570714Y-96991726D02*
X98570714Y-95741726D01*
X99142142Y-95741726D01*
X99285000Y-95801250D01*
X99356428Y-95860773D01*
X99427857Y-95979821D01*
X99427857Y-96158392D01*
X99356428Y-96277440D01*
X99285000Y-96336964D01*
X99142142Y-96396488D01*
X98570714Y-96396488D01*
X100070714Y-96991726D02*
X100070714Y-96158392D01*
X100070714Y-96396488D02*
X100142142Y-96277440D01*
X100213571Y-96217916D01*
X100356428Y-96158392D01*
X100499285Y-96158392D01*
X101642142Y-96991726D02*
X101642142Y-96336964D01*
X101570714Y-96217916D01*
X101427857Y-96158392D01*
X101142142Y-96158392D01*
X100999285Y-96217916D01*
X101642142Y-96932202D02*
X101499285Y-96991726D01*
X101142142Y-96991726D01*
X100999285Y-96932202D01*
X100927857Y-96813154D01*
X100927857Y-96694107D01*
X100999285Y-96575059D01*
X101142142Y-96515535D01*
X101499285Y-96515535D01*
X101642142Y-96456011D01*
X102356428Y-96991726D02*
X102356428Y-96158392D01*
X102356428Y-96396488D02*
X102427857Y-96277440D01*
X102499285Y-96217916D01*
X102642142Y-96158392D01*
X102785000Y-96158392D01*
X103070714Y-96158392D02*
X103642142Y-96158392D01*
X103285000Y-95741726D02*
X103285000Y-96813154D01*
X103356428Y-96932202D01*
X103499285Y-96991726D01*
X103642142Y-96991726D01*
X104142142Y-96991726D02*
X104142142Y-95741726D01*
X104785000Y-96991726D02*
X104785000Y-96336964D01*
X104713571Y-96217916D01*
X104570714Y-96158392D01*
X104356428Y-96158392D01*
X104213571Y-96217916D01*
X104142142Y-96277440D01*
X106142142Y-96991726D02*
X106142142Y-96336964D01*
X106070714Y-96217916D01*
X105927857Y-96158392D01*
X105642142Y-96158392D01*
X105499285Y-96217916D01*
X106142142Y-96932202D02*
X105999285Y-96991726D01*
X105642142Y-96991726D01*
X105499285Y-96932202D01*
X105427857Y-96813154D01*
X105427857Y-96694107D01*
X105499285Y-96575059D01*
X105642142Y-96515535D01*
X105999285Y-96515535D01*
X106142142Y-96456011D01*
X106856428Y-96158392D02*
X106856428Y-96991726D01*
X106856428Y-96277440D02*
X106927857Y-96217916D01*
X107070714Y-96158392D01*
X107285000Y-96158392D01*
X107427857Y-96217916D01*
X107499285Y-96336964D01*
X107499285Y-96991726D01*
D11*
X100796904Y-63824761D02*
X100796904Y-61824761D01*
X101273095Y-61824761D01*
X101558809Y-61920000D01*
X101749285Y-62110476D01*
X101844523Y-62300952D01*
X101939761Y-62681904D01*
X101939761Y-62967619D01*
X101844523Y-63348571D01*
X101749285Y-63539047D01*
X101558809Y-63729523D01*
X101273095Y-63824761D01*
X100796904Y-63824761D01*
X102796904Y-63824761D02*
X102796904Y-62491428D01*
X102796904Y-61824761D02*
X102701666Y-61920000D01*
X102796904Y-62015238D01*
X102892142Y-61920000D01*
X102796904Y-61824761D01*
X102796904Y-62015238D01*
X104606428Y-62491428D02*
X104606428Y-64110476D01*
X104511190Y-64300952D01*
X104415952Y-64396190D01*
X104225476Y-64491428D01*
X103939761Y-64491428D01*
X103749285Y-64396190D01*
X104606428Y-63729523D02*
X104415952Y-63824761D01*
X104035000Y-63824761D01*
X103844523Y-63729523D01*
X103749285Y-63634285D01*
X103654047Y-63443809D01*
X103654047Y-62872380D01*
X103749285Y-62681904D01*
X103844523Y-62586666D01*
X104035000Y-62491428D01*
X104415952Y-62491428D01*
X104606428Y-62586666D01*
X105558809Y-63824761D02*
X105558809Y-62491428D01*
X105558809Y-61824761D02*
X105463571Y-61920000D01*
X105558809Y-62015238D01*
X105654047Y-61920000D01*
X105558809Y-61824761D01*
X105558809Y-62015238D01*
X106225476Y-62491428D02*
X106987380Y-62491428D01*
X106511190Y-61824761D02*
X106511190Y-63539047D01*
X106606428Y-63729523D01*
X106796904Y-63824761D01*
X106987380Y-63824761D01*
X108511190Y-63824761D02*
X108511190Y-62777142D01*
X108415952Y-62586666D01*
X108225476Y-62491428D01*
X107844523Y-62491428D01*
X107654047Y-62586666D01*
X108511190Y-63729523D02*
X108320714Y-63824761D01*
X107844523Y-63824761D01*
X107654047Y-63729523D01*
X107558809Y-63539047D01*
X107558809Y-63348571D01*
X107654047Y-63158095D01*
X107844523Y-63062857D01*
X108320714Y-63062857D01*
X108511190Y-62967619D01*
X109749285Y-63824761D02*
X109558809Y-63729523D01*
X109463571Y-63539047D01*
X109463571Y-61824761D01*
X111939761Y-63729523D02*
X112225476Y-63824761D01*
X112701666Y-63824761D01*
X112892142Y-63729523D01*
X112987380Y-63634285D01*
X113082619Y-63443809D01*
X113082619Y-63253333D01*
X112987380Y-63062857D01*
X112892142Y-62967619D01*
X112701666Y-62872380D01*
X112320714Y-62777142D01*
X112130238Y-62681904D01*
X112035000Y-62586666D01*
X111939761Y-62396190D01*
X111939761Y-62205714D01*
X112035000Y-62015238D01*
X112130238Y-61920000D01*
X112320714Y-61824761D01*
X112796904Y-61824761D01*
X113082619Y-61920000D01*
X113654047Y-62491428D02*
X114415952Y-62491428D01*
X113939761Y-61824761D02*
X113939761Y-63539047D01*
X114035000Y-63729523D01*
X114225476Y-63824761D01*
X114415952Y-63824761D01*
X115844523Y-63729523D02*
X115654047Y-63824761D01*
X115273095Y-63824761D01*
X115082619Y-63729523D01*
X114987380Y-63539047D01*
X114987380Y-62777142D01*
X115082619Y-62586666D01*
X115273095Y-62491428D01*
X115654047Y-62491428D01*
X115844523Y-62586666D01*
X115939761Y-62777142D01*
X115939761Y-62967619D01*
X114987380Y-63158095D01*
X116511190Y-62491428D02*
X117273095Y-62491428D01*
X116796904Y-61824761D02*
X116796904Y-63539047D01*
X116892142Y-63729523D01*
X117082619Y-63824761D01*
X117273095Y-63824761D01*
X117939761Y-63824761D02*
X117939761Y-61824761D01*
X118796904Y-63824761D02*
X118796904Y-62777142D01*
X118701666Y-62586666D01*
X118511190Y-62491428D01*
X118225476Y-62491428D01*
X118035000Y-62586666D01*
X117939761Y-62681904D01*
X120035000Y-63824761D02*
X119844523Y-63729523D01*
X119749285Y-63634285D01*
X119654047Y-63443809D01*
X119654047Y-62872380D01*
X119749285Y-62681904D01*
X119844523Y-62586666D01*
X120035000Y-62491428D01*
X120320714Y-62491428D01*
X120511190Y-62586666D01*
X120606428Y-62681904D01*
X120701666Y-62872380D01*
X120701666Y-63443809D01*
X120606428Y-63634285D01*
X120511190Y-63729523D01*
X120320714Y-63824761D01*
X120035000Y-63824761D01*
X121463571Y-63729523D02*
X121654047Y-63824761D01*
X122035000Y-63824761D01*
X122225476Y-63729523D01*
X122320714Y-63539047D01*
X122320714Y-63443809D01*
X122225476Y-63253333D01*
X122035000Y-63158095D01*
X121749285Y-63158095D01*
X121558809Y-63062857D01*
X121463571Y-62872380D01*
X121463571Y-62777142D01*
X121558809Y-62586666D01*
X121749285Y-62491428D01*
X122035000Y-62491428D01*
X122225476Y-62586666D01*
X124035000Y-63729523D02*
X123844523Y-63824761D01*
X123463571Y-63824761D01*
X123273095Y-63729523D01*
X123177857Y-63634285D01*
X123082619Y-63443809D01*
X123082619Y-62872380D01*
X123177857Y-62681904D01*
X123273095Y-62586666D01*
X123463571Y-62491428D01*
X123844523Y-62491428D01*
X124035000Y-62586666D01*
X125177857Y-63824761D02*
X124987380Y-63729523D01*
X124892142Y-63634285D01*
X124796904Y-63443809D01*
X124796904Y-62872380D01*
X124892142Y-62681904D01*
X124987380Y-62586666D01*
X125177857Y-62491428D01*
X125463571Y-62491428D01*
X125654047Y-62586666D01*
X125749285Y-62681904D01*
X125844523Y-62872380D01*
X125844523Y-63443809D01*
X125749285Y-63634285D01*
X125654047Y-63729523D01*
X125463571Y-63824761D01*
X125177857Y-63824761D01*
X126701666Y-62491428D02*
X126701666Y-64491428D01*
X126701666Y-62586666D02*
X126892142Y-62491428D01*
X127273095Y-62491428D01*
X127463571Y-62586666D01*
X127558809Y-62681904D01*
X127654047Y-62872380D01*
X127654047Y-63443809D01*
X127558809Y-63634285D01*
X127463571Y-63729523D01*
X127273095Y-63824761D01*
X126892142Y-63824761D01*
X126701666Y-63729523D01*
X129273095Y-63729523D02*
X129082619Y-63824761D01*
X128701666Y-63824761D01*
X128511190Y-63729523D01*
X128415952Y-63539047D01*
X128415952Y-62777142D01*
X128511190Y-62586666D01*
X128701666Y-62491428D01*
X129082619Y-62491428D01*
X129273095Y-62586666D01*
X129368333Y-62777142D01*
X129368333Y-62967619D01*
X128415952Y-63158095D01*
D10*
X101368333Y-87272380D02*
X101035000Y-86796190D01*
X100796904Y-87272380D02*
X100796904Y-86272380D01*
X101177857Y-86272380D01*
X101273095Y-86320000D01*
X101320714Y-86367619D01*
X101368333Y-86462857D01*
X101368333Y-86605714D01*
X101320714Y-86700952D01*
X101273095Y-86748571D01*
X101177857Y-86796190D01*
X100796904Y-86796190D01*
X101939761Y-86700952D02*
X101844523Y-86653333D01*
X101796904Y-86605714D01*
X101749285Y-86510476D01*
X101749285Y-86462857D01*
X101796904Y-86367619D01*
X101844523Y-86320000D01*
X101939761Y-86272380D01*
X102130238Y-86272380D01*
X102225476Y-86320000D01*
X102273095Y-86367619D01*
X102320714Y-86462857D01*
X102320714Y-86510476D01*
X102273095Y-86605714D01*
X102225476Y-86653333D01*
X102130238Y-86700952D01*
X101939761Y-86700952D01*
X101844523Y-86748571D01*
X101796904Y-86796190D01*
X101749285Y-86891428D01*
X101749285Y-87081904D01*
X101796904Y-87177142D01*
X101844523Y-87224761D01*
X101939761Y-87272380D01*
X102130238Y-87272380D01*
X102225476Y-87224761D01*
X102273095Y-87177142D01*
X102320714Y-87081904D01*
X102320714Y-86891428D01*
X102273095Y-86796190D01*
X102225476Y-86748571D01*
X102130238Y-86700952D01*
X76368333Y-72972380D02*
X76035000Y-72496190D01*
X75796904Y-72972380D02*
X75796904Y-71972380D01*
X76177857Y-71972380D01*
X76273095Y-72020000D01*
X76320714Y-72067619D01*
X76368333Y-72162857D01*
X76368333Y-72305714D01*
X76320714Y-72400952D01*
X76273095Y-72448571D01*
X76177857Y-72496190D01*
X75796904Y-72496190D01*
X76749285Y-72067619D02*
X76796904Y-72020000D01*
X76892142Y-71972380D01*
X77130238Y-71972380D01*
X77225476Y-72020000D01*
X77273095Y-72067619D01*
X77320714Y-72162857D01*
X77320714Y-72258095D01*
X77273095Y-72400952D01*
X76701666Y-72972380D01*
X77320714Y-72972380D01*
X97784999Y-72272380D02*
X97451666Y-71796190D01*
X97213570Y-72272380D02*
X97213570Y-71272380D01*
X97594523Y-71272380D01*
X97689761Y-71320000D01*
X97737380Y-71367619D01*
X97784999Y-71462857D01*
X97784999Y-71605714D01*
X97737380Y-71700952D01*
X97689761Y-71748571D01*
X97594523Y-71796190D01*
X97213570Y-71796190D01*
X98689761Y-71272380D02*
X98213570Y-71272380D01*
X98165951Y-71748571D01*
X98213570Y-71700952D01*
X98308808Y-71653333D01*
X98546904Y-71653333D01*
X98642142Y-71700952D01*
X98689761Y-71748571D01*
X98737380Y-71843809D01*
X98737380Y-72081904D01*
X98689761Y-72177142D01*
X98642142Y-72224761D01*
X98546904Y-72272380D01*
X98308808Y-72272380D01*
X98213570Y-72224761D01*
X98165951Y-72177142D01*
X82368333Y-67522380D02*
X82035000Y-67046190D01*
X81796904Y-67522380D02*
X81796904Y-66522380D01*
X82177857Y-66522380D01*
X82273095Y-66570000D01*
X82320714Y-66617619D01*
X82368333Y-66712857D01*
X82368333Y-66855714D01*
X82320714Y-66950952D01*
X82273095Y-66998571D01*
X82177857Y-67046190D01*
X81796904Y-67046190D01*
X83225476Y-66855714D02*
X83225476Y-67522380D01*
X82987380Y-66474761D02*
X82749285Y-67189047D01*
X83368333Y-67189047D01*
X137892142Y-88772380D02*
X137558809Y-88296190D01*
X137320714Y-88772380D02*
X137320714Y-87772380D01*
X137701666Y-87772380D01*
X137796904Y-87820000D01*
X137844523Y-87867619D01*
X137892142Y-87962857D01*
X137892142Y-88105714D01*
X137844523Y-88200952D01*
X137796904Y-88248571D01*
X137701666Y-88296190D01*
X137320714Y-88296190D01*
X138844523Y-88772380D02*
X138273095Y-88772380D01*
X138558809Y-88772380D02*
X138558809Y-87772380D01*
X138463571Y-87915238D01*
X138368333Y-88010476D01*
X138273095Y-88058095D01*
X139177857Y-87772380D02*
X139796904Y-87772380D01*
X139463571Y-88153333D01*
X139606428Y-88153333D01*
X139701666Y-88200952D01*
X139749285Y-88248571D01*
X139796904Y-88343809D01*
X139796904Y-88581904D01*
X139749285Y-88677142D01*
X139701666Y-88724761D01*
X139606428Y-88772380D01*
X139320714Y-88772380D01*
X139225476Y-88724761D01*
X139177857Y-88677142D01*
X96118333Y-79222380D02*
X95785000Y-78746190D01*
X95546904Y-79222380D02*
X95546904Y-78222380D01*
X95927857Y-78222380D01*
X96023095Y-78270000D01*
X96070714Y-78317619D01*
X96118333Y-78412857D01*
X96118333Y-78555714D01*
X96070714Y-78650952D01*
X96023095Y-78698571D01*
X95927857Y-78746190D01*
X95546904Y-78746190D01*
X96451666Y-78222380D02*
X97118333Y-78222380D01*
X96689761Y-79222380D01*
X163451666Y-80227380D02*
X163451666Y-80941666D01*
X163404047Y-81084523D01*
X163308809Y-81179761D01*
X163165952Y-81227380D01*
X163070714Y-81227380D01*
X164451666Y-81227380D02*
X163880238Y-81227380D01*
X164165952Y-81227380D02*
X164165952Y-80227380D01*
X164070714Y-80370238D01*
X163975476Y-80465476D01*
X163880238Y-80513095D01*
X112337380Y-88812857D02*
X111861190Y-89146190D01*
X112337380Y-89384285D02*
X111337380Y-89384285D01*
X111337380Y-89003333D01*
X111385000Y-88908095D01*
X111432619Y-88860476D01*
X111527857Y-88812857D01*
X111670714Y-88812857D01*
X111765952Y-88860476D01*
X111813571Y-88908095D01*
X111861190Y-89003333D01*
X111861190Y-89384285D01*
X112337380Y-87860476D02*
X112337380Y-88431904D01*
X112337380Y-88146190D02*
X111337380Y-88146190D01*
X111480238Y-88241428D01*
X111575476Y-88336666D01*
X111623095Y-88431904D01*
X111337380Y-87241428D02*
X111337380Y-87146190D01*
X111385000Y-87050952D01*
X111432619Y-87003333D01*
X111527857Y-86955714D01*
X111718333Y-86908095D01*
X111956428Y-86908095D01*
X112146904Y-86955714D01*
X112242142Y-87003333D01*
X112289761Y-87050952D01*
X112337380Y-87146190D01*
X112337380Y-87241428D01*
X112289761Y-87336666D01*
X112242142Y-87384285D01*
X112146904Y-87431904D01*
X111956428Y-87479523D01*
X111718333Y-87479523D01*
X111527857Y-87431904D01*
X111432619Y-87384285D01*
X111385000Y-87336666D01*
X111337380Y-87241428D01*
X142682380Y-90077857D02*
X142206190Y-90411190D01*
X142682380Y-90649285D02*
X141682380Y-90649285D01*
X141682380Y-90268333D01*
X141730000Y-90173095D01*
X141777619Y-90125476D01*
X141872857Y-90077857D01*
X142015714Y-90077857D01*
X142110952Y-90125476D01*
X142158571Y-90173095D01*
X142206190Y-90268333D01*
X142206190Y-90649285D01*
X142682380Y-89125476D02*
X142682380Y-89696904D01*
X142682380Y-89411190D02*
X141682380Y-89411190D01*
X141825238Y-89506428D01*
X141920476Y-89601666D01*
X141968095Y-89696904D01*
X142682380Y-88173095D02*
X142682380Y-88744523D01*
X142682380Y-88458809D02*
X141682380Y-88458809D01*
X141825238Y-88554047D01*
X141920476Y-88649285D01*
X141968095Y-88744523D01*
X160822142Y-81086666D02*
X160869761Y-81134285D01*
X160917380Y-81277142D01*
X160917380Y-81372380D01*
X160869761Y-81515238D01*
X160774523Y-81610476D01*
X160679285Y-81658095D01*
X160488809Y-81705714D01*
X160345952Y-81705714D01*
X160155476Y-81658095D01*
X160060238Y-81610476D01*
X159965000Y-81515238D01*
X159917380Y-81372380D01*
X159917380Y-81277142D01*
X159965000Y-81134285D01*
X160012619Y-81086666D01*
X159917380Y-80181904D02*
X159917380Y-80658095D01*
X160393571Y-80705714D01*
X160345952Y-80658095D01*
X160298333Y-80562857D01*
X160298333Y-80324761D01*
X160345952Y-80229523D01*
X160393571Y-80181904D01*
X160488809Y-80134285D01*
X160726904Y-80134285D01*
X160822142Y-80181904D01*
X160869761Y-80229523D01*
X160917380Y-80324761D01*
X160917380Y-80562857D01*
X160869761Y-80658095D01*
X160822142Y-80705714D01*
X127753095Y-82492380D02*
X127753095Y-83301904D01*
X127800714Y-83397142D01*
X127848333Y-83444761D01*
X127943571Y-83492380D01*
X128134047Y-83492380D01*
X128229285Y-83444761D01*
X128276904Y-83397142D01*
X128324523Y-83301904D01*
X128324523Y-82492380D01*
X129229285Y-82825714D02*
X129229285Y-83492380D01*
X128991190Y-82444761D02*
X128753095Y-83159047D01*
X129372142Y-83159047D01*
X68092142Y-75086666D02*
X68139761Y-75134285D01*
X68187380Y-75277142D01*
X68187380Y-75372380D01*
X68139761Y-75515238D01*
X68044523Y-75610476D01*
X67949285Y-75658095D01*
X67758809Y-75705714D01*
X67615952Y-75705714D01*
X67425476Y-75658095D01*
X67330238Y-75610476D01*
X67235000Y-75515238D01*
X67187380Y-75372380D01*
X67187380Y-75277142D01*
X67235000Y-75134285D01*
X67282619Y-75086666D01*
X68187380Y-74134285D02*
X68187380Y-74705714D01*
X68187380Y-74420000D02*
X67187380Y-74420000D01*
X67330238Y-74515238D01*
X67425476Y-74610476D01*
X67473095Y-74705714D01*
X103637380Y-71562857D02*
X103161190Y-71896190D01*
X103637380Y-72134285D02*
X102637380Y-72134285D01*
X102637380Y-71753333D01*
X102685000Y-71658095D01*
X102732619Y-71610476D01*
X102827857Y-71562857D01*
X102970714Y-71562857D01*
X103065952Y-71610476D01*
X103113571Y-71658095D01*
X103161190Y-71753333D01*
X103161190Y-72134285D01*
X103637380Y-70610476D02*
X103637380Y-71181904D01*
X103637380Y-70896190D02*
X102637380Y-70896190D01*
X102780238Y-70991428D01*
X102875476Y-71086666D01*
X102923095Y-71181904D01*
X102637380Y-69705714D02*
X102637380Y-70181904D01*
X103113571Y-70229523D01*
X103065952Y-70181904D01*
X103018333Y-70086666D01*
X103018333Y-69848571D01*
X103065952Y-69753333D01*
X103113571Y-69705714D01*
X103208809Y-69658095D01*
X103446904Y-69658095D01*
X103542142Y-69705714D01*
X103589761Y-69753333D01*
X103637380Y-69848571D01*
X103637380Y-70086666D01*
X103589761Y-70181904D01*
X103542142Y-70229523D01*
X112003095Y-67242380D02*
X112003095Y-68051904D01*
X112050714Y-68147142D01*
X112098333Y-68194761D01*
X112193571Y-68242380D01*
X112384047Y-68242380D01*
X112479285Y-68194761D01*
X112526904Y-68147142D01*
X112574523Y-68051904D01*
X112574523Y-67242380D01*
X113003095Y-67337619D02*
X113050714Y-67290000D01*
X113145952Y-67242380D01*
X113384047Y-67242380D01*
X113479285Y-67290000D01*
X113526904Y-67337619D01*
X113574523Y-67432857D01*
X113574523Y-67528095D01*
X113526904Y-67670952D01*
X112955476Y-68242380D01*
X113574523Y-68242380D01*
X147503095Y-67742380D02*
X147503095Y-68551904D01*
X147550714Y-68647142D01*
X147598333Y-68694761D01*
X147693571Y-68742380D01*
X147884047Y-68742380D01*
X147979285Y-68694761D01*
X148026904Y-68647142D01*
X148074523Y-68551904D01*
X148074523Y-67742380D01*
X149026904Y-67742380D02*
X148550714Y-67742380D01*
X148503095Y-68218571D01*
X148550714Y-68170952D01*
X148645952Y-68123333D01*
X148884047Y-68123333D01*
X148979285Y-68170952D01*
X149026904Y-68218571D01*
X149074523Y-68313809D01*
X149074523Y-68551904D01*
X149026904Y-68647142D01*
X148979285Y-68694761D01*
X148884047Y-68742380D01*
X148645952Y-68742380D01*
X148550714Y-68694761D01*
X148503095Y-68647142D01*
X160637380Y-70812857D02*
X160161190Y-71146190D01*
X160637380Y-71384285D02*
X159637380Y-71384285D01*
X159637380Y-71003333D01*
X159685000Y-70908095D01*
X159732619Y-70860476D01*
X159827857Y-70812857D01*
X159970714Y-70812857D01*
X160065952Y-70860476D01*
X160113571Y-70908095D01*
X160161190Y-71003333D01*
X160161190Y-71384285D01*
X160637380Y-69860476D02*
X160637380Y-70431904D01*
X160637380Y-70146190D02*
X159637380Y-70146190D01*
X159780238Y-70241428D01*
X159875476Y-70336666D01*
X159923095Y-70431904D01*
X159970714Y-69003333D02*
X160637380Y-69003333D01*
X159589761Y-69241428D02*
X160304047Y-69479523D01*
X160304047Y-68860476D01*
X127753095Y-67242380D02*
X127753095Y-68051904D01*
X127800714Y-68147142D01*
X127848333Y-68194761D01*
X127943571Y-68242380D01*
X128134047Y-68242380D01*
X128229285Y-68194761D01*
X128276904Y-68147142D01*
X128324523Y-68051904D01*
X128324523Y-67242380D01*
X128705476Y-67242380D02*
X129324523Y-67242380D01*
X128991190Y-67623333D01*
X129134047Y-67623333D01*
X129229285Y-67670952D01*
X129276904Y-67718571D01*
X129324523Y-67813809D01*
X129324523Y-68051904D01*
X129276904Y-68147142D01*
X129229285Y-68194761D01*
X129134047Y-68242380D01*
X128848333Y-68242380D01*
X128753095Y-68194761D01*
X128705476Y-68147142D01*
X137796904Y-90722380D02*
X137796904Y-89722380D01*
X138035000Y-89722380D01*
X138177857Y-89770000D01*
X138273095Y-89865238D01*
X138320714Y-89960476D01*
X138368333Y-90150952D01*
X138368333Y-90293809D01*
X138320714Y-90484285D01*
X138273095Y-90579523D01*
X138177857Y-90674761D01*
X138035000Y-90722380D01*
X137796904Y-90722380D01*
X139320714Y-90722380D02*
X138749285Y-90722380D01*
X139035000Y-90722380D02*
X139035000Y-89722380D01*
X138939761Y-89865238D01*
X138844523Y-89960476D01*
X138749285Y-90008095D01*
X96118333Y-77522380D02*
X95785000Y-77046190D01*
X95546904Y-77522380D02*
X95546904Y-76522380D01*
X95927857Y-76522380D01*
X96023095Y-76570000D01*
X96070714Y-76617619D01*
X96118333Y-76712857D01*
X96118333Y-76855714D01*
X96070714Y-76950952D01*
X96023095Y-76998571D01*
X95927857Y-77046190D01*
X95546904Y-77046190D01*
X96975476Y-76522380D02*
X96785000Y-76522380D01*
X96689761Y-76570000D01*
X96642142Y-76617619D01*
X96546904Y-76760476D01*
X96499285Y-76950952D01*
X96499285Y-77331904D01*
X96546904Y-77427142D01*
X96594523Y-77474761D01*
X96689761Y-77522380D01*
X96880238Y-77522380D01*
X96975476Y-77474761D01*
X97023095Y-77427142D01*
X97070714Y-77331904D01*
X97070714Y-77093809D01*
X97023095Y-76998571D01*
X96975476Y-76950952D01*
X96880238Y-76903333D01*
X96689761Y-76903333D01*
X96594523Y-76950952D01*
X96546904Y-76998571D01*
X96499285Y-77093809D01*
X60773095Y-90622380D02*
X60773095Y-89622380D01*
X60773095Y-90098571D02*
X61344523Y-90098571D01*
X61344523Y-90622380D02*
X61344523Y-89622380D01*
X61725476Y-89622380D02*
X62344523Y-89622380D01*
X62011190Y-90003333D01*
X62154047Y-90003333D01*
X62249285Y-90050952D01*
X62296904Y-90098571D01*
X62344523Y-90193809D01*
X62344523Y-90431904D01*
X62296904Y-90527142D01*
X62249285Y-90574761D01*
X62154047Y-90622380D01*
X61868333Y-90622380D01*
X61773095Y-90574761D01*
X61725476Y-90527142D01*
X59773095Y-60622380D02*
X59773095Y-59622380D01*
X59773095Y-60098571D02*
X60344523Y-60098571D01*
X60344523Y-60622380D02*
X60344523Y-59622380D01*
X61344523Y-60622380D02*
X60773095Y-60622380D01*
X61058809Y-60622380D02*
X61058809Y-59622380D01*
X60963571Y-59765238D01*
X60868333Y-59860476D01*
X60773095Y-59908095D01*
X101368331Y-77957142D02*
X101320712Y-78004761D01*
X101177855Y-78052380D01*
X101082617Y-78052380D01*
X100939759Y-78004761D01*
X100844521Y-77909523D01*
X100796902Y-77814285D01*
X100749283Y-77623809D01*
X100749283Y-77480952D01*
X100796902Y-77290476D01*
X100844521Y-77195238D01*
X100939759Y-77100000D01*
X101082617Y-77052380D01*
X101177855Y-77052380D01*
X101320712Y-77100000D01*
X101368331Y-77147619D01*
X102225474Y-77385714D02*
X102225474Y-78052380D01*
X101987378Y-77004761D02*
X101749283Y-77719047D01*
X102368331Y-77719047D01*
X162523095Y-60622380D02*
X162523095Y-59622380D01*
X162523095Y-60098571D02*
X163094523Y-60098571D01*
X163094523Y-60622380D02*
X163094523Y-59622380D01*
X163523095Y-59717619D02*
X163570714Y-59670000D01*
X163665952Y-59622380D01*
X163904047Y-59622380D01*
X163999285Y-59670000D01*
X164046904Y-59717619D01*
X164094523Y-59812857D01*
X164094523Y-59908095D01*
X164046904Y-60050952D01*
X163475476Y-60622380D01*
X164094523Y-60622380D01*
X86121666Y-84112380D02*
X86121666Y-84826666D01*
X86074047Y-84969523D01*
X85978809Y-85064761D01*
X85835952Y-85112380D01*
X85740714Y-85112380D01*
X86550238Y-84207619D02*
X86597857Y-84160000D01*
X86693095Y-84112380D01*
X86931190Y-84112380D01*
X87026428Y-84160000D01*
X87074047Y-84207619D01*
X87121666Y-84302857D01*
X87121666Y-84398095D01*
X87074047Y-84540952D01*
X86502619Y-85112380D01*
X87121666Y-85112380D01*
X101618333Y-82207142D02*
X101570714Y-82254761D01*
X101427857Y-82302380D01*
X101332619Y-82302380D01*
X101189761Y-82254761D01*
X101094523Y-82159523D01*
X101046904Y-82064285D01*
X100999285Y-81873809D01*
X100999285Y-81730952D01*
X101046904Y-81540476D01*
X101094523Y-81445238D01*
X101189761Y-81350000D01*
X101332619Y-81302380D01*
X101427857Y-81302380D01*
X101570714Y-81350000D01*
X101618333Y-81397619D01*
X101951666Y-81302380D02*
X102570714Y-81302380D01*
X102237380Y-81683333D01*
X102380238Y-81683333D01*
X102475476Y-81730952D01*
X102523095Y-81778571D01*
X102570714Y-81873809D01*
X102570714Y-82111904D01*
X102523095Y-82207142D01*
X102475476Y-82254761D01*
X102380238Y-82302380D01*
X102094523Y-82302380D01*
X101999285Y-82254761D01*
X101951666Y-82207142D01*
X162523095Y-91872380D02*
X162523095Y-90872380D01*
X162523095Y-91348571D02*
X163094523Y-91348571D01*
X163094523Y-91872380D02*
X163094523Y-90872380D01*
X163999285Y-91205714D02*
X163999285Y-91872380D01*
X163761190Y-90824761D02*
X163523095Y-91539047D01*
X164142142Y-91539047D01*
X86253095Y-67742380D02*
X86253095Y-68551904D01*
X86300714Y-68647142D01*
X86348333Y-68694761D01*
X86443571Y-68742380D01*
X86634047Y-68742380D01*
X86729285Y-68694761D01*
X86776904Y-68647142D01*
X86824523Y-68551904D01*
X86824523Y-67742380D01*
X87824523Y-68742380D02*
X87253095Y-68742380D01*
X87538809Y-68742380D02*
X87538809Y-67742380D01*
X87443571Y-67885238D01*
X87348333Y-67980476D01*
X87253095Y-68028095D01*
X113142142Y-95522380D02*
X112808809Y-95046190D01*
X112570714Y-95522380D02*
X112570714Y-94522380D01*
X112951666Y-94522380D01*
X113046904Y-94570000D01*
X113094523Y-94617619D01*
X113142142Y-94712857D01*
X113142142Y-94855714D01*
X113094523Y-94950952D01*
X113046904Y-94998571D01*
X112951666Y-95046190D01*
X112570714Y-95046190D01*
X114094523Y-95522380D02*
X113523095Y-95522380D01*
X113808809Y-95522380D02*
X113808809Y-94522380D01*
X113713571Y-94665238D01*
X113618333Y-94760476D01*
X113523095Y-94808095D01*
X114475476Y-94617619D02*
X114523095Y-94570000D01*
X114618333Y-94522380D01*
X114856428Y-94522380D01*
X114951666Y-94570000D01*
X114999285Y-94617619D01*
X115046904Y-94712857D01*
X115046904Y-94808095D01*
X114999285Y-94950952D01*
X114427857Y-95522380D01*
X115046904Y-95522380D01*
X73512380Y-69586666D02*
X73036190Y-69920000D01*
X73512380Y-70158095D02*
X72512380Y-70158095D01*
X72512380Y-69777142D01*
X72560000Y-69681904D01*
X72607619Y-69634285D01*
X72702857Y-69586666D01*
X72845714Y-69586666D01*
X72940952Y-69634285D01*
X72988571Y-69681904D01*
X73036190Y-69777142D01*
X73036190Y-70158095D01*
X73512380Y-68634285D02*
X73512380Y-69205714D01*
X73512380Y-68920000D02*
X72512380Y-68920000D01*
X72655238Y-69015238D01*
X72750476Y-69110476D01*
X72798095Y-69205714D01*
X78387380Y-79836666D02*
X77911190Y-80170000D01*
X78387380Y-80408095D02*
X77387380Y-80408095D01*
X77387380Y-80027142D01*
X77435000Y-79931904D01*
X77482619Y-79884285D01*
X77577857Y-79836666D01*
X77720714Y-79836666D01*
X77815952Y-79884285D01*
X77863571Y-79931904D01*
X77911190Y-80027142D01*
X77911190Y-80408095D01*
X77387380Y-79503333D02*
X77387380Y-78884285D01*
X77768333Y-79217619D01*
X77768333Y-79074761D01*
X77815952Y-78979523D01*
X77863571Y-78931904D01*
X77958809Y-78884285D01*
X78196904Y-78884285D01*
X78292142Y-78931904D01*
X78339761Y-78979523D01*
X78387380Y-79074761D01*
X78387380Y-79360476D01*
X78339761Y-79455714D01*
X78292142Y-79503333D01*
X113368333Y-81472380D02*
X113035000Y-80996190D01*
X112796904Y-81472380D02*
X112796904Y-80472380D01*
X113177857Y-80472380D01*
X113273095Y-80520000D01*
X113320714Y-80567619D01*
X113368333Y-80662857D01*
X113368333Y-80805714D01*
X113320714Y-80900952D01*
X113273095Y-80948571D01*
X113177857Y-80996190D01*
X112796904Y-80996190D01*
X113844523Y-81472380D02*
X114035000Y-81472380D01*
X114130238Y-81424761D01*
X114177857Y-81377142D01*
X114273095Y-81234285D01*
X114320714Y-81043809D01*
X114320714Y-80662857D01*
X114273095Y-80567619D01*
X114225476Y-80520000D01*
X114130238Y-80472380D01*
X113939761Y-80472380D01*
X113844523Y-80520000D01*
X113796904Y-80567619D01*
X113749285Y-80662857D01*
X113749285Y-80900952D01*
X113796904Y-80996190D01*
X113844523Y-81043809D01*
X113939761Y-81091428D01*
X114130238Y-81091428D01*
X114225476Y-81043809D01*
X114273095Y-80996190D01*
X114320714Y-80900952D01*
X71201666Y-77017380D02*
X71201666Y-77731666D01*
X71154047Y-77874523D01*
X71058809Y-77969761D01*
X70915952Y-78017380D01*
X70820714Y-78017380D01*
X71582619Y-77017380D02*
X72201666Y-77017380D01*
X71868333Y-77398333D01*
X72011190Y-77398333D01*
X72106428Y-77445952D01*
X72154047Y-77493571D01*
X72201666Y-77588809D01*
X72201666Y-77826904D01*
X72154047Y-77922142D01*
X72106428Y-77969761D01*
X72011190Y-78017380D01*
X71725476Y-78017380D01*
X71630238Y-77969761D01*
X71582619Y-77922142D01*
X71655833Y-72847142D02*
X71608214Y-72894761D01*
X71465357Y-72942380D01*
X71370119Y-72942380D01*
X71227261Y-72894761D01*
X71132023Y-72799523D01*
X71084404Y-72704285D01*
X71036785Y-72513809D01*
X71036785Y-72370952D01*
X71084404Y-72180476D01*
X71132023Y-72085238D01*
X71227261Y-71990000D01*
X71370119Y-71942380D01*
X71465357Y-71942380D01*
X71608214Y-71990000D01*
X71655833Y-72037619D01*
X72036785Y-72037619D02*
X72084404Y-71990000D01*
X72179642Y-71942380D01*
X72417738Y-71942380D01*
X72512976Y-71990000D01*
X72560595Y-72037619D01*
X72608214Y-72132857D01*
X72608214Y-72228095D01*
X72560595Y-72370952D01*
X71989166Y-72942380D01*
X72608214Y-72942380D01*
X106213571Y-84772380D02*
X105880238Y-84296190D01*
X105642142Y-84772380D02*
X105642142Y-83772380D01*
X106023095Y-83772380D01*
X106118333Y-83820000D01*
X106165952Y-83867619D01*
X106213571Y-83962857D01*
X106213571Y-84105714D01*
X106165952Y-84200952D01*
X106118333Y-84248571D01*
X106023095Y-84296190D01*
X105642142Y-84296190D01*
X107118333Y-84772380D02*
X106642142Y-84772380D01*
X106642142Y-83772380D01*
X107975476Y-84772380D02*
X107404047Y-84772380D01*
X107689761Y-84772380D02*
X107689761Y-83772380D01*
X107594523Y-83915238D01*
X107499285Y-84010476D01*
X107404047Y-84058095D01*
D12*
X101762064Y-85905000D02*
X101307936Y-85905000D01*
X101762064Y-84435000D02*
X101307936Y-84435000D01*
X76307936Y-74905000D02*
X76762064Y-74905000D01*
X76307936Y-73435000D02*
X76762064Y-73435000D01*
X96512064Y-70905000D02*
X96057936Y-70905000D01*
X96512064Y-69435000D02*
X96057936Y-69435000D01*
X82762064Y-66155000D02*
X82307936Y-66155000D01*
X82762064Y-64685000D02*
X82307936Y-64685000D01*
X138762064Y-85935000D02*
X138307936Y-85935000D01*
X138762064Y-87405000D02*
X138307936Y-87405000D01*
X96057936Y-81155000D02*
X96512064Y-81155000D01*
X96057936Y-79685000D02*
X96512064Y-79685000D01*
X165115000Y-74575000D02*
X162455000Y-74575000D01*
X165115000Y-77175000D02*
X165115000Y-74575000D01*
X165115000Y-78445000D02*
X165115000Y-79775000D01*
X162455000Y-77175000D02*
X162455000Y-74575000D01*
X165115000Y-77175000D02*
X162455000Y-77175000D01*
X165115000Y-79775000D02*
X163785000Y-79775000D01*
X112800000Y-88397064D02*
X112800000Y-87942936D01*
X114270000Y-88397064D02*
X114270000Y-87942936D01*
X153130000Y-94320000D02*
X153130000Y-84550000D01*
X143360000Y-94320000D02*
X153130000Y-94320000D01*
X143360000Y-94320000D02*
X143360000Y-84550000D01*
X143360000Y-84550000D02*
X153130000Y-84550000D01*
X158050000Y-80658748D02*
X158050000Y-81181252D01*
X159520000Y-80658748D02*
X159520000Y-81181252D01*
X127515000Y-84040000D02*
X125280000Y-84040000D01*
X125280000Y-94320000D02*
X131750000Y-94320000D01*
X131750000Y-94320000D02*
X131750000Y-84040000D01*
X125280000Y-84040000D02*
X125280000Y-94320000D01*
X131750000Y-84040000D02*
X129515000Y-84040000D01*
X127515000Y-84040000D02*
G75*
G03*
X129515000Y-84040000I1000000J0D01*
G01*
X58275000Y-71724437D02*
X58275000Y-79180000D01*
X65730563Y-70660000D02*
X63745000Y-70660000D01*
X65730563Y-70660000D02*
X66795000Y-71724437D01*
X66795000Y-79180000D02*
X63745000Y-79180000D01*
X64745000Y-69420000D02*
X64745000Y-70420000D01*
X58275000Y-79180000D02*
X61325000Y-79180000D01*
X59339437Y-70660000D02*
X58275000Y-71724437D01*
X65245000Y-69920000D02*
X64245000Y-69920000D01*
X59339437Y-70660000D02*
X61325000Y-70660000D01*
X66795000Y-71724437D02*
X66795000Y-79180000D01*
X100800000Y-70692936D02*
X100800000Y-71147064D01*
X102270000Y-70692936D02*
X102270000Y-71147064D01*
X116000000Y-68790000D02*
X113765000Y-68790000D01*
X111765000Y-68790000D02*
X109530000Y-68790000D01*
X116000000Y-79070000D02*
X116000000Y-68790000D01*
X109530000Y-68790000D02*
X109530000Y-79070000D01*
X109530000Y-79070000D02*
X116000000Y-79070000D01*
X111765000Y-68790000D02*
G75*
G03*
X113765000Y-68790000I1000000J0D01*
G01*
X151500000Y-69290000D02*
X149265000Y-69290000D01*
X145030000Y-69290000D02*
X145030000Y-79570000D01*
X145030000Y-79570000D02*
X151500000Y-79570000D01*
X151500000Y-79570000D02*
X151500000Y-69290000D01*
X147265000Y-69290000D02*
X145030000Y-69290000D01*
X147265000Y-69290000D02*
G75*
G03*
X149265000Y-69290000I1000000J0D01*
G01*
X157800000Y-69942936D02*
X157800000Y-70397064D01*
X159270000Y-69942936D02*
X159270000Y-70397064D01*
X127515000Y-68790000D02*
X125280000Y-68790000D01*
X125280000Y-68790000D02*
X125280000Y-79070000D01*
X131750000Y-79070000D02*
X131750000Y-68790000D01*
X125280000Y-79070000D02*
X131750000Y-79070000D01*
X131750000Y-68790000D02*
X129515000Y-68790000D01*
X127515000Y-68790000D02*
G75*
G03*
X129515000Y-68790000I1000000J0D01*
G01*
G36*
X99000876Y-63159052D02*
G01*
X98985951Y-63188936D01*
X98962083Y-63235360D01*
X98930455Y-63296053D01*
X98892254Y-63368743D01*
X98848666Y-63451160D01*
X98800875Y-63541032D01*
X98785676Y-63569518D01*
X98562739Y-63987035D01*
X98429519Y-63996420D01*
X98321121Y-64006227D01*
X98208777Y-64020309D01*
X98098609Y-64037723D01*
X97996742Y-64057525D01*
X97927975Y-64073763D01*
X97680548Y-64151237D01*
X97439185Y-64253272D01*
X97204676Y-64379294D01*
X96977813Y-64528731D01*
X96759388Y-64701009D01*
X96550191Y-64895556D01*
X96351014Y-65111798D01*
X96162649Y-65349164D01*
X96158654Y-65354590D01*
X96117181Y-65410670D01*
X96088040Y-65449126D01*
X96070217Y-65471071D01*
X96062699Y-65477618D01*
X96064474Y-65469881D01*
X96074530Y-65448974D01*
X96076764Y-65444626D01*
X96188400Y-65242905D01*
X96314726Y-65040034D01*
X96451901Y-64841363D01*
X96596083Y-64652243D01*
X96743431Y-64478026D01*
X96859475Y-64354522D01*
X97079724Y-64146968D01*
X97314372Y-63953925D01*
X97561348Y-63776593D01*
X97818581Y-63616174D01*
X98084002Y-63473869D01*
X98355540Y-63350879D01*
X98631124Y-63248404D01*
X98903036Y-63169064D01*
X98944149Y-63159132D01*
X98977602Y-63151846D01*
X98999381Y-63148031D01*
X99005672Y-63147981D01*
X99000876Y-63159052D01*
G37*
G36*
X92566261Y-63147111D02*
G01*
X92592673Y-63152298D01*
X92631789Y-63161675D01*
X92680633Y-63174422D01*
X92736232Y-63189718D01*
X92795611Y-63206743D01*
X92855797Y-63224676D01*
X92913814Y-63242698D01*
X92966689Y-63259988D01*
X92972384Y-63261919D01*
X93067532Y-63296668D01*
X93175131Y-63339965D01*
X93290218Y-63389537D01*
X93407827Y-63443110D01*
X93522991Y-63498412D01*
X93630747Y-63553169D01*
X93726127Y-63605107D01*
X93742476Y-63614490D01*
X94006860Y-63779640D01*
X94256747Y-63960206D01*
X94491854Y-64155904D01*
X94711892Y-64366452D01*
X94916577Y-64591567D01*
X95105623Y-64830965D01*
X95278744Y-65084364D01*
X95357223Y-65212791D01*
X95385328Y-65261418D01*
X95415084Y-65314375D01*
X95444409Y-65367762D01*
X95471219Y-65417680D01*
X95493431Y-65460231D01*
X95508963Y-65491515D01*
X95515730Y-65507635D01*
X95515476Y-65508952D01*
X95508062Y-65499771D01*
X95489552Y-65475036D01*
X95462243Y-65437866D01*
X95428431Y-65391381D01*
X95402325Y-65355250D01*
X95224625Y-65127080D01*
X95033843Y-64916898D01*
X94831460Y-64725732D01*
X94618955Y-64554609D01*
X94397808Y-64404555D01*
X94169498Y-64276598D01*
X93935506Y-64171764D01*
X93697310Y-64091081D01*
X93517655Y-64047209D01*
X93446106Y-64034050D01*
X93366423Y-64021769D01*
X93283826Y-64010980D01*
X93203534Y-64002296D01*
X93130768Y-63996331D01*
X93070746Y-63993697D01*
X93061714Y-63993625D01*
X93002798Y-63993571D01*
X92777886Y-63571997D01*
X92728832Y-63479852D01*
X92683594Y-63394486D01*
X92643352Y-63318158D01*
X92609287Y-63253127D01*
X92582582Y-63201651D01*
X92564416Y-63165988D01*
X92555973Y-63148397D01*
X92555526Y-63146935D01*
X92566261Y-63147111D01*
G37*
G36*
X97437613Y-60206849D02*
G01*
X97439831Y-60243284D01*
X97442200Y-60297266D01*
X97444529Y-60364500D01*
X97446433Y-60432758D01*
X97447032Y-60675253D01*
X97437405Y-60922993D01*
X97418115Y-61167425D01*
X97389729Y-61399995D01*
X97377193Y-61480370D01*
X97361455Y-61575146D01*
X97326617Y-61575149D01*
X97278666Y-61579065D01*
X97216305Y-61590071D01*
X97143295Y-61607068D01*
X97063395Y-61628952D01*
X96980367Y-61654622D01*
X96897970Y-61682976D01*
X96819964Y-61712914D01*
X96750110Y-61743332D01*
X96746083Y-61745233D01*
X96701057Y-61766520D01*
X96661542Y-61785068D01*
X96631632Y-61798964D01*
X96615421Y-61806295D01*
X96614924Y-61806506D01*
X96606541Y-61807402D01*
X96601521Y-61798238D01*
X96599027Y-61774200D01*
X96598221Y-61730478D01*
X96598182Y-61710274D01*
X96594971Y-61598999D01*
X96585861Y-61470121D01*
X96571642Y-61330532D01*
X96553101Y-61187127D01*
X96531027Y-61046799D01*
X96508903Y-60929377D01*
X96485842Y-60817490D01*
X96568321Y-60740776D01*
X96729767Y-60600729D01*
X96896945Y-60476360D01*
X97075868Y-60363244D01*
X97101672Y-60348354D01*
X97153169Y-60319860D01*
X97207909Y-60291119D01*
X97262880Y-60263539D01*
X97315069Y-60238527D01*
X97361465Y-60217490D01*
X97399055Y-60201836D01*
X97424829Y-60192973D01*
X97435738Y-60192255D01*
X97437613Y-60206849D01*
G37*
G36*
X94150722Y-60193988D02*
G01*
X94181123Y-60206523D01*
X94222703Y-60225461D01*
X94272153Y-60249203D01*
X94326165Y-60276149D01*
X94381431Y-60304700D01*
X94434640Y-60333257D01*
X94450423Y-60341986D01*
X94543552Y-60397660D01*
X94643875Y-60464228D01*
X94746788Y-60538197D01*
X94847687Y-60616076D01*
X94941968Y-60694373D01*
X95025027Y-60769595D01*
X95061072Y-60805129D01*
X95061700Y-60820021D01*
X95058031Y-60855447D01*
X95050697Y-60906677D01*
X95040331Y-60968982D01*
X95035683Y-60994832D01*
X95009531Y-61147589D01*
X94989341Y-61290897D01*
X94973757Y-61435953D01*
X94961421Y-61593956D01*
X94959552Y-61622860D01*
X94947900Y-61807836D01*
X94885715Y-61775519D01*
X94786321Y-61728852D01*
X94674088Y-61684682D01*
X94555305Y-61645066D01*
X94436266Y-61612064D01*
X94323261Y-61587733D01*
X94299339Y-61583668D01*
X94202421Y-61568113D01*
X94190362Y-61511198D01*
X94179389Y-61449903D01*
X94167716Y-61368171D01*
X94155945Y-61271649D01*
X94144677Y-61165986D01*
X94134513Y-61056830D01*
X94126053Y-60949827D01*
X94119900Y-60850626D01*
X94119746Y-60847613D01*
X94116158Y-60758630D01*
X94114002Y-60665251D01*
X94113196Y-60571089D01*
X94113657Y-60479758D01*
X94115302Y-60394871D01*
X94118048Y-60320039D01*
X94121813Y-60258878D01*
X94126515Y-60214999D01*
X94132069Y-60192016D01*
X94134810Y-60189454D01*
X94150722Y-60193988D01*
G37*
G36*
X98081045Y-65046545D02*
G01*
X98186596Y-65047193D01*
X98276674Y-65049205D01*
X98354930Y-65053066D01*
X98425014Y-65059262D01*
X98490577Y-65068278D01*
X98555267Y-65080601D01*
X98622737Y-65096714D01*
X98696636Y-65117105D01*
X98765195Y-65137541D01*
X98800555Y-65149326D01*
X98845428Y-65165794D01*
X98896895Y-65185713D01*
X98952039Y-65207848D01*
X99007943Y-65230965D01*
X99061688Y-65253832D01*
X99110356Y-65275214D01*
X99151031Y-65293878D01*
X99180795Y-65308591D01*
X99196729Y-65318117D01*
X99198505Y-65320754D01*
X99188491Y-65320461D01*
X99163232Y-65316827D01*
X99126396Y-65310452D01*
X99081653Y-65301932D01*
X99075486Y-65300707D01*
X98844082Y-65266365D01*
X98604941Y-65253680D01*
X98360678Y-65262320D01*
X98113908Y-65291955D01*
X97867247Y-65342254D01*
X97623311Y-65412885D01*
X97384716Y-65503520D01*
X97349180Y-65518983D01*
X97080774Y-65651351D01*
X96820853Y-65807093D01*
X96569309Y-65986291D01*
X96326036Y-66189028D01*
X96090925Y-66415385D01*
X95891731Y-66632983D01*
X95851068Y-66679924D01*
X95813528Y-66723153D01*
X95782527Y-66758742D01*
X95761483Y-66782764D01*
X95757019Y-66787806D01*
X95730830Y-66817192D01*
X95645349Y-66715907D01*
X95415037Y-66458097D01*
X95180538Y-66225630D01*
X94941450Y-66018218D01*
X94697367Y-65835576D01*
X94447886Y-65677416D01*
X94192602Y-65543451D01*
X93931111Y-65433395D01*
X93752043Y-65372831D01*
X93589391Y-65329325D01*
X93418045Y-65295047D01*
X93243302Y-65270608D01*
X93070459Y-65256619D01*
X92904811Y-65253690D01*
X92775415Y-65260197D01*
X92627388Y-65276189D01*
X92491313Y-65297831D01*
X92383983Y-65320499D01*
X92375480Y-65320609D01*
X92382375Y-65313856D01*
X92401923Y-65301684D01*
X92431378Y-65285534D01*
X92467996Y-65266849D01*
X92509030Y-65247071D01*
X92551736Y-65227643D01*
X92593369Y-65210006D01*
X92597299Y-65208424D01*
X92722549Y-65162301D01*
X92843598Y-65126623D01*
X92965713Y-65100328D01*
X93094162Y-65082351D01*
X93234212Y-65071627D01*
X93285160Y-65069452D01*
X93485518Y-65069832D01*
X93682351Y-65085770D01*
X93879136Y-65117953D01*
X94079350Y-65167067D01*
X94286469Y-65233800D01*
X94464636Y-65302454D01*
X94658137Y-65389479D01*
X94858850Y-65493719D01*
X95061849Y-65612182D01*
X95262206Y-65741875D01*
X95454994Y-65879806D01*
X95591919Y-65987076D01*
X95637486Y-66024078D01*
X95677090Y-66055865D01*
X95707926Y-66080214D01*
X95727189Y-66094905D01*
X95732317Y-66098255D01*
X95741423Y-66091492D01*
X95763437Y-66072959D01*
X95795300Y-66045290D01*
X95833951Y-66011117D01*
X95844472Y-66001727D01*
X96062285Y-65819815D01*
X96291327Y-65652889D01*
X96528432Y-65502744D01*
X96770437Y-65371176D01*
X97014177Y-65259980D01*
X97256486Y-65170951D01*
X97367736Y-65137620D01*
X97456790Y-65113400D01*
X97533867Y-65093831D01*
X97602745Y-65078430D01*
X97667201Y-65066714D01*
X97731012Y-65058201D01*
X97797957Y-65052409D01*
X97871812Y-65048856D01*
X97956355Y-65047058D01*
X98055363Y-65046535D01*
X98081045Y-65046545D01*
G37*
G36*
X97670854Y-61778541D02*
G01*
X97804934Y-61782385D01*
X97930207Y-61793429D01*
X98053040Y-61812689D01*
X98179802Y-61841185D01*
X98316860Y-61879936D01*
X98329783Y-61883919D01*
X98374035Y-61898041D01*
X98411867Y-61910858D01*
X98439104Y-61920906D01*
X98451320Y-61926522D01*
X98452637Y-61941601D01*
X98443886Y-61975071D01*
X98426305Y-62024230D01*
X98401131Y-62086377D01*
X98369603Y-62158810D01*
X98332959Y-62238827D01*
X98292437Y-62323728D01*
X98249274Y-62410810D01*
X98204710Y-62497371D01*
X98159980Y-62580711D01*
X98116325Y-62658127D01*
X98115146Y-62660154D01*
X97993400Y-62854919D01*
X97862515Y-63037222D01*
X97724244Y-63205461D01*
X97580336Y-63358032D01*
X97432541Y-63493334D01*
X97282612Y-63609764D01*
X97132299Y-63705719D01*
X96983351Y-63779597D01*
X96837520Y-63829795D01*
X96837354Y-63829839D01*
X96781002Y-63841365D01*
X96713732Y-63850009D01*
X96641500Y-63855462D01*
X96570264Y-63857418D01*
X96505981Y-63855568D01*
X96454680Y-63849617D01*
X96361821Y-63826713D01*
X96264795Y-63793271D01*
X96169849Y-63751933D01*
X96083231Y-63705341D01*
X96028954Y-63669607D01*
X95990687Y-63641768D01*
X96030395Y-63641190D01*
X96073946Y-63636984D01*
X96130553Y-63626331D01*
X96195025Y-63610638D01*
X96262168Y-63591309D01*
X96326791Y-63569752D01*
X96383699Y-63547371D01*
X96394219Y-63542682D01*
X96524754Y-63474552D01*
X96643657Y-63393803D01*
X96754845Y-63297075D01*
X96862237Y-63181004D01*
X96957264Y-63059438D01*
X97046187Y-62929575D01*
X97125008Y-62795763D01*
X97197014Y-62651690D01*
X97265490Y-62491045D01*
X97299803Y-62401534D01*
X97336996Y-62299721D01*
X97367077Y-62212950D01*
X97392439Y-62133567D01*
X97415473Y-62053920D01*
X97438571Y-61966357D01*
X97449813Y-61921569D01*
X97485484Y-61777771D01*
X97670854Y-61778541D01*
G37*
G36*
X95866668Y-59651858D02*
G01*
X95987928Y-59891087D01*
X96096846Y-60137492D01*
X96191312Y-60385995D01*
X96259032Y-60596311D01*
X96301415Y-60740414D01*
X96270703Y-60775408D01*
X96109653Y-60974505D01*
X95960668Y-61190401D01*
X95844154Y-61386904D01*
X95819046Y-61432045D01*
X95798441Y-61468184D01*
X95784845Y-61490980D01*
X95780744Y-61496711D01*
X95774175Y-61486920D01*
X95758547Y-61460300D01*
X95736237Y-61420982D01*
X95711109Y-61375790D01*
X95634080Y-61243614D01*
X95549428Y-61111694D01*
X95461133Y-60985692D01*
X95373177Y-60871270D01*
X95289542Y-60774091D01*
X95283317Y-60767402D01*
X95255287Y-60737475D01*
X95296665Y-60597458D01*
X95346295Y-60441117D01*
X95404276Y-60277771D01*
X95466246Y-60119257D01*
X95513278Y-60009415D01*
X95548378Y-59933199D01*
X95588010Y-59850651D01*
X95629501Y-59767033D01*
X95670182Y-59687607D01*
X95707382Y-59617636D01*
X95738429Y-59562381D01*
X95749443Y-59544104D01*
X95780916Y-59493555D01*
X95866668Y-59651858D01*
G37*
G36*
X99107735Y-64179173D02*
G01*
X99354726Y-64183124D01*
X98901214Y-64916102D01*
X98785310Y-64886708D01*
X98682836Y-64862195D01*
X98589104Y-64843316D01*
X98498988Y-64829468D01*
X98407358Y-64820049D01*
X98309087Y-64814459D01*
X98199046Y-64812094D01*
X98148013Y-64811918D01*
X98029218Y-64813356D01*
X97923925Y-64817884D01*
X97826586Y-64826128D01*
X97731655Y-64838710D01*
X97633584Y-64856254D01*
X97526827Y-64879384D01*
X97507129Y-64883984D01*
X97306422Y-64940376D01*
X97100447Y-65015456D01*
X96893273Y-65107132D01*
X96688967Y-65213313D01*
X96491599Y-65331909D01*
X96305237Y-65460829D01*
X96158107Y-65577315D01*
X96067222Y-65654152D01*
X96134203Y-65565730D01*
X96266463Y-65404809D01*
X96416498Y-65247439D01*
X96583025Y-65094798D01*
X96764763Y-64948066D01*
X96947373Y-64817222D01*
X97192714Y-64664464D01*
X97446352Y-64532726D01*
X97709335Y-64421588D01*
X97982716Y-64330632D01*
X98267544Y-64259439D01*
X98420861Y-64230033D01*
X98553908Y-64209086D01*
X98679444Y-64193944D01*
X98803723Y-64184144D01*
X98932997Y-64179224D01*
X99073519Y-64178719D01*
X99107735Y-64179173D01*
G37*
G36*
X92542628Y-64180252D02*
G01*
X92662818Y-64183246D01*
X92767750Y-64187324D01*
X92861292Y-64192935D01*
X92947314Y-64200530D01*
X93029687Y-64210557D01*
X93112279Y-64223466D01*
X93198959Y-64239707D01*
X93293598Y-64259730D01*
X93364585Y-64275761D01*
X93645938Y-64351516D01*
X93917186Y-64446826D01*
X94177685Y-64561315D01*
X94426792Y-64694608D01*
X94663864Y-64846331D01*
X94888258Y-65016108D01*
X95099331Y-65203566D01*
X95283595Y-65393980D01*
X95316954Y-65431719D01*
X95353898Y-65474597D01*
X95391865Y-65519504D01*
X95428296Y-65563329D01*
X95460630Y-65602961D01*
X95486307Y-65635292D01*
X95502765Y-65657209D01*
X95507444Y-65665603D01*
X95507184Y-65665584D01*
X95497841Y-65658565D01*
X95475558Y-65640343D01*
X95443598Y-65613625D01*
X95405225Y-65581116D01*
X95402325Y-65578645D01*
X95225517Y-65439183D01*
X95034297Y-65309181D01*
X94832599Y-65190665D01*
X94624356Y-65085661D01*
X94413500Y-64996193D01*
X94203965Y-64924288D01*
X94053303Y-64883864D01*
X93947103Y-64860279D01*
X93851026Y-64842157D01*
X93759705Y-64828900D01*
X93667776Y-64819914D01*
X93569873Y-64814604D01*
X93460629Y-64812374D01*
X93407636Y-64812215D01*
X93274343Y-64814392D01*
X93154573Y-64821037D01*
X93042917Y-64832815D01*
X92933969Y-64850390D01*
X92822319Y-64874428D01*
X92747016Y-64893494D01*
X92660406Y-64916515D01*
X92455226Y-64584751D01*
X92404980Y-64503434D01*
X92357782Y-64426916D01*
X92315293Y-64357899D01*
X92279172Y-64299085D01*
X92251081Y-64253176D01*
X92232680Y-64222872D01*
X92226922Y-64213205D01*
X92203797Y-64173424D01*
X92542628Y-64180252D01*
G37*
G36*
X95839488Y-62155626D02*
G01*
X95930325Y-62180543D01*
X96017462Y-62227587D01*
X96098689Y-62296674D01*
X96171798Y-62387719D01*
X96176713Y-62395155D01*
X96226791Y-62483058D01*
X96263170Y-62574914D01*
X96289701Y-62680692D01*
X96292252Y-62693968D01*
X96307513Y-62804152D01*
X96309289Y-62907157D01*
X96297578Y-63014348D01*
X96292252Y-63044693D01*
X96269940Y-63142041D01*
X96240786Y-63224989D01*
X96201134Y-63302211D01*
X96153487Y-63373933D01*
X96080022Y-63459204D01*
X95998384Y-63524708D01*
X95912306Y-63567587D01*
X95892156Y-63573981D01*
X95849211Y-63581946D01*
X95796322Y-63585893D01*
X95742479Y-63585590D01*
X95696670Y-63580799D01*
X95689331Y-63579297D01*
X95600943Y-63546391D01*
X95516476Y-63490680D01*
X95439181Y-63415488D01*
X95372314Y-63324139D01*
X95319127Y-63219956D01*
X95307065Y-63188759D01*
X95270920Y-63060476D01*
X95253239Y-62929897D01*
X95253698Y-62799680D01*
X95271975Y-62672484D01*
X95307745Y-62550967D01*
X95360687Y-62437788D01*
X95407109Y-62365878D01*
X95483314Y-62278902D01*
X95566864Y-62214473D01*
X95655549Y-62172506D01*
X95747160Y-62152919D01*
X95839488Y-62155626D01*
G37*
G36*
X94074732Y-61777771D02*
G01*
X94115057Y-61934642D01*
X94192884Y-62206091D01*
X94281209Y-62455804D01*
X94380004Y-62683695D01*
X94388664Y-62701607D01*
X94439797Y-62803264D01*
X94486853Y-62888906D01*
X94534308Y-62965910D01*
X94586634Y-63041649D01*
X94630953Y-63100997D01*
X94753622Y-63243638D01*
X94887467Y-63366618D01*
X95030405Y-63468647D01*
X95180355Y-63548436D01*
X95335235Y-63604694D01*
X95492965Y-63636131D01*
X95494738Y-63636337D01*
X95567893Y-63644787D01*
X95506634Y-63686946D01*
X95440463Y-63727270D01*
X95362749Y-63766287D01*
X95281023Y-63800584D01*
X95202816Y-63826750D01*
X95190744Y-63830056D01*
X95134939Y-63841481D01*
X95068115Y-63850049D01*
X94996231Y-63855455D01*
X94925245Y-63857394D01*
X94861117Y-63855564D01*
X94809805Y-63849659D01*
X94809180Y-63849541D01*
X94700706Y-63823824D01*
X94596887Y-63787958D01*
X94492554Y-63739685D01*
X94382541Y-63676746D01*
X94316487Y-63634226D01*
X94138461Y-63501475D01*
X93966660Y-63344789D01*
X93801934Y-63165329D01*
X93645137Y-62964254D01*
X93497118Y-62742724D01*
X93358731Y-62501896D01*
X93230826Y-62242932D01*
X93140605Y-62033352D01*
X93098698Y-61929825D01*
X93219683Y-61890058D01*
X93378678Y-61843990D01*
X93540844Y-61808673D01*
X93700962Y-61784932D01*
X93853815Y-61773592D01*
X93956438Y-61773569D01*
X94074732Y-61777771D01*
G37*
X139535000Y-90960000D02*
X136675000Y-90960000D01*
X136675000Y-90960000D02*
X136675000Y-92880000D01*
X136675000Y-92880000D02*
X139535000Y-92880000D01*
X96512064Y-74685000D02*
X96057936Y-74685000D01*
X96512064Y-76155000D02*
X96057936Y-76155000D01*
X101796252Y-75185000D02*
X101273748Y-75185000D01*
X101796252Y-76655000D02*
X101273748Y-76655000D01*
X78895000Y-95020000D02*
X94015000Y-95020000D01*
X92730000Y-89851000D02*
X92683000Y-89897000D01*
X87525000Y-89645000D02*
X87490000Y-89681000D01*
X78895000Y-93520000D02*
X94015000Y-93520000D01*
X90228000Y-91943000D02*
X90181000Y-91989000D01*
X78895000Y-95580000D02*
X94015000Y-95580000D01*
X78895000Y-85659000D02*
X94015000Y-85659000D01*
X85228000Y-91943000D02*
X85181000Y-91989000D01*
X78655000Y-95080000D02*
X78655000Y-95820000D01*
X92525000Y-89645000D02*
X92490000Y-89681000D01*
X90421000Y-92159000D02*
X90386000Y-92194000D01*
X78895000Y-85659000D02*
X78895000Y-95580000D01*
X94015000Y-85659000D02*
X94015000Y-95580000D01*
X78655000Y-95820000D02*
X79155000Y-95820000D01*
X87730000Y-89851000D02*
X87683000Y-89897000D01*
X85421000Y-92159000D02*
X85386000Y-92194000D01*
X78895000Y-88619000D02*
X94015000Y-88619000D01*
X80771000Y-92455000D02*
G75*
G03*
X81483805Y-92600253I683999J1535001D01*
G01*
X79920000Y-90236000D02*
G75*
G03*
X79919573Y-91603042I1534993J-684001D01*
G01*
X82990001Y-91604000D02*
G75*
G03*
X82990427Y-90236958I-1535001J684000D01*
G01*
X81455000Y-92600000D02*
G75*
G03*
X82138318Y-92454756I0J1680000D01*
G01*
X82139000Y-89385000D02*
G75*
G03*
X80771958Y-89384573I-684001J-1534993D01*
G01*
X88135000Y-90920000D02*
G75*
G03*
X88135000Y-90920000I-1680000J0D01*
G01*
X93135000Y-90920000D02*
G75*
G03*
X93135000Y-90920000I-1680000J0D01*
G01*
X102046252Y-80905000D02*
X101523748Y-80905000D01*
X102046252Y-79435000D02*
X101523748Y-79435000D01*
X90250000Y-79570000D02*
X90250000Y-69290000D01*
X90250000Y-69290000D02*
X88015000Y-69290000D01*
X86015000Y-69290000D02*
X83780000Y-69290000D01*
X83780000Y-79570000D02*
X90250000Y-79570000D01*
X83780000Y-69290000D02*
X83780000Y-79570000D01*
X86015000Y-69290000D02*
G75*
G03*
X88015000Y-69290000I1000000J0D01*
G01*
X114012064Y-92685000D02*
X113557936Y-92685000D01*
X114012064Y-94155000D02*
X113557936Y-94155000D01*
X70675000Y-69192936D02*
X70675000Y-69647064D01*
X72145000Y-69192936D02*
X72145000Y-69647064D01*
X75550000Y-79442936D02*
X75550000Y-79897064D01*
X77020000Y-79442936D02*
X77020000Y-79897064D01*
X113307936Y-83405000D02*
X113762064Y-83405000D01*
X113307936Y-81935000D02*
X113762064Y-81935000D01*
X70205000Y-83765000D02*
X72865000Y-83765000D01*
X70205000Y-78565000D02*
X71535000Y-78565000D01*
X70205000Y-81165000D02*
X72865000Y-81165000D01*
X70205000Y-79895000D02*
X70205000Y-78565000D01*
X70205000Y-81165000D02*
X70205000Y-83765000D01*
X72865000Y-81165000D02*
X72865000Y-83765000D01*
X71561248Y-73435000D02*
X72083752Y-73435000D01*
X71561248Y-74905000D02*
X72083752Y-74905000D01*
X107012064Y-81935000D02*
X106557936Y-81935000D01*
X107012064Y-83405000D02*
X106557936Y-83405000D01*
%LPC*%
D13*
X102535000Y-85170000D03*
X100535000Y-85170000D03*
D14*
X75535000Y-74170000D03*
X77535000Y-74170000D03*
D13*
X97285000Y-70170000D03*
X95285000Y-70170000D03*
X83535000Y-65420000D03*
X81535000Y-65420000D03*
X139535000Y-86670000D03*
X137535000Y-86670000D03*
D14*
X95285000Y-80420000D03*
X97285000Y-80420000D03*
D15*
X163785000Y-78445000D03*
D16*
X163785000Y-75905000D03*
D17*
X113535000Y-89170000D03*
X113535000Y-87170000D03*
D18*
X150785000Y-89420000D03*
X148245000Y-86880000D03*
X145705000Y-89420000D03*
D19*
X158785000Y-79882500D03*
X158785000Y-81957500D03*
D20*
X123435000Y-85370000D03*
D21*
X123435000Y-87910000D03*
X123435000Y-90450000D03*
X123435000Y-92990000D03*
X133595000Y-92990000D03*
X133595000Y-90450000D03*
X133595000Y-87910000D03*
X133595000Y-85370000D03*
D22*
X62535000Y-71445000D03*
X62535000Y-78395000D03*
D23*
X101535000Y-69920000D03*
X101535000Y-71920000D03*
D20*
X107685000Y-70120000D03*
D21*
X107685000Y-72660000D03*
X107685000Y-75200000D03*
X107685000Y-77740000D03*
X117845000Y-77740000D03*
X117845000Y-75200000D03*
X117845000Y-72660000D03*
X117845000Y-70120000D03*
D20*
X143185000Y-70620000D03*
D21*
X143185000Y-73160000D03*
X143185000Y-75700000D03*
X143185000Y-78240000D03*
X153345000Y-78240000D03*
X153345000Y-75700000D03*
X153345000Y-73160000D03*
X153345000Y-70620000D03*
D23*
X158535000Y-69170000D03*
X158535000Y-71170000D03*
D20*
X123435000Y-70120000D03*
D21*
X123435000Y-72660000D03*
X123435000Y-75200000D03*
X123435000Y-77740000D03*
X133595000Y-77740000D03*
X133595000Y-75200000D03*
X133595000Y-72660000D03*
X133595000Y-70120000D03*
D24*
X137510000Y-91920000D03*
X139560000Y-91920000D03*
D13*
X97285000Y-75420000D03*
X95285000Y-75420000D03*
D25*
X62035000Y-94170000D03*
D26*
X62035000Y-94170000D03*
D25*
X60535000Y-63670000D03*
D26*
X60535000Y-63670000D03*
D27*
X102572500Y-75920000D03*
X100497500Y-75920000D03*
D25*
X163285000Y-63670000D03*
D26*
X163285000Y-63670000D03*
D28*
X81455000Y-90920000D03*
D29*
X86455000Y-90920000D03*
X91455000Y-90920000D03*
D27*
X102822500Y-80170000D03*
X100747500Y-80170000D03*
D25*
X163285000Y-95170000D03*
D26*
X163285000Y-95170000D03*
D20*
X81935000Y-70620000D03*
D21*
X81935000Y-73160000D03*
X81935000Y-75700000D03*
X81935000Y-78240000D03*
X92095000Y-78240000D03*
X92095000Y-75700000D03*
X92095000Y-73160000D03*
X92095000Y-70620000D03*
D13*
X114785000Y-93420000D03*
X112785000Y-93420000D03*
D23*
X71410000Y-68420000D03*
X71410000Y-70420000D03*
X76285000Y-78670000D03*
X76285000Y-80670000D03*
D14*
X112535000Y-82670000D03*
X114535000Y-82670000D03*
D15*
X71535000Y-79895000D03*
D16*
X71535000Y-82435000D03*
D30*
X70785000Y-74170000D03*
X72860000Y-74170000D03*
D13*
X107785000Y-82670000D03*
X105785000Y-82670000D03*
M02*
