G04 #@! TF.GenerationSoftware,KiCad,Pcbnew,(6.0.10)*
G04 #@! TF.CreationDate,2023-03-10T15:43:37+05:30*
G04 #@! TF.ProjectId,EDL,45444c2e-6b69-4636-9164-5f7063625858,rev?*
G04 #@! TF.SameCoordinates,Original*
G04 #@! TF.FileFunction,Legend,Bot*
G04 #@! TF.FilePolarity,Positive*
%FSLAX46Y46*%
G04 Gerber Fmt 4.6, Leading zero omitted, Abs format (unit mm)*
G04 Created by KiCad (PCBNEW (6.0.10)) date 2023-03-10 15:43:37*
%MOMM*%
%LPD*%
G01*
G04 APERTURE LIST*
%ADD10R,1.700000X1.700000*%
%ADD11O,1.700000X1.700000*%
%ADD12C,1.440000*%
%ADD13R,1.600000X1.600000*%
%ADD14O,1.600000X1.600000*%
%ADD15C,2.900000*%
%ADD16R,2.600000X2.600000*%
%ADD17C,2.600000*%
G04 APERTURE END LIST*
%LPC*%
D10*
X163785000Y-78445000D03*
D11*
X163785000Y-75905000D03*
D12*
X150785000Y-89420000D03*
X148245000Y-86880000D03*
X145705000Y-89420000D03*
D13*
X123435000Y-85370000D03*
D14*
X123435000Y-87910000D03*
X123435000Y-90450000D03*
X123435000Y-92990000D03*
X133595000Y-92990000D03*
X133595000Y-90450000D03*
X133595000Y-87910000D03*
X133595000Y-85370000D03*
D13*
X107685000Y-70120000D03*
D14*
X107685000Y-72660000D03*
X107685000Y-75200000D03*
X107685000Y-77740000D03*
X117845000Y-77740000D03*
X117845000Y-75200000D03*
X117845000Y-72660000D03*
X117845000Y-70120000D03*
D13*
X143185000Y-70620000D03*
D14*
X143185000Y-73160000D03*
X143185000Y-75700000D03*
X143185000Y-78240000D03*
X153345000Y-78240000D03*
X153345000Y-75700000D03*
X153345000Y-73160000D03*
X153345000Y-70620000D03*
D13*
X123435000Y-70120000D03*
D14*
X123435000Y-72660000D03*
X123435000Y-75200000D03*
X123435000Y-77740000D03*
X133595000Y-77740000D03*
X133595000Y-75200000D03*
X133595000Y-72660000D03*
X133595000Y-70120000D03*
D15*
X62035000Y-94170000D03*
X60535000Y-63670000D03*
X163285000Y-63670000D03*
D16*
X81455000Y-90920000D03*
D17*
X86455000Y-90920000D03*
X91455000Y-90920000D03*
D15*
X163285000Y-95170000D03*
D13*
X81935000Y-70620000D03*
D14*
X81935000Y-73160000D03*
X81935000Y-75700000D03*
X81935000Y-78240000D03*
X92095000Y-78240000D03*
X92095000Y-75700000D03*
X92095000Y-73160000D03*
X92095000Y-70620000D03*
D10*
X71535000Y-79895000D03*
D11*
X71535000Y-82435000D03*
M02*
