G04 #@! TF.GenerationSoftware,KiCad,Pcbnew,(6.0.10)*
G04 #@! TF.CreationDate,2023-03-10T15:43:37+05:30*
G04 #@! TF.ProjectId,EDL,45444c2e-6b69-4636-9164-5f7063625858,rev?*
G04 #@! TF.SameCoordinates,Original*
G04 #@! TF.FileFunction,Copper,L2,Bot*
G04 #@! TF.FilePolarity,Positive*
%FSLAX46Y46*%
G04 Gerber Fmt 4.6, Leading zero omitted, Abs format (unit mm)*
G04 Created by KiCad (PCBNEW (6.0.10)) date 2023-03-10 15:43:37*
%MOMM*%
%LPD*%
G01*
G04 APERTURE LIST*
G04 #@! TA.AperFunction,ComponentPad*
%ADD10R,1.700000X1.700000*%
G04 #@! TD*
G04 #@! TA.AperFunction,ComponentPad*
%ADD11O,1.700000X1.700000*%
G04 #@! TD*
G04 #@! TA.AperFunction,ComponentPad*
%ADD12C,1.440000*%
G04 #@! TD*
G04 #@! TA.AperFunction,ComponentPad*
%ADD13R,1.600000X1.600000*%
G04 #@! TD*
G04 #@! TA.AperFunction,ComponentPad*
%ADD14O,1.600000X1.600000*%
G04 #@! TD*
G04 #@! TA.AperFunction,ComponentPad*
%ADD15C,2.900000*%
G04 #@! TD*
G04 #@! TA.AperFunction,ComponentPad*
%ADD16R,2.600000X2.600000*%
G04 #@! TD*
G04 #@! TA.AperFunction,ComponentPad*
%ADD17C,2.600000*%
G04 #@! TD*
G04 #@! TA.AperFunction,ViaPad*
%ADD18C,0.800000*%
G04 #@! TD*
G04 #@! TA.AperFunction,Conductor*
%ADD19C,0.250000*%
G04 #@! TD*
G04 APERTURE END LIST*
D10*
X163785000Y-78445000D03*
D11*
X163785000Y-75905000D03*
D12*
X150785000Y-89420000D03*
X148245000Y-86880000D03*
X145705000Y-89420000D03*
D13*
X123435000Y-85370000D03*
D14*
X123435000Y-87910000D03*
X123435000Y-90450000D03*
X123435000Y-92990000D03*
X133595000Y-92990000D03*
X133595000Y-90450000D03*
X133595000Y-87910000D03*
X133595000Y-85370000D03*
D13*
X107685000Y-70120000D03*
D14*
X107685000Y-72660000D03*
X107685000Y-75200000D03*
X107685000Y-77740000D03*
X117845000Y-77740000D03*
X117845000Y-75200000D03*
X117845000Y-72660000D03*
X117845000Y-70120000D03*
D13*
X143185000Y-70620000D03*
D14*
X143185000Y-73160000D03*
X143185000Y-75700000D03*
X143185000Y-78240000D03*
X153345000Y-78240000D03*
X153345000Y-75700000D03*
X153345000Y-73160000D03*
X153345000Y-70620000D03*
D13*
X123435000Y-70120000D03*
D14*
X123435000Y-72660000D03*
X123435000Y-75200000D03*
X123435000Y-77740000D03*
X133595000Y-77740000D03*
X133595000Y-75200000D03*
X133595000Y-72660000D03*
X133595000Y-70120000D03*
D15*
X62035000Y-94170000D03*
X60535000Y-63670000D03*
X163285000Y-63670000D03*
D16*
X81455000Y-90920000D03*
D17*
X86455000Y-90920000D03*
X91455000Y-90920000D03*
D15*
X163285000Y-95170000D03*
D13*
X81935000Y-70620000D03*
D14*
X81935000Y-73160000D03*
X81935000Y-75700000D03*
X81935000Y-78240000D03*
X92095000Y-78240000D03*
X92095000Y-75700000D03*
X92095000Y-73160000D03*
X92095000Y-70620000D03*
D10*
X71535000Y-79895000D03*
D11*
X71535000Y-82435000D03*
D18*
X103785000Y-75420000D03*
X103035000Y-78170000D03*
X142672299Y-81282701D03*
X141285000Y-82920000D03*
X83285000Y-82920000D03*
X96535000Y-72170000D03*
X79785000Y-72670000D03*
X93785000Y-75670000D03*
X94785000Y-71920000D03*
X104285000Y-78670000D03*
X117035000Y-88670000D03*
X150035000Y-95920000D03*
X120035000Y-95920000D03*
X88285000Y-82920000D03*
X121547299Y-88657701D03*
X120285000Y-78420000D03*
X96785000Y-84170000D03*
X83035000Y-80920000D03*
D19*
X103785000Y-77420000D02*
X103035000Y-78170000D01*
X103785000Y-75420000D02*
X103785000Y-77420000D01*
X141285000Y-82670000D02*
X142672299Y-81282701D01*
X143185000Y-73160000D02*
X142045000Y-73160000D01*
X142045000Y-73160000D02*
X141535000Y-73670000D01*
X141535000Y-77670000D02*
X142105000Y-78240000D01*
X141285000Y-82920000D02*
X141285000Y-82670000D01*
X142105000Y-78240000D02*
X143185000Y-78240000D01*
X141535000Y-73670000D02*
X141535000Y-77670000D01*
X98535000Y-72170000D02*
X99035000Y-71670000D01*
X93785000Y-79420000D02*
X93035000Y-80170000D01*
X99035000Y-71670000D02*
X99035000Y-69420000D01*
X99035000Y-69420000D02*
X100535000Y-67920000D01*
X100535000Y-67920000D02*
X115645000Y-67920000D01*
X80535000Y-80170000D02*
X79785000Y-79420000D01*
X93035000Y-80170000D02*
X80535000Y-80170000D01*
X79785000Y-79420000D02*
X79785000Y-72670000D01*
X93785000Y-75670000D02*
X93785000Y-79420000D01*
X83285000Y-82920000D02*
X80535000Y-80170000D01*
X115645000Y-67920000D02*
X117845000Y-70120000D01*
X96535000Y-72170000D02*
X98535000Y-72170000D01*
X93535000Y-74260000D02*
X92095000Y-75700000D01*
X93535000Y-73170000D02*
X93535000Y-74260000D01*
X94785000Y-71920000D02*
X93535000Y-73170000D01*
X105755000Y-75200000D02*
X107685000Y-75200000D01*
X104285000Y-78670000D02*
X104285000Y-76670000D01*
X104285000Y-76670000D02*
X105755000Y-75200000D01*
X117035000Y-88670000D02*
X117795000Y-87910000D01*
X117795000Y-87910000D02*
X123435000Y-87910000D01*
X122275000Y-72660000D02*
X123435000Y-72660000D01*
X133595000Y-75200000D02*
X136035000Y-72760000D01*
X121535000Y-68420000D02*
X121535000Y-71920000D01*
X136035000Y-72760000D02*
X136035000Y-68670000D01*
X143535000Y-96420000D02*
X149535000Y-96420000D01*
X142285000Y-86920000D02*
X142285000Y-95170000D01*
X136035000Y-68670000D02*
X134285000Y-66920000D01*
X138285000Y-79890000D02*
X138285000Y-82920000D01*
X133595000Y-75200000D02*
X138285000Y-79890000D01*
X123035000Y-66920000D02*
X121535000Y-68420000D01*
X142285000Y-95170000D02*
X143535000Y-96420000D01*
X149535000Y-96420000D02*
X150035000Y-95920000D01*
X138285000Y-82920000D02*
X142285000Y-86920000D01*
X121535000Y-71920000D02*
X122275000Y-72660000D01*
X134285000Y-66920000D02*
X123035000Y-66920000D01*
X133595000Y-90450000D02*
X135535000Y-92390000D01*
X135535000Y-92390000D02*
X135535000Y-95170000D01*
X134785000Y-95920000D02*
X120035000Y-95920000D01*
X135535000Y-95170000D02*
X134785000Y-95920000D01*
X120965000Y-77740000D02*
X123435000Y-77740000D01*
X122105000Y-92990000D02*
X123435000Y-92990000D01*
X98285000Y-82670000D02*
X102785000Y-82670000D01*
X102785000Y-82670000D02*
X102785000Y-82640000D01*
X102785000Y-82640000D02*
X107685000Y-77740000D01*
X86535000Y-81170000D02*
X86285000Y-80920000D01*
X121535000Y-92420000D02*
X122105000Y-92990000D01*
X86285000Y-80920000D02*
X83035000Y-80920000D01*
X121547299Y-88657701D02*
X121535000Y-88670000D01*
X121535000Y-88670000D02*
X121535000Y-92420000D01*
X88285000Y-82920000D02*
X86535000Y-81170000D01*
X120285000Y-78420000D02*
X120965000Y-77740000D01*
X96785000Y-84170000D02*
X98285000Y-82670000D01*
G04 #@! TA.AperFunction,Conductor*
G36*
X160495292Y-59428491D02*
G01*
X160495336Y-59428493D01*
X160495386Y-59428500D01*
X160536513Y-59428500D01*
X160571256Y-59428508D01*
X160571397Y-59428508D01*
X160571444Y-59428501D01*
X160571481Y-59428500D01*
X164712532Y-59428500D01*
X164713798Y-59428587D01*
X164715057Y-59428947D01*
X164720981Y-59428913D01*
X164734746Y-59428836D01*
X164757091Y-59430705D01*
X164999310Y-59472924D01*
X165050451Y-59481837D01*
X165062295Y-59484496D01*
X165377929Y-59571510D01*
X165389465Y-59575298D01*
X165695228Y-59692288D01*
X165706349Y-59697169D01*
X165999450Y-59843064D01*
X166010047Y-59848993D01*
X166192746Y-59963100D01*
X166287727Y-60022422D01*
X166297707Y-60029345D01*
X166557409Y-60228712D01*
X166566675Y-60236564D01*
X166686318Y-60348279D01*
X166805969Y-60460002D01*
X166814421Y-60468693D01*
X166907608Y-60574254D01*
X167031106Y-60714151D01*
X167038695Y-60723633D01*
X167230723Y-60988786D01*
X167237364Y-60998953D01*
X167402987Y-61281392D01*
X167408609Y-61292136D01*
X167546256Y-61589181D01*
X167550826Y-61600434D01*
X167659241Y-61909371D01*
X167662705Y-61921012D01*
X167740867Y-62238928D01*
X167743195Y-62250848D01*
X167789712Y-62570195D01*
X167790385Y-62574818D01*
X167791554Y-62586901D01*
X167805030Y-62866167D01*
X167805551Y-62876965D01*
X167804196Y-62902427D01*
X167802437Y-62913724D01*
X167803601Y-62922626D01*
X167806525Y-62944992D01*
X167807588Y-62961445D01*
X167776567Y-96098256D01*
X167776283Y-96102838D01*
X167775143Y-96107035D01*
X167775317Y-96116014D01*
X167775534Y-96127249D01*
X167774022Y-96149298D01*
X167725547Y-96456944D01*
X167723434Y-96470351D01*
X167721131Y-96481603D01*
X167647328Y-96773625D01*
X167634106Y-96825942D01*
X167630784Y-96836945D01*
X167512747Y-97171906D01*
X167508436Y-97182562D01*
X167450278Y-97309352D01*
X167369711Y-97484996D01*
X167360362Y-97505377D01*
X167355102Y-97515588D01*
X167278957Y-97648171D01*
X167178228Y-97823560D01*
X167172055Y-97833257D01*
X166967845Y-98123836D01*
X166960814Y-98132929D01*
X166730972Y-98403692D01*
X166723141Y-98412106D01*
X166469598Y-98660778D01*
X166461033Y-98668445D01*
X166185860Y-98892994D01*
X166176632Y-98899847D01*
X165882156Y-99098375D01*
X165872342Y-99104359D01*
X165560993Y-99275228D01*
X165550687Y-99280287D01*
X165225043Y-99422080D01*
X165214314Y-99426179D01*
X165042854Y-99482886D01*
X164877130Y-99537696D01*
X164866064Y-99540804D01*
X164753445Y-99566953D01*
X164520101Y-99621133D01*
X164508808Y-99623217D01*
X164277215Y-99655118D01*
X164156982Y-99671680D01*
X164145536Y-99672728D01*
X163828260Y-99687216D01*
X163803133Y-99685847D01*
X163791276Y-99684001D01*
X163759793Y-99688118D01*
X163743427Y-99689182D01*
X72273652Y-99664883D01*
X59589852Y-99661514D01*
X59567256Y-99659465D01*
X59562413Y-99658581D01*
X59230145Y-99597921D01*
X59219553Y-99595510D01*
X58857603Y-99496513D01*
X58847250Y-99493195D01*
X58654451Y-99422078D01*
X58495206Y-99363338D01*
X58485167Y-99359134D01*
X58145648Y-99199384D01*
X58136010Y-99194330D01*
X57811538Y-99005874D01*
X57802371Y-99000006D01*
X57659854Y-98899847D01*
X57495381Y-98784258D01*
X57486758Y-98777624D01*
X57347751Y-98660778D01*
X57199517Y-98536177D01*
X57191497Y-98528821D01*
X56926175Y-98263500D01*
X56918818Y-98255478D01*
X56677381Y-97968247D01*
X56670745Y-97959622D01*
X56454994Y-97652629D01*
X56449126Y-97643462D01*
X56260670Y-97318990D01*
X56255616Y-97309352D01*
X56095866Y-96969833D01*
X56091662Y-96959794D01*
X56024877Y-96778739D01*
X55961805Y-96607750D01*
X55958485Y-96597392D01*
X55956679Y-96590789D01*
X55859490Y-96235448D01*
X55857077Y-96224846D01*
X55845421Y-96160996D01*
X55815474Y-95996962D01*
X55796529Y-95893191D01*
X55794498Y-95868412D01*
X55794559Y-95864848D01*
X55794559Y-95864844D01*
X55794712Y-95855870D01*
X55793737Y-95852311D01*
X55793501Y-95848542D01*
X55793500Y-95133486D01*
X55793500Y-94108325D01*
X60072466Y-94108325D01*
X60083355Y-94385464D01*
X60133184Y-94658303D01*
X60134593Y-94662526D01*
X60210145Y-94888982D01*
X60220960Y-94921400D01*
X60222952Y-94925387D01*
X60222953Y-94925389D01*
X60326572Y-95132763D01*
X60344930Y-95169504D01*
X60502623Y-95397666D01*
X60505645Y-95400935D01*
X60687874Y-95598070D01*
X60687879Y-95598075D01*
X60690890Y-95601332D01*
X60905975Y-95776439D01*
X60909793Y-95778738D01*
X60909795Y-95778739D01*
X61139771Y-95917196D01*
X61143588Y-95919494D01*
X61147683Y-95921228D01*
X61147685Y-95921229D01*
X61394886Y-96025905D01*
X61394893Y-96025907D01*
X61398987Y-96027641D01*
X61497760Y-96053830D01*
X61662779Y-96097585D01*
X61662784Y-96097586D01*
X61667076Y-96098724D01*
X61671485Y-96099246D01*
X61671491Y-96099247D01*
X61851663Y-96120571D01*
X61942506Y-96131323D01*
X62219782Y-96124789D01*
X62348496Y-96103365D01*
X62488981Y-96079982D01*
X62488985Y-96079981D01*
X62493371Y-96079251D01*
X62497612Y-96077910D01*
X62497615Y-96077909D01*
X62753568Y-95996962D01*
X62753570Y-95996961D01*
X62757814Y-95995619D01*
X62761825Y-95993693D01*
X62761830Y-95993691D01*
X62915291Y-95920000D01*
X119121496Y-95920000D01*
X119122186Y-95926565D01*
X119138311Y-96079982D01*
X119141458Y-96109928D01*
X119200473Y-96291556D01*
X119295960Y-96456944D01*
X119300378Y-96461851D01*
X119300379Y-96461852D01*
X119382452Y-96553003D01*
X119423747Y-96598866D01*
X119578248Y-96711118D01*
X119584276Y-96713802D01*
X119584278Y-96713803D01*
X119724962Y-96776439D01*
X119752712Y-96788794D01*
X119846113Y-96808647D01*
X119933056Y-96827128D01*
X119933061Y-96827128D01*
X119939513Y-96828500D01*
X120130487Y-96828500D01*
X120136939Y-96827128D01*
X120136944Y-96827128D01*
X120223888Y-96808647D01*
X120317288Y-96788794D01*
X120345038Y-96776439D01*
X120485722Y-96713803D01*
X120485724Y-96713802D01*
X120491752Y-96711118D01*
X120646253Y-96598866D01*
X120650668Y-96593963D01*
X120655580Y-96589540D01*
X120656705Y-96590789D01*
X120710014Y-96557949D01*
X120743200Y-96553500D01*
X134706233Y-96553500D01*
X134717416Y-96554027D01*
X134724909Y-96555702D01*
X134732835Y-96555453D01*
X134732836Y-96555453D01*
X134792986Y-96553562D01*
X134796945Y-96553500D01*
X134824856Y-96553500D01*
X134828791Y-96553003D01*
X134828856Y-96552995D01*
X134840693Y-96552062D01*
X134872951Y-96551048D01*
X134876970Y-96550922D01*
X134884889Y-96550673D01*
X134904343Y-96545021D01*
X134923700Y-96541013D01*
X134935930Y-96539468D01*
X134935931Y-96539468D01*
X134943797Y-96538474D01*
X134951168Y-96535555D01*
X134951170Y-96535555D01*
X134984912Y-96522196D01*
X134996142Y-96518351D01*
X135030983Y-96508229D01*
X135030984Y-96508229D01*
X135038593Y-96506018D01*
X135045412Y-96501985D01*
X135045417Y-96501983D01*
X135056028Y-96495707D01*
X135073776Y-96487012D01*
X135092617Y-96479552D01*
X135128387Y-96453564D01*
X135138307Y-96447048D01*
X135169535Y-96428580D01*
X135169538Y-96428578D01*
X135176362Y-96424542D01*
X135190683Y-96410221D01*
X135205717Y-96397380D01*
X135222107Y-96385472D01*
X135250298Y-96351395D01*
X135258288Y-96342616D01*
X135927247Y-95673657D01*
X135935537Y-95666113D01*
X135942018Y-95662000D01*
X135988659Y-95612332D01*
X135991413Y-95609491D01*
X136011134Y-95589770D01*
X136013612Y-95586575D01*
X136021318Y-95577553D01*
X136046158Y-95551101D01*
X136051586Y-95545321D01*
X136061346Y-95527568D01*
X136072199Y-95511045D01*
X136079753Y-95501306D01*
X136084613Y-95495041D01*
X136102176Y-95454457D01*
X136107383Y-95443827D01*
X136128695Y-95405060D01*
X136130666Y-95397383D01*
X136130668Y-95397378D01*
X136133732Y-95385442D01*
X136140138Y-95366730D01*
X136145033Y-95355419D01*
X136148181Y-95348145D01*
X136149421Y-95340317D01*
X136149423Y-95340310D01*
X136155099Y-95304476D01*
X136157505Y-95292856D01*
X136166528Y-95257711D01*
X136166528Y-95257710D01*
X136168500Y-95250030D01*
X136168500Y-95229776D01*
X136170051Y-95210065D01*
X136171980Y-95197886D01*
X136173220Y-95190057D01*
X136169059Y-95146038D01*
X136168500Y-95134181D01*
X136168500Y-92468767D01*
X136169027Y-92457584D01*
X136170702Y-92450091D01*
X136168562Y-92382014D01*
X136168500Y-92378055D01*
X136168500Y-92350144D01*
X136167995Y-92346144D01*
X136167062Y-92334301D01*
X136166888Y-92328743D01*
X136165673Y-92290110D01*
X136160022Y-92270658D01*
X136156014Y-92251306D01*
X136154467Y-92239063D01*
X136153474Y-92231203D01*
X136150556Y-92223832D01*
X136137200Y-92190097D01*
X136133355Y-92178870D01*
X136132721Y-92176687D01*
X136121018Y-92136407D01*
X136116984Y-92129585D01*
X136116981Y-92129579D01*
X136110706Y-92118968D01*
X136102010Y-92101218D01*
X136097472Y-92089756D01*
X136097469Y-92089751D01*
X136094552Y-92082383D01*
X136068573Y-92046625D01*
X136062057Y-92036707D01*
X136043575Y-92005457D01*
X136039542Y-91998637D01*
X136025218Y-91984313D01*
X136012376Y-91969278D01*
X136000472Y-91952893D01*
X135966406Y-91924711D01*
X135957627Y-91916722D01*
X134904152Y-90863247D01*
X134870126Y-90800935D01*
X134871540Y-90741541D01*
X134888543Y-90678087D01*
X134908498Y-90450000D01*
X134888543Y-90221913D01*
X134849340Y-90075607D01*
X134830707Y-90006067D01*
X134830706Y-90006065D01*
X134829284Y-90000757D01*
X134826961Y-89995775D01*
X134734849Y-89798238D01*
X134734846Y-89798233D01*
X134732523Y-89793251D01*
X134639351Y-89660188D01*
X134604357Y-89610211D01*
X134604355Y-89610208D01*
X134601198Y-89605700D01*
X134439300Y-89443802D01*
X134434792Y-89440645D01*
X134434789Y-89440643D01*
X134309263Y-89352749D01*
X134251749Y-89312477D01*
X134246767Y-89310154D01*
X134246762Y-89310151D01*
X134212543Y-89294195D01*
X134159258Y-89247278D01*
X134139797Y-89179001D01*
X134160339Y-89111041D01*
X134212543Y-89065805D01*
X134246762Y-89049849D01*
X134246767Y-89049846D01*
X134251749Y-89047523D01*
X134356611Y-88974098D01*
X134434789Y-88919357D01*
X134434792Y-88919355D01*
X134439300Y-88916198D01*
X134601198Y-88754300D01*
X134732523Y-88566749D01*
X134734846Y-88561767D01*
X134734849Y-88561762D01*
X134826961Y-88364225D01*
X134826961Y-88364224D01*
X134829284Y-88359243D01*
X134831219Y-88352024D01*
X134887119Y-88143402D01*
X134887119Y-88143400D01*
X134888543Y-88138087D01*
X134908498Y-87910000D01*
X134888543Y-87681913D01*
X134838887Y-87496596D01*
X134830707Y-87466067D01*
X134830706Y-87466065D01*
X134829284Y-87460757D01*
X134819544Y-87439870D01*
X134734849Y-87258238D01*
X134734846Y-87258233D01*
X134732523Y-87253251D01*
X134624835Y-87099457D01*
X134604357Y-87070211D01*
X134604355Y-87070208D01*
X134601198Y-87065700D01*
X134439300Y-86903802D01*
X134434792Y-86900645D01*
X134434789Y-86900643D01*
X134356611Y-86845902D01*
X134251749Y-86772477D01*
X134246767Y-86770154D01*
X134246762Y-86770151D01*
X134212543Y-86754195D01*
X134159258Y-86707278D01*
X134139797Y-86639001D01*
X134160339Y-86571041D01*
X134212543Y-86525805D01*
X134246762Y-86509849D01*
X134246767Y-86509846D01*
X134251749Y-86507523D01*
X134393458Y-86408297D01*
X134434789Y-86379357D01*
X134434792Y-86379355D01*
X134439300Y-86376198D01*
X134601198Y-86214300D01*
X134732523Y-86026749D01*
X134734846Y-86021767D01*
X134734849Y-86021762D01*
X134826961Y-85824225D01*
X134826961Y-85824224D01*
X134829284Y-85819243D01*
X134831219Y-85812024D01*
X134887119Y-85603402D01*
X134887119Y-85603400D01*
X134888543Y-85598087D01*
X134908498Y-85370000D01*
X134888543Y-85141913D01*
X134887119Y-85136598D01*
X134830707Y-84926067D01*
X134830706Y-84926065D01*
X134829284Y-84920757D01*
X134793471Y-84843955D01*
X134734849Y-84718238D01*
X134734846Y-84718233D01*
X134732523Y-84713251D01*
X134601198Y-84525700D01*
X134439300Y-84363802D01*
X134434792Y-84360645D01*
X134434789Y-84360643D01*
X134356611Y-84305902D01*
X134251749Y-84232477D01*
X134246767Y-84230154D01*
X134246762Y-84230151D01*
X134049225Y-84138039D01*
X134049224Y-84138039D01*
X134044243Y-84135716D01*
X134038935Y-84134294D01*
X134038933Y-84134293D01*
X133828402Y-84077881D01*
X133828400Y-84077881D01*
X133823087Y-84076457D01*
X133595000Y-84056502D01*
X133366913Y-84076457D01*
X133361600Y-84077881D01*
X133361598Y-84077881D01*
X133151067Y-84134293D01*
X133151065Y-84134294D01*
X133145757Y-84135716D01*
X133140776Y-84138039D01*
X133140775Y-84138039D01*
X132943238Y-84230151D01*
X132943233Y-84230154D01*
X132938251Y-84232477D01*
X132833389Y-84305902D01*
X132755211Y-84360643D01*
X132755208Y-84360645D01*
X132750700Y-84363802D01*
X132588802Y-84525700D01*
X132457477Y-84713251D01*
X132455154Y-84718233D01*
X132455151Y-84718238D01*
X132396529Y-84843955D01*
X132360716Y-84920757D01*
X132359294Y-84926065D01*
X132359293Y-84926067D01*
X132302881Y-85136598D01*
X132301457Y-85141913D01*
X132281502Y-85370000D01*
X132301457Y-85598087D01*
X132302881Y-85603400D01*
X132302881Y-85603402D01*
X132358782Y-85812024D01*
X132360716Y-85819243D01*
X132363039Y-85824224D01*
X132363039Y-85824225D01*
X132455151Y-86021762D01*
X132455154Y-86021767D01*
X132457477Y-86026749D01*
X132588802Y-86214300D01*
X132750700Y-86376198D01*
X132755208Y-86379355D01*
X132755211Y-86379357D01*
X132796542Y-86408297D01*
X132938251Y-86507523D01*
X132943233Y-86509846D01*
X132943238Y-86509849D01*
X132977457Y-86525805D01*
X133030742Y-86572722D01*
X133050203Y-86640999D01*
X133029661Y-86708959D01*
X132977457Y-86754195D01*
X132943238Y-86770151D01*
X132943233Y-86770154D01*
X132938251Y-86772477D01*
X132833389Y-86845902D01*
X132755211Y-86900643D01*
X132755208Y-86900645D01*
X132750700Y-86903802D01*
X132588802Y-87065700D01*
X132585645Y-87070208D01*
X132585643Y-87070211D01*
X132565165Y-87099457D01*
X132457477Y-87253251D01*
X132455154Y-87258233D01*
X132455151Y-87258238D01*
X132370456Y-87439870D01*
X132360716Y-87460757D01*
X132359294Y-87466065D01*
X132359293Y-87466067D01*
X132351113Y-87496596D01*
X132301457Y-87681913D01*
X132281502Y-87910000D01*
X132301457Y-88138087D01*
X132302881Y-88143400D01*
X132302881Y-88143402D01*
X132358782Y-88352024D01*
X132360716Y-88359243D01*
X132363039Y-88364224D01*
X132363039Y-88364225D01*
X132455151Y-88561762D01*
X132455154Y-88561767D01*
X132457477Y-88566749D01*
X132588802Y-88754300D01*
X132750700Y-88916198D01*
X132755208Y-88919355D01*
X132755211Y-88919357D01*
X132833389Y-88974098D01*
X132938251Y-89047523D01*
X132943233Y-89049846D01*
X132943238Y-89049849D01*
X132977457Y-89065805D01*
X133030742Y-89112722D01*
X133050203Y-89180999D01*
X133029661Y-89248959D01*
X132977457Y-89294195D01*
X132943238Y-89310151D01*
X132943233Y-89310154D01*
X132938251Y-89312477D01*
X132880737Y-89352749D01*
X132755211Y-89440643D01*
X132755208Y-89440645D01*
X132750700Y-89443802D01*
X132588802Y-89605700D01*
X132585645Y-89610208D01*
X132585643Y-89610211D01*
X132550649Y-89660188D01*
X132457477Y-89793251D01*
X132455154Y-89798233D01*
X132455151Y-89798238D01*
X132363039Y-89995775D01*
X132360716Y-90000757D01*
X132359294Y-90006065D01*
X132359293Y-90006067D01*
X132340660Y-90075607D01*
X132301457Y-90221913D01*
X132281502Y-90450000D01*
X132301457Y-90678087D01*
X132302880Y-90683398D01*
X132302881Y-90683402D01*
X132318460Y-90741541D01*
X132360716Y-90899243D01*
X132363039Y-90904224D01*
X132363039Y-90904225D01*
X132455151Y-91101762D01*
X132455154Y-91101767D01*
X132457477Y-91106749D01*
X132484684Y-91145604D01*
X132585640Y-91289784D01*
X132588802Y-91294300D01*
X132750700Y-91456198D01*
X132755208Y-91459355D01*
X132755211Y-91459357D01*
X132833389Y-91514098D01*
X132938251Y-91587523D01*
X132943233Y-91589846D01*
X132943238Y-91589849D01*
X132977457Y-91605805D01*
X133030742Y-91652722D01*
X133050203Y-91720999D01*
X133029661Y-91788959D01*
X132977457Y-91834195D01*
X132943238Y-91850151D01*
X132943233Y-91850154D01*
X132938251Y-91852477D01*
X132878335Y-91894431D01*
X132755211Y-91980643D01*
X132755208Y-91980645D01*
X132750700Y-91983802D01*
X132588802Y-92145700D01*
X132585645Y-92150208D01*
X132585643Y-92150211D01*
X132546062Y-92206739D01*
X132457477Y-92333251D01*
X132455154Y-92338233D01*
X132455151Y-92338238D01*
X132365498Y-92530502D01*
X132360716Y-92540757D01*
X132359294Y-92546065D01*
X132359293Y-92546067D01*
X132310643Y-92727629D01*
X132301457Y-92761913D01*
X132281502Y-92990000D01*
X132301457Y-93218087D01*
X132302881Y-93223400D01*
X132302881Y-93223402D01*
X132349008Y-93395547D01*
X132360716Y-93439243D01*
X132363039Y-93444224D01*
X132363039Y-93444225D01*
X132455151Y-93641762D01*
X132455154Y-93641767D01*
X132457477Y-93646749D01*
X132588802Y-93834300D01*
X132750700Y-93996198D01*
X132755208Y-93999355D01*
X132755211Y-93999357D01*
X132833389Y-94054098D01*
X132938251Y-94127523D01*
X132943233Y-94129846D01*
X132943238Y-94129849D01*
X133036253Y-94173222D01*
X133145757Y-94224284D01*
X133151065Y-94225706D01*
X133151067Y-94225707D01*
X133361598Y-94282119D01*
X133361600Y-94282119D01*
X133366913Y-94283543D01*
X133595000Y-94303498D01*
X133823087Y-94283543D01*
X133828400Y-94282119D01*
X133828402Y-94282119D01*
X134038933Y-94225707D01*
X134038935Y-94225706D01*
X134044243Y-94224284D01*
X134153747Y-94173222D01*
X134246762Y-94129849D01*
X134246767Y-94129846D01*
X134251749Y-94127523D01*
X134356611Y-94054098D01*
X134434789Y-93999357D01*
X134434792Y-93999355D01*
X134439300Y-93996198D01*
X134601198Y-93834300D01*
X134672286Y-93732775D01*
X134727744Y-93688447D01*
X134798364Y-93681138D01*
X134861724Y-93713169D01*
X134897709Y-93774370D01*
X134901500Y-93805046D01*
X134901500Y-94855405D01*
X134881498Y-94923526D01*
X134864595Y-94944500D01*
X134559500Y-95249595D01*
X134497188Y-95283621D01*
X134470405Y-95286500D01*
X120743200Y-95286500D01*
X120675079Y-95266498D01*
X120655853Y-95250157D01*
X120655580Y-95250460D01*
X120650668Y-95246037D01*
X120646253Y-95241134D01*
X120597747Y-95205892D01*
X120497094Y-95132763D01*
X120497093Y-95132762D01*
X120491752Y-95128882D01*
X120485724Y-95126198D01*
X120485722Y-95126197D01*
X120323319Y-95053891D01*
X120323318Y-95053891D01*
X120317288Y-95051206D01*
X120223888Y-95031353D01*
X120136944Y-95012872D01*
X120136939Y-95012872D01*
X120130487Y-95011500D01*
X119939513Y-95011500D01*
X119933061Y-95012872D01*
X119933056Y-95012872D01*
X119846112Y-95031353D01*
X119752712Y-95051206D01*
X119746682Y-95053891D01*
X119746681Y-95053891D01*
X119584278Y-95126197D01*
X119584276Y-95126198D01*
X119578248Y-95128882D01*
X119572907Y-95132762D01*
X119572906Y-95132763D01*
X119527815Y-95165524D01*
X119423747Y-95241134D01*
X119419326Y-95246044D01*
X119419325Y-95246045D01*
X119302464Y-95375833D01*
X119295960Y-95383056D01*
X119292659Y-95388774D01*
X119209382Y-95533014D01*
X119200473Y-95548444D01*
X119141458Y-95730072D01*
X119140768Y-95736633D01*
X119140768Y-95736635D01*
X119135527Y-95786500D01*
X119121496Y-95920000D01*
X62915291Y-95920000D01*
X63003816Y-95877491D01*
X63003817Y-95877490D01*
X63007835Y-95875561D01*
X63171059Y-95766498D01*
X63234737Y-95723950D01*
X63234741Y-95723947D01*
X63238445Y-95721472D01*
X63445043Y-95536427D01*
X63456072Y-95523307D01*
X63525234Y-95441028D01*
X63623507Y-95324118D01*
X63770276Y-95088782D01*
X63882422Y-94835113D01*
X63957707Y-94568173D01*
X63982845Y-94381015D01*
X63994201Y-94296471D01*
X63994202Y-94296463D01*
X63994628Y-94293289D01*
X63998503Y-94170000D01*
X63978914Y-93893340D01*
X63970022Y-93852035D01*
X63921476Y-93626547D01*
X63921475Y-93626545D01*
X63920540Y-93622200D01*
X63824543Y-93361990D01*
X63796659Y-93310311D01*
X63694953Y-93121818D01*
X63692840Y-93117902D01*
X63528059Y-92894807D01*
X63524940Y-92891638D01*
X63524936Y-92891634D01*
X63402631Y-92767393D01*
X63333488Y-92697155D01*
X63311556Y-92680417D01*
X63116553Y-92531595D01*
X63116549Y-92531592D01*
X63113008Y-92528890D01*
X62871019Y-92393369D01*
X62866870Y-92391764D01*
X62866866Y-92391762D01*
X62711664Y-92331720D01*
X62612349Y-92293298D01*
X62608024Y-92292295D01*
X62608019Y-92292294D01*
X62488836Y-92264669D01*
X79647001Y-92264669D01*
X79647371Y-92271490D01*
X79652895Y-92322352D01*
X79656521Y-92337604D01*
X79701676Y-92458054D01*
X79710214Y-92473649D01*
X79786715Y-92575724D01*
X79799276Y-92588285D01*
X79901351Y-92664786D01*
X79916946Y-92673324D01*
X80037394Y-92718478D01*
X80052649Y-92722105D01*
X80103514Y-92727631D01*
X80110328Y-92728000D01*
X81182885Y-92728000D01*
X81198124Y-92723525D01*
X81199329Y-92722135D01*
X81201000Y-92714452D01*
X81201000Y-92709884D01*
X81709000Y-92709884D01*
X81713475Y-92725123D01*
X81714865Y-92726328D01*
X81722548Y-92727999D01*
X82799669Y-92727999D01*
X82806490Y-92727629D01*
X82857352Y-92722105D01*
X82872604Y-92718479D01*
X82993054Y-92673324D01*
X83008649Y-92664786D01*
X83110724Y-92588285D01*
X83123285Y-92575724D01*
X83199786Y-92473649D01*
X83208324Y-92458054D01*
X83253478Y-92337606D01*
X83257105Y-92322351D01*
X83262631Y-92271486D01*
X83263000Y-92264672D01*
X83263000Y-91192115D01*
X83258525Y-91176876D01*
X83257135Y-91175671D01*
X83249452Y-91174000D01*
X81727115Y-91174000D01*
X81711876Y-91178475D01*
X81710671Y-91179865D01*
X81709000Y-91187548D01*
X81709000Y-92709884D01*
X81201000Y-92709884D01*
X81201000Y-91192115D01*
X81196525Y-91176876D01*
X81195135Y-91175671D01*
X81187452Y-91174000D01*
X79665116Y-91174000D01*
X79649877Y-91178475D01*
X79648672Y-91179865D01*
X79647001Y-91187548D01*
X79647001Y-92264669D01*
X62488836Y-92264669D01*
X62473598Y-92261137D01*
X62342160Y-92230671D01*
X62065841Y-92206739D01*
X62061406Y-92206983D01*
X62061402Y-92206983D01*
X61793351Y-92221735D01*
X61793344Y-92221736D01*
X61788908Y-92221980D01*
X61653917Y-92248831D01*
X61521256Y-92275219D01*
X61521251Y-92275220D01*
X61516884Y-92276089D01*
X61512681Y-92277565D01*
X61259407Y-92366508D01*
X61259404Y-92366509D01*
X61255199Y-92367986D01*
X61251246Y-92370039D01*
X61251240Y-92370042D01*
X61132072Y-92431945D01*
X61009073Y-92495838D01*
X61005458Y-92498421D01*
X61005452Y-92498425D01*
X60892983Y-92578797D01*
X60783416Y-92657095D01*
X60709088Y-92728000D01*
X60590931Y-92840717D01*
X60582732Y-92848538D01*
X60411025Y-93066348D01*
X60408793Y-93070190D01*
X60408790Y-93070195D01*
X60273958Y-93302324D01*
X60273955Y-93302330D01*
X60271720Y-93306178D01*
X60270046Y-93310311D01*
X60169271Y-93559112D01*
X60169268Y-93559120D01*
X60167598Y-93563244D01*
X60100735Y-93832417D01*
X60072466Y-94108325D01*
X55793500Y-94108325D01*
X55793500Y-90872526D01*
X84642050Y-90872526D01*
X84642274Y-90877192D01*
X84642274Y-90877197D01*
X84644179Y-90916851D01*
X84654947Y-91141019D01*
X84707388Y-91404656D01*
X84798220Y-91657646D01*
X84800432Y-91661762D01*
X84800433Y-91661765D01*
X84831187Y-91719001D01*
X84925450Y-91894431D01*
X84928241Y-91898168D01*
X84928245Y-91898175D01*
X84992186Y-91983802D01*
X85086281Y-92109810D01*
X85089590Y-92113090D01*
X85089595Y-92113096D01*
X85273863Y-92295762D01*
X85277180Y-92299050D01*
X85280942Y-92301808D01*
X85280945Y-92301811D01*
X85453027Y-92427986D01*
X85493954Y-92457995D01*
X85498089Y-92460171D01*
X85498093Y-92460173D01*
X85727698Y-92580975D01*
X85731840Y-92583154D01*
X85869257Y-92631142D01*
X85952373Y-92660167D01*
X85985613Y-92671775D01*
X85990206Y-92672647D01*
X86245109Y-92721042D01*
X86245112Y-92721042D01*
X86249698Y-92721913D01*
X86377370Y-92726929D01*
X86513625Y-92732283D01*
X86513630Y-92732283D01*
X86518293Y-92732466D01*
X86622607Y-92721042D01*
X86780844Y-92703713D01*
X86780850Y-92703712D01*
X86785497Y-92703203D01*
X86898985Y-92673324D01*
X87040918Y-92635956D01*
X87040920Y-92635955D01*
X87045441Y-92634765D01*
X87053874Y-92631142D01*
X87288120Y-92530502D01*
X87288122Y-92530501D01*
X87292414Y-92528657D01*
X87507518Y-92395547D01*
X87517017Y-92389669D01*
X87517021Y-92389666D01*
X87520990Y-92387210D01*
X87726149Y-92213530D01*
X87903382Y-92011434D01*
X87911614Y-91998637D01*
X88046269Y-91789291D01*
X88048797Y-91785361D01*
X88159199Y-91540278D01*
X88196209Y-91409051D01*
X88230893Y-91286072D01*
X88230894Y-91286069D01*
X88232163Y-91281568D01*
X88250043Y-91141019D01*
X88265688Y-91018045D01*
X88265688Y-91018041D01*
X88266086Y-91014915D01*
X88268571Y-90920000D01*
X88265043Y-90872526D01*
X89642050Y-90872526D01*
X89642274Y-90877192D01*
X89642274Y-90877197D01*
X89644179Y-90916851D01*
X89654947Y-91141019D01*
X89707388Y-91404656D01*
X89798220Y-91657646D01*
X89800432Y-91661762D01*
X89800433Y-91661765D01*
X89831187Y-91719001D01*
X89925450Y-91894431D01*
X89928241Y-91898168D01*
X89928245Y-91898175D01*
X89992186Y-91983802D01*
X90086281Y-92109810D01*
X90089590Y-92113090D01*
X90089595Y-92113096D01*
X90273863Y-92295762D01*
X90277180Y-92299050D01*
X90280942Y-92301808D01*
X90280945Y-92301811D01*
X90453027Y-92427986D01*
X90493954Y-92457995D01*
X90498089Y-92460171D01*
X90498093Y-92460173D01*
X90727698Y-92580975D01*
X90731840Y-92583154D01*
X90869257Y-92631142D01*
X90952373Y-92660167D01*
X90985613Y-92671775D01*
X90990206Y-92672647D01*
X91245109Y-92721042D01*
X91245112Y-92721042D01*
X91249698Y-92721913D01*
X91377370Y-92726929D01*
X91513625Y-92732283D01*
X91513630Y-92732283D01*
X91518293Y-92732466D01*
X91622607Y-92721042D01*
X91780844Y-92703713D01*
X91780850Y-92703712D01*
X91785497Y-92703203D01*
X91898985Y-92673324D01*
X92040918Y-92635956D01*
X92040920Y-92635955D01*
X92045441Y-92634765D01*
X92053874Y-92631142D01*
X92288120Y-92530502D01*
X92288122Y-92530501D01*
X92292414Y-92528657D01*
X92507518Y-92395547D01*
X92517017Y-92389669D01*
X92517021Y-92389666D01*
X92520990Y-92387210D01*
X92726149Y-92213530D01*
X92903382Y-92011434D01*
X92911614Y-91998637D01*
X93046269Y-91789291D01*
X93048797Y-91785361D01*
X93159199Y-91540278D01*
X93196209Y-91409051D01*
X93230893Y-91286072D01*
X93230894Y-91286069D01*
X93232163Y-91281568D01*
X93250043Y-91141019D01*
X93265688Y-91018045D01*
X93265688Y-91018041D01*
X93266086Y-91014915D01*
X93268571Y-90920000D01*
X93248650Y-90651937D01*
X93247619Y-90647379D01*
X93190361Y-90394331D01*
X93190360Y-90394326D01*
X93189327Y-90389763D01*
X93091902Y-90139238D01*
X92958518Y-89905864D01*
X92792105Y-89694769D01*
X92596317Y-89510591D01*
X92410877Y-89381946D01*
X92379299Y-89360039D01*
X92379296Y-89360037D01*
X92375457Y-89357374D01*
X92371264Y-89355306D01*
X92138564Y-89240551D01*
X92138561Y-89240550D01*
X92134376Y-89238486D01*
X92086745Y-89223239D01*
X92032446Y-89205858D01*
X91878370Y-89156538D01*
X91873763Y-89155788D01*
X91873760Y-89155787D01*
X91617674Y-89114081D01*
X91617675Y-89114081D01*
X91613063Y-89113330D01*
X91482719Y-89111624D01*
X91348961Y-89109873D01*
X91348958Y-89109873D01*
X91344284Y-89109812D01*
X91077937Y-89146060D01*
X90819874Y-89221278D01*
X90575763Y-89333815D01*
X90546884Y-89352749D01*
X90354881Y-89478631D01*
X90354876Y-89478635D01*
X90350968Y-89481197D01*
X90286436Y-89538794D01*
X90161730Y-89650099D01*
X90150426Y-89660188D01*
X89978544Y-89866854D01*
X89839096Y-90096656D01*
X89837287Y-90100970D01*
X89837285Y-90100974D01*
X89784274Y-90227393D01*
X89735148Y-90344545D01*
X89668981Y-90605077D01*
X89642050Y-90872526D01*
X88265043Y-90872526D01*
X88248650Y-90651937D01*
X88247619Y-90647379D01*
X88190361Y-90394331D01*
X88190360Y-90394326D01*
X88189327Y-90389763D01*
X88091902Y-90139238D01*
X87958518Y-89905864D01*
X87792105Y-89694769D01*
X87596317Y-89510591D01*
X87410877Y-89381946D01*
X87379299Y-89360039D01*
X87379296Y-89360037D01*
X87375457Y-89357374D01*
X87371264Y-89355306D01*
X87138564Y-89240551D01*
X87138561Y-89240550D01*
X87134376Y-89238486D01*
X87086745Y-89223239D01*
X87032446Y-89205858D01*
X86878370Y-89156538D01*
X86873763Y-89155788D01*
X86873760Y-89155787D01*
X86617674Y-89114081D01*
X86617675Y-89114081D01*
X86613063Y-89113330D01*
X86482719Y-89111624D01*
X86348961Y-89109873D01*
X86348958Y-89109873D01*
X86344284Y-89109812D01*
X86077937Y-89146060D01*
X85819874Y-89221278D01*
X85575763Y-89333815D01*
X85546884Y-89352749D01*
X85354881Y-89478631D01*
X85354876Y-89478635D01*
X85350968Y-89481197D01*
X85286436Y-89538794D01*
X85161730Y-89650099D01*
X85150426Y-89660188D01*
X84978544Y-89866854D01*
X84839096Y-90096656D01*
X84837287Y-90100970D01*
X84837285Y-90100974D01*
X84784274Y-90227393D01*
X84735148Y-90344545D01*
X84668981Y-90605077D01*
X84642050Y-90872526D01*
X55793500Y-90872526D01*
X55793500Y-90647885D01*
X79647000Y-90647885D01*
X79651475Y-90663124D01*
X79652865Y-90664329D01*
X79660548Y-90666000D01*
X81182885Y-90666000D01*
X81198124Y-90661525D01*
X81199329Y-90660135D01*
X81201000Y-90652452D01*
X81201000Y-90647885D01*
X81709000Y-90647885D01*
X81713475Y-90663124D01*
X81714865Y-90664329D01*
X81722548Y-90666000D01*
X83244884Y-90666000D01*
X83260123Y-90661525D01*
X83261328Y-90660135D01*
X83262999Y-90652452D01*
X83262999Y-89575331D01*
X83262629Y-89568510D01*
X83257105Y-89517648D01*
X83253479Y-89502396D01*
X83208324Y-89381946D01*
X83199786Y-89366351D01*
X83123285Y-89264276D01*
X83110724Y-89251715D01*
X83008649Y-89175214D01*
X82993054Y-89166676D01*
X82872606Y-89121522D01*
X82857351Y-89117895D01*
X82806486Y-89112369D01*
X82799672Y-89112000D01*
X81727115Y-89112000D01*
X81711876Y-89116475D01*
X81710671Y-89117865D01*
X81709000Y-89125548D01*
X81709000Y-90647885D01*
X81201000Y-90647885D01*
X81201000Y-89130116D01*
X81196525Y-89114877D01*
X81195135Y-89113672D01*
X81187452Y-89112001D01*
X80110331Y-89112001D01*
X80103510Y-89112371D01*
X80052648Y-89117895D01*
X80037396Y-89121521D01*
X79916946Y-89166676D01*
X79901351Y-89175214D01*
X79799276Y-89251715D01*
X79786715Y-89264276D01*
X79710214Y-89366351D01*
X79701676Y-89381946D01*
X79656522Y-89502394D01*
X79652895Y-89517649D01*
X79647369Y-89568514D01*
X79647000Y-89575328D01*
X79647000Y-90647885D01*
X55793500Y-90647885D01*
X55793500Y-88670000D01*
X116121496Y-88670000D01*
X116122186Y-88676565D01*
X116139476Y-88841066D01*
X116141458Y-88859928D01*
X116200473Y-89041556D01*
X116295960Y-89206944D01*
X116300378Y-89211851D01*
X116300379Y-89211852D01*
X116326220Y-89240551D01*
X116423747Y-89348866D01*
X116517572Y-89417034D01*
X116554415Y-89443802D01*
X116578248Y-89461118D01*
X116584276Y-89463802D01*
X116584278Y-89463803D01*
X116705217Y-89517648D01*
X116752712Y-89538794D01*
X116846112Y-89558647D01*
X116933056Y-89577128D01*
X116933061Y-89577128D01*
X116939513Y-89578500D01*
X117130487Y-89578500D01*
X117136939Y-89577128D01*
X117136944Y-89577128D01*
X117223888Y-89558647D01*
X117317288Y-89538794D01*
X117364783Y-89517648D01*
X117485722Y-89463803D01*
X117485724Y-89463802D01*
X117491752Y-89461118D01*
X117515586Y-89443802D01*
X117552428Y-89417034D01*
X117646253Y-89348866D01*
X117743780Y-89240551D01*
X117769621Y-89211852D01*
X117769622Y-89211851D01*
X117774040Y-89206944D01*
X117869527Y-89041556D01*
X117928542Y-88859928D01*
X117930525Y-88841066D01*
X117945907Y-88694707D01*
X117972920Y-88629050D01*
X117982122Y-88618782D01*
X118020499Y-88580405D01*
X118082811Y-88546379D01*
X118109594Y-88543500D01*
X120508485Y-88543500D01*
X120576606Y-88563502D01*
X120623099Y-88617158D01*
X120631960Y-88657894D01*
X120633795Y-88657701D01*
X120653757Y-88847629D01*
X120712772Y-89029257D01*
X120716075Y-89034979D01*
X120716076Y-89034980D01*
X120733873Y-89065805D01*
X120808259Y-89194645D01*
X120812677Y-89199552D01*
X120812678Y-89199553D01*
X120869136Y-89262256D01*
X120899854Y-89326263D01*
X120901500Y-89346566D01*
X120901500Y-92341233D01*
X120900973Y-92352416D01*
X120899298Y-92359909D01*
X120899547Y-92367835D01*
X120899547Y-92367836D01*
X120901438Y-92427986D01*
X120901500Y-92431945D01*
X120901500Y-92459856D01*
X120901997Y-92463790D01*
X120901997Y-92463791D01*
X120902005Y-92463856D01*
X120902938Y-92475693D01*
X120904327Y-92519889D01*
X120909978Y-92539339D01*
X120913987Y-92558700D01*
X120916526Y-92578797D01*
X120919445Y-92586168D01*
X120919445Y-92586170D01*
X120932804Y-92619912D01*
X120936649Y-92631142D01*
X120948982Y-92673593D01*
X120953015Y-92680412D01*
X120953017Y-92680417D01*
X120959293Y-92691028D01*
X120967988Y-92708776D01*
X120975448Y-92727617D01*
X120980110Y-92734033D01*
X120980110Y-92734034D01*
X121001436Y-92763387D01*
X121007952Y-92773307D01*
X121030458Y-92811362D01*
X121044779Y-92825683D01*
X121057619Y-92840716D01*
X121069528Y-92857107D01*
X121101413Y-92883484D01*
X121103593Y-92885288D01*
X121112374Y-92893278D01*
X121601353Y-93382258D01*
X121608887Y-93390537D01*
X121613000Y-93397018D01*
X121662651Y-93443643D01*
X121665493Y-93446398D01*
X121685230Y-93466135D01*
X121688427Y-93468615D01*
X121697447Y-93476318D01*
X121729679Y-93506586D01*
X121736625Y-93510405D01*
X121736628Y-93510407D01*
X121747434Y-93516348D01*
X121763953Y-93527199D01*
X121779959Y-93539614D01*
X121787228Y-93542759D01*
X121787232Y-93542762D01*
X121820537Y-93557174D01*
X121831187Y-93562391D01*
X121869940Y-93583695D01*
X121877615Y-93585666D01*
X121877616Y-93585666D01*
X121889562Y-93588733D01*
X121908267Y-93595137D01*
X121926855Y-93603181D01*
X121934678Y-93604420D01*
X121934688Y-93604423D01*
X121970524Y-93610099D01*
X121982144Y-93612505D01*
X122003649Y-93618026D01*
X122024970Y-93623500D01*
X122045224Y-93623500D01*
X122064934Y-93625051D01*
X122084943Y-93628220D01*
X122092835Y-93627474D01*
X122128961Y-93624059D01*
X122140819Y-93623500D01*
X122215606Y-93623500D01*
X122283727Y-93643502D01*
X122318819Y-93677229D01*
X122343985Y-93713169D01*
X122428802Y-93834300D01*
X122590700Y-93996198D01*
X122595208Y-93999355D01*
X122595211Y-93999357D01*
X122673389Y-94054098D01*
X122778251Y-94127523D01*
X122783233Y-94129846D01*
X122783238Y-94129849D01*
X122876253Y-94173222D01*
X122985757Y-94224284D01*
X122991065Y-94225706D01*
X122991067Y-94225707D01*
X123201598Y-94282119D01*
X123201600Y-94282119D01*
X123206913Y-94283543D01*
X123435000Y-94303498D01*
X123663087Y-94283543D01*
X123668400Y-94282119D01*
X123668402Y-94282119D01*
X123878933Y-94225707D01*
X123878935Y-94225706D01*
X123884243Y-94224284D01*
X123993747Y-94173222D01*
X124086762Y-94129849D01*
X124086767Y-94129846D01*
X124091749Y-94127523D01*
X124196611Y-94054098D01*
X124274789Y-93999357D01*
X124274792Y-93999355D01*
X124279300Y-93996198D01*
X124441198Y-93834300D01*
X124572523Y-93646749D01*
X124574846Y-93641767D01*
X124574849Y-93641762D01*
X124666961Y-93444225D01*
X124666961Y-93444224D01*
X124669284Y-93439243D01*
X124680993Y-93395547D01*
X124727119Y-93223402D01*
X124727119Y-93223400D01*
X124728543Y-93218087D01*
X124748498Y-92990000D01*
X124728543Y-92761913D01*
X124719357Y-92727629D01*
X124670707Y-92546067D01*
X124670706Y-92546065D01*
X124669284Y-92540757D01*
X124664502Y-92530502D01*
X124574849Y-92338238D01*
X124574846Y-92338233D01*
X124572523Y-92333251D01*
X124483938Y-92206739D01*
X124444357Y-92150211D01*
X124444355Y-92150208D01*
X124441198Y-92145700D01*
X124279300Y-91983802D01*
X124274792Y-91980645D01*
X124274789Y-91980643D01*
X124151665Y-91894431D01*
X124091749Y-91852477D01*
X124086767Y-91850154D01*
X124086762Y-91850151D01*
X124052543Y-91834195D01*
X123999258Y-91787278D01*
X123979797Y-91719001D01*
X124000339Y-91651041D01*
X124052543Y-91605805D01*
X124086762Y-91589849D01*
X124086767Y-91589846D01*
X124091749Y-91587523D01*
X124196611Y-91514098D01*
X124274789Y-91459357D01*
X124274792Y-91459355D01*
X124279300Y-91456198D01*
X124441198Y-91294300D01*
X124444361Y-91289784D01*
X124545316Y-91145604D01*
X124572523Y-91106749D01*
X124574846Y-91101767D01*
X124574849Y-91101762D01*
X124666961Y-90904225D01*
X124666961Y-90904224D01*
X124669284Y-90899243D01*
X124711541Y-90741541D01*
X124727119Y-90683402D01*
X124727120Y-90683398D01*
X124728543Y-90678087D01*
X124748498Y-90450000D01*
X124728543Y-90221913D01*
X124689340Y-90075607D01*
X124670707Y-90006067D01*
X124670706Y-90006065D01*
X124669284Y-90000757D01*
X124666961Y-89995775D01*
X124574849Y-89798238D01*
X124574846Y-89798233D01*
X124572523Y-89793251D01*
X124479351Y-89660188D01*
X124444357Y-89610211D01*
X124444355Y-89610208D01*
X124441198Y-89605700D01*
X124279300Y-89443802D01*
X124274792Y-89440645D01*
X124274789Y-89440643D01*
X124149263Y-89352749D01*
X124091749Y-89312477D01*
X124086767Y-89310154D01*
X124086762Y-89310151D01*
X124052543Y-89294195D01*
X123999258Y-89247278D01*
X123979797Y-89179001D01*
X124000339Y-89111041D01*
X124052543Y-89065805D01*
X124086762Y-89049849D01*
X124086767Y-89049846D01*
X124091749Y-89047523D01*
X124196611Y-88974098D01*
X124274789Y-88919357D01*
X124274792Y-88919355D01*
X124279300Y-88916198D01*
X124441198Y-88754300D01*
X124572523Y-88566749D01*
X124574846Y-88561767D01*
X124574849Y-88561762D01*
X124666961Y-88364225D01*
X124666961Y-88364224D01*
X124669284Y-88359243D01*
X124671219Y-88352024D01*
X124727119Y-88143402D01*
X124727119Y-88143400D01*
X124728543Y-88138087D01*
X124748498Y-87910000D01*
X124728543Y-87681913D01*
X124678887Y-87496596D01*
X124670707Y-87466067D01*
X124670706Y-87466065D01*
X124669284Y-87460757D01*
X124659544Y-87439870D01*
X124574849Y-87258238D01*
X124574846Y-87258233D01*
X124572523Y-87253251D01*
X124464835Y-87099457D01*
X124444357Y-87070211D01*
X124444355Y-87070208D01*
X124441198Y-87065700D01*
X124279300Y-86903802D01*
X124274789Y-86900643D01*
X124270576Y-86897108D01*
X124271527Y-86895974D01*
X124231529Y-86845929D01*
X124224224Y-86775310D01*
X124256258Y-86711951D01*
X124317462Y-86675970D01*
X124334517Y-86672918D01*
X124345316Y-86671745D01*
X124481705Y-86620615D01*
X124598261Y-86533261D01*
X124685615Y-86416705D01*
X124736745Y-86280316D01*
X124743500Y-86218134D01*
X124743500Y-84521866D01*
X124736745Y-84459684D01*
X124685615Y-84323295D01*
X124598261Y-84206739D01*
X124481705Y-84119385D01*
X124345316Y-84068255D01*
X124283134Y-84061500D01*
X122586866Y-84061500D01*
X122524684Y-84068255D01*
X122388295Y-84119385D01*
X122271739Y-84206739D01*
X122184385Y-84323295D01*
X122133255Y-84459684D01*
X122126500Y-84521866D01*
X122126500Y-86218134D01*
X122133255Y-86280316D01*
X122184385Y-86416705D01*
X122271739Y-86533261D01*
X122388295Y-86620615D01*
X122524684Y-86671745D01*
X122535474Y-86672917D01*
X122537606Y-86673803D01*
X122540222Y-86674425D01*
X122540121Y-86674848D01*
X122601035Y-86700155D01*
X122641463Y-86758517D01*
X122643922Y-86829471D01*
X122607629Y-86890490D01*
X122598969Y-86897489D01*
X122595207Y-86900646D01*
X122590700Y-86903802D01*
X122428802Y-87065700D01*
X122425645Y-87070208D01*
X122425643Y-87070211D01*
X122318819Y-87222771D01*
X122263362Y-87267099D01*
X122215606Y-87276500D01*
X117873767Y-87276500D01*
X117862584Y-87275973D01*
X117855091Y-87274298D01*
X117847165Y-87274547D01*
X117847164Y-87274547D01*
X117787014Y-87276438D01*
X117783055Y-87276500D01*
X117755144Y-87276500D01*
X117751210Y-87276997D01*
X117751209Y-87276997D01*
X117751144Y-87277005D01*
X117739307Y-87277938D01*
X117707490Y-87278938D01*
X117703029Y-87279078D01*
X117695110Y-87279327D01*
X117677454Y-87284456D01*
X117675658Y-87284978D01*
X117656306Y-87288986D01*
X117649235Y-87289880D01*
X117636203Y-87291526D01*
X117628834Y-87294443D01*
X117628832Y-87294444D01*
X117595097Y-87307800D01*
X117583869Y-87311645D01*
X117541407Y-87323982D01*
X117534585Y-87328016D01*
X117534579Y-87328019D01*
X117523968Y-87334294D01*
X117506218Y-87342990D01*
X117494756Y-87347528D01*
X117494751Y-87347531D01*
X117487383Y-87350448D01*
X117480968Y-87355109D01*
X117451625Y-87376427D01*
X117441707Y-87382943D01*
X117423019Y-87393995D01*
X117403637Y-87405458D01*
X117389313Y-87419782D01*
X117374281Y-87432621D01*
X117357893Y-87444528D01*
X117329712Y-87478593D01*
X117321722Y-87487373D01*
X117084500Y-87724595D01*
X117022188Y-87758621D01*
X116995405Y-87761500D01*
X116939513Y-87761500D01*
X116933061Y-87762872D01*
X116933056Y-87762872D01*
X116846112Y-87781353D01*
X116752712Y-87801206D01*
X116746682Y-87803891D01*
X116746681Y-87803891D01*
X116584278Y-87876197D01*
X116584276Y-87876198D01*
X116578248Y-87878882D01*
X116572907Y-87882762D01*
X116572906Y-87882763D01*
X116535418Y-87910000D01*
X116423747Y-87991134D01*
X116419326Y-87996044D01*
X116419325Y-87996045D01*
X116380809Y-88038822D01*
X116295960Y-88133056D01*
X116253288Y-88206966D01*
X116221989Y-88261178D01*
X116200473Y-88298444D01*
X116141458Y-88480072D01*
X116140768Y-88486633D01*
X116140768Y-88486635D01*
X116134489Y-88546379D01*
X116121496Y-88670000D01*
X55793500Y-88670000D01*
X55793500Y-84170000D01*
X95871496Y-84170000D01*
X95872186Y-84176565D01*
X95878063Y-84232477D01*
X95891458Y-84359928D01*
X95950473Y-84541556D01*
X96045960Y-84706944D01*
X96173747Y-84848866D01*
X96328248Y-84961118D01*
X96334276Y-84963802D01*
X96334278Y-84963803D01*
X96496681Y-85036109D01*
X96502712Y-85038794D01*
X96596113Y-85058647D01*
X96683056Y-85077128D01*
X96683061Y-85077128D01*
X96689513Y-85078500D01*
X96880487Y-85078500D01*
X96886939Y-85077128D01*
X96886944Y-85077128D01*
X96973887Y-85058647D01*
X97067288Y-85038794D01*
X97073319Y-85036109D01*
X97235722Y-84963803D01*
X97235724Y-84963802D01*
X97241752Y-84961118D01*
X97396253Y-84848866D01*
X97524040Y-84706944D01*
X97619527Y-84541556D01*
X97678542Y-84359928D01*
X97695907Y-84194706D01*
X97722920Y-84129050D01*
X97732122Y-84118782D01*
X98510499Y-83340405D01*
X98572811Y-83306379D01*
X98599594Y-83303500D01*
X102713207Y-83303500D01*
X102736816Y-83305732D01*
X102737119Y-83305790D01*
X102737123Y-83305790D01*
X102744906Y-83307275D01*
X102800951Y-83303749D01*
X102808862Y-83303500D01*
X102824856Y-83303500D01*
X102840730Y-83301494D01*
X102848590Y-83300752D01*
X102876049Y-83299024D01*
X102896737Y-83297723D01*
X102896738Y-83297723D01*
X102904650Y-83297225D01*
X102912191Y-83294775D01*
X102912487Y-83294679D01*
X102935631Y-83289506D01*
X102935935Y-83289468D01*
X102935940Y-83289467D01*
X102943797Y-83288474D01*
X102951162Y-83285558D01*
X102951166Y-83285557D01*
X102996011Y-83267801D01*
X103003430Y-83265129D01*
X103056875Y-83247764D01*
X103063572Y-83243514D01*
X103063831Y-83243350D01*
X103084958Y-83232585D01*
X103085246Y-83232471D01*
X103085251Y-83232468D01*
X103092617Y-83229552D01*
X103099025Y-83224896D01*
X103099031Y-83224893D01*
X103138052Y-83196542D01*
X103144589Y-83192099D01*
X103192018Y-83162000D01*
X103197659Y-83155993D01*
X103215446Y-83140312D01*
X103215691Y-83140134D01*
X103215693Y-83140132D01*
X103222107Y-83135472D01*
X103238046Y-83116206D01*
X103257903Y-83092204D01*
X103263134Y-83086270D01*
X103296158Y-83051102D01*
X103296160Y-83051099D01*
X103301586Y-83045321D01*
X103305558Y-83038097D01*
X103318881Y-83018494D01*
X103319079Y-83018254D01*
X103319080Y-83018252D01*
X103324133Y-83012144D01*
X103328435Y-83003002D01*
X103353348Y-82967556D01*
X107271752Y-79049152D01*
X107334064Y-79015126D01*
X107393459Y-79016541D01*
X107451591Y-79032118D01*
X107451602Y-79032120D01*
X107456913Y-79033543D01*
X107685000Y-79053498D01*
X107913087Y-79033543D01*
X107918400Y-79032119D01*
X107918402Y-79032119D01*
X108128933Y-78975707D01*
X108128935Y-78975706D01*
X108134243Y-78974284D01*
X108171429Y-78956944D01*
X108336762Y-78879849D01*
X108336767Y-78879846D01*
X108341749Y-78877523D01*
X108473498Y-78785271D01*
X108524789Y-78749357D01*
X108524792Y-78749355D01*
X108529300Y-78746198D01*
X108691198Y-78584300D01*
X108717121Y-78547279D01*
X108751737Y-78497842D01*
X108822523Y-78396749D01*
X108824846Y-78391767D01*
X108824849Y-78391762D01*
X108916961Y-78194225D01*
X108916961Y-78194224D01*
X108919284Y-78189243D01*
X108922444Y-78177452D01*
X108977119Y-77973402D01*
X108977120Y-77973398D01*
X108978543Y-77968087D01*
X108998498Y-77740000D01*
X108978543Y-77511913D01*
X108946446Y-77392125D01*
X108920707Y-77296067D01*
X108920706Y-77296065D01*
X108919284Y-77290757D01*
X108906281Y-77262872D01*
X108824849Y-77088238D01*
X108824846Y-77088233D01*
X108822523Y-77083251D01*
X108726540Y-76946173D01*
X108694357Y-76900211D01*
X108694355Y-76900208D01*
X108691198Y-76895700D01*
X108529300Y-76733802D01*
X108524792Y-76730645D01*
X108524789Y-76730643D01*
X108442089Y-76672736D01*
X108341749Y-76602477D01*
X108336767Y-76600154D01*
X108336762Y-76600151D01*
X108302543Y-76584195D01*
X108249258Y-76537278D01*
X108229797Y-76469001D01*
X108250339Y-76401041D01*
X108302543Y-76355805D01*
X108336762Y-76339849D01*
X108336767Y-76339846D01*
X108341749Y-76337523D01*
X108446611Y-76264098D01*
X108524789Y-76209357D01*
X108524792Y-76209355D01*
X108529300Y-76206198D01*
X108691198Y-76044300D01*
X108695461Y-76038213D01*
X108751737Y-75957842D01*
X108822523Y-75856749D01*
X108824846Y-75851767D01*
X108824849Y-75851762D01*
X108916961Y-75654225D01*
X108916961Y-75654224D01*
X108919284Y-75649243D01*
X108929819Y-75609928D01*
X108977119Y-75433402D01*
X108977119Y-75433400D01*
X108978543Y-75428087D01*
X108998498Y-75200000D01*
X108978543Y-74971913D01*
X108977117Y-74966591D01*
X108920707Y-74756067D01*
X108920706Y-74756065D01*
X108919284Y-74750757D01*
X108906164Y-74722620D01*
X108824849Y-74548238D01*
X108824846Y-74548233D01*
X108822523Y-74543251D01*
X108726739Y-74406457D01*
X108694357Y-74360211D01*
X108694355Y-74360208D01*
X108691198Y-74355700D01*
X108529300Y-74193802D01*
X108524792Y-74190645D01*
X108524789Y-74190643D01*
X108446611Y-74135902D01*
X108341749Y-74062477D01*
X108336767Y-74060154D01*
X108336762Y-74060151D01*
X108302543Y-74044195D01*
X108249258Y-73997278D01*
X108229797Y-73929001D01*
X108250339Y-73861041D01*
X108302543Y-73815805D01*
X108336762Y-73799849D01*
X108336767Y-73799846D01*
X108341749Y-73797523D01*
X108446611Y-73724098D01*
X108524789Y-73669357D01*
X108524792Y-73669355D01*
X108529300Y-73666198D01*
X108691198Y-73504300D01*
X108822523Y-73316749D01*
X108824846Y-73311767D01*
X108824849Y-73311762D01*
X108916961Y-73114225D01*
X108916961Y-73114224D01*
X108919284Y-73109243D01*
X108938881Y-73036109D01*
X108977119Y-72893402D01*
X108977119Y-72893400D01*
X108978543Y-72888087D01*
X108998498Y-72660000D01*
X108978543Y-72431913D01*
X108976561Y-72424517D01*
X108920707Y-72216067D01*
X108920706Y-72216065D01*
X108919284Y-72210757D01*
X108910084Y-72191028D01*
X108824849Y-72008238D01*
X108824846Y-72008233D01*
X108822523Y-72003251D01*
X108733559Y-71876197D01*
X108694357Y-71820211D01*
X108694355Y-71820208D01*
X108691198Y-71815700D01*
X108529300Y-71653802D01*
X108524789Y-71650643D01*
X108520576Y-71647108D01*
X108521527Y-71645974D01*
X108481529Y-71595929D01*
X108474224Y-71525310D01*
X108506258Y-71461951D01*
X108567462Y-71425970D01*
X108584517Y-71422918D01*
X108595316Y-71421745D01*
X108731705Y-71370615D01*
X108848261Y-71283261D01*
X108935615Y-71166705D01*
X108986745Y-71030316D01*
X108993500Y-70968134D01*
X108993500Y-69271866D01*
X108986745Y-69209684D01*
X108935615Y-69073295D01*
X108848261Y-68956739D01*
X108731705Y-68869385D01*
X108595316Y-68818255D01*
X108533134Y-68811500D01*
X106836866Y-68811500D01*
X106774684Y-68818255D01*
X106638295Y-68869385D01*
X106521739Y-68956739D01*
X106434385Y-69073295D01*
X106383255Y-69209684D01*
X106376500Y-69271866D01*
X106376500Y-70968134D01*
X106383255Y-71030316D01*
X106434385Y-71166705D01*
X106521739Y-71283261D01*
X106638295Y-71370615D01*
X106774684Y-71421745D01*
X106785474Y-71422917D01*
X106787606Y-71423803D01*
X106790222Y-71424425D01*
X106790121Y-71424848D01*
X106851035Y-71450155D01*
X106891463Y-71508517D01*
X106893922Y-71579471D01*
X106857629Y-71640490D01*
X106848969Y-71647489D01*
X106845207Y-71650646D01*
X106840700Y-71653802D01*
X106678802Y-71815700D01*
X106675645Y-71820208D01*
X106675643Y-71820211D01*
X106636441Y-71876197D01*
X106547477Y-72003251D01*
X106545154Y-72008233D01*
X106545151Y-72008238D01*
X106459916Y-72191028D01*
X106450716Y-72210757D01*
X106449294Y-72216065D01*
X106449293Y-72216067D01*
X106393439Y-72424517D01*
X106391457Y-72431913D01*
X106371502Y-72660000D01*
X106391457Y-72888087D01*
X106392881Y-72893400D01*
X106392881Y-72893402D01*
X106431120Y-73036109D01*
X106450716Y-73109243D01*
X106453039Y-73114224D01*
X106453039Y-73114225D01*
X106545151Y-73311762D01*
X106545154Y-73311767D01*
X106547477Y-73316749D01*
X106678802Y-73504300D01*
X106840700Y-73666198D01*
X106845208Y-73669355D01*
X106845211Y-73669357D01*
X106923389Y-73724098D01*
X107028251Y-73797523D01*
X107033233Y-73799846D01*
X107033238Y-73799849D01*
X107067457Y-73815805D01*
X107120742Y-73862722D01*
X107140203Y-73930999D01*
X107119661Y-73998959D01*
X107067457Y-74044195D01*
X107033238Y-74060151D01*
X107033233Y-74060154D01*
X107028251Y-74062477D01*
X106923389Y-74135902D01*
X106845211Y-74190643D01*
X106845208Y-74190645D01*
X106840700Y-74193802D01*
X106678802Y-74355700D01*
X106675645Y-74360208D01*
X106675643Y-74360211D01*
X106568819Y-74512771D01*
X106513362Y-74557099D01*
X106465606Y-74566500D01*
X105833767Y-74566500D01*
X105822584Y-74565973D01*
X105815091Y-74564298D01*
X105807165Y-74564547D01*
X105807164Y-74564547D01*
X105747001Y-74566438D01*
X105743043Y-74566500D01*
X105715144Y-74566500D01*
X105711154Y-74567004D01*
X105699320Y-74567936D01*
X105655111Y-74569326D01*
X105647497Y-74571538D01*
X105647492Y-74571539D01*
X105635659Y-74574977D01*
X105616296Y-74578988D01*
X105596203Y-74581526D01*
X105588836Y-74584443D01*
X105588831Y-74584444D01*
X105555092Y-74597802D01*
X105543865Y-74601646D01*
X105501407Y-74613982D01*
X105494581Y-74618019D01*
X105483972Y-74624293D01*
X105466224Y-74632988D01*
X105447383Y-74640448D01*
X105440967Y-74645110D01*
X105440966Y-74645110D01*
X105411613Y-74666436D01*
X105401693Y-74672952D01*
X105370465Y-74691420D01*
X105370462Y-74691422D01*
X105363638Y-74695458D01*
X105349317Y-74709779D01*
X105334284Y-74722619D01*
X105317893Y-74734528D01*
X105298964Y-74757409D01*
X105289702Y-74768605D01*
X105281712Y-74777384D01*
X104860836Y-75198260D01*
X104798524Y-75232286D01*
X104727709Y-75227221D01*
X104670873Y-75184674D01*
X104651908Y-75148102D01*
X104647019Y-75133056D01*
X104619527Y-75048444D01*
X104524040Y-74883056D01*
X104517863Y-74876195D01*
X104400675Y-74746045D01*
X104400674Y-74746044D01*
X104396253Y-74741134D01*
X104284461Y-74659912D01*
X104247094Y-74632763D01*
X104247093Y-74632762D01*
X104241752Y-74628882D01*
X104235724Y-74626198D01*
X104235722Y-74626197D01*
X104073319Y-74553891D01*
X104073318Y-74553891D01*
X104067288Y-74551206D01*
X103973888Y-74531353D01*
X103886944Y-74512872D01*
X103886939Y-74512872D01*
X103880487Y-74511500D01*
X103689513Y-74511500D01*
X103683061Y-74512872D01*
X103683056Y-74512872D01*
X103596112Y-74531353D01*
X103502712Y-74551206D01*
X103496682Y-74553891D01*
X103496681Y-74553891D01*
X103334278Y-74626197D01*
X103334276Y-74626198D01*
X103328248Y-74628882D01*
X103322907Y-74632762D01*
X103322906Y-74632763D01*
X103285539Y-74659912D01*
X103173747Y-74741134D01*
X103169326Y-74746044D01*
X103169325Y-74746045D01*
X103052138Y-74876195D01*
X103045960Y-74883056D01*
X102950473Y-75048444D01*
X102891458Y-75230072D01*
X102890768Y-75236633D01*
X102890768Y-75236635D01*
X102889284Y-75250757D01*
X102871496Y-75420000D01*
X102872186Y-75426565D01*
X102878500Y-75486635D01*
X102891458Y-75609928D01*
X102950473Y-75791556D01*
X103045960Y-75956944D01*
X103119137Y-76038215D01*
X103149853Y-76102221D01*
X103151500Y-76122524D01*
X103151500Y-77105405D01*
X103131498Y-77173526D01*
X103114595Y-77194500D01*
X103084500Y-77224595D01*
X103022188Y-77258621D01*
X102995405Y-77261500D01*
X102939513Y-77261500D01*
X102933061Y-77262872D01*
X102933056Y-77262872D01*
X102878221Y-77274528D01*
X102752712Y-77301206D01*
X102746682Y-77303891D01*
X102746681Y-77303891D01*
X102584278Y-77376197D01*
X102584276Y-77376198D01*
X102578248Y-77378882D01*
X102572907Y-77382762D01*
X102572906Y-77382763D01*
X102555100Y-77395700D01*
X102423747Y-77491134D01*
X102419326Y-77496044D01*
X102419325Y-77496045D01*
X102338526Y-77585782D01*
X102295960Y-77633056D01*
X102200473Y-77798444D01*
X102141458Y-77980072D01*
X102140768Y-77986633D01*
X102140768Y-77986635D01*
X102125894Y-78128153D01*
X102121496Y-78170000D01*
X102122186Y-78176565D01*
X102128500Y-78236635D01*
X102141458Y-78359928D01*
X102200473Y-78541556D01*
X102203776Y-78547278D01*
X102203777Y-78547279D01*
X102236159Y-78603365D01*
X102295960Y-78706944D01*
X102300378Y-78711851D01*
X102300379Y-78711852D01*
X102331304Y-78746198D01*
X102423747Y-78848866D01*
X102578248Y-78961118D01*
X102584276Y-78963802D01*
X102584278Y-78963803D01*
X102742097Y-79034068D01*
X102752712Y-79038794D01*
X102846113Y-79058647D01*
X102933056Y-79077128D01*
X102933061Y-79077128D01*
X102939513Y-79078500D01*
X103130487Y-79078500D01*
X103136939Y-79077128D01*
X103136944Y-79077128D01*
X103277369Y-79047279D01*
X103317288Y-79038794D01*
X103323324Y-79036107D01*
X103329598Y-79034068D01*
X103330455Y-79036705D01*
X103388698Y-79028897D01*
X103452994Y-79059006D01*
X103478695Y-79090438D01*
X103545960Y-79206944D01*
X103550378Y-79211851D01*
X103550379Y-79211852D01*
X103581304Y-79246198D01*
X103673747Y-79348866D01*
X103828248Y-79461118D01*
X103834276Y-79463802D01*
X103834278Y-79463803D01*
X103996681Y-79536109D01*
X104002712Y-79538794D01*
X104096112Y-79558647D01*
X104183056Y-79577128D01*
X104183061Y-79577128D01*
X104189513Y-79578500D01*
X104380487Y-79578500D01*
X104386939Y-79577128D01*
X104386944Y-79577128D01*
X104473888Y-79558647D01*
X104567288Y-79538794D01*
X104580181Y-79533054D01*
X104699845Y-79479776D01*
X104708729Y-79475821D01*
X104779095Y-79466387D01*
X104843392Y-79496493D01*
X104881206Y-79556582D01*
X104880530Y-79627576D01*
X104849072Y-79680023D01*
X102529500Y-81999595D01*
X102467188Y-82033621D01*
X102440405Y-82036500D01*
X98363763Y-82036500D01*
X98352579Y-82035973D01*
X98345091Y-82034299D01*
X98337168Y-82034548D01*
X98277033Y-82036438D01*
X98273075Y-82036500D01*
X98245144Y-82036500D01*
X98241229Y-82036995D01*
X98241225Y-82036995D01*
X98241167Y-82037003D01*
X98241138Y-82037006D01*
X98229296Y-82037939D01*
X98185110Y-82039327D01*
X98167744Y-82044372D01*
X98165658Y-82044978D01*
X98146306Y-82048986D01*
X98139595Y-82049834D01*
X98126203Y-82051526D01*
X98118834Y-82054443D01*
X98118832Y-82054444D01*
X98085097Y-82067800D01*
X98073869Y-82071645D01*
X98031407Y-82083982D01*
X98024585Y-82088016D01*
X98024579Y-82088019D01*
X98013968Y-82094294D01*
X97996218Y-82102990D01*
X97984756Y-82107528D01*
X97984751Y-82107531D01*
X97977383Y-82110448D01*
X97970968Y-82115109D01*
X97941625Y-82136427D01*
X97931707Y-82142943D01*
X97913019Y-82153995D01*
X97893637Y-82165458D01*
X97879313Y-82179782D01*
X97864281Y-82192621D01*
X97847893Y-82204528D01*
X97820822Y-82237251D01*
X97819712Y-82238593D01*
X97811722Y-82247373D01*
X96834500Y-83224595D01*
X96772188Y-83258621D01*
X96745405Y-83261500D01*
X96689513Y-83261500D01*
X96683061Y-83262872D01*
X96683056Y-83262872D01*
X96596113Y-83281353D01*
X96502712Y-83301206D01*
X96496682Y-83303891D01*
X96496681Y-83303891D01*
X96334278Y-83376197D01*
X96334276Y-83376198D01*
X96328248Y-83378882D01*
X96173747Y-83491134D01*
X96169326Y-83496044D01*
X96169325Y-83496045D01*
X96068756Y-83607739D01*
X96045960Y-83633056D01*
X96000891Y-83711118D01*
X95957595Y-83786109D01*
X95950473Y-83798444D01*
X95891458Y-83980072D01*
X95871496Y-84170000D01*
X55793500Y-84170000D01*
X55793500Y-82702966D01*
X70203257Y-82702966D01*
X70233565Y-82837446D01*
X70236645Y-82847275D01*
X70316770Y-83044603D01*
X70321413Y-83053794D01*
X70432694Y-83235388D01*
X70438777Y-83243699D01*
X70578213Y-83404667D01*
X70585580Y-83411883D01*
X70749434Y-83547916D01*
X70757881Y-83553831D01*
X70941756Y-83661279D01*
X70951042Y-83665729D01*
X71150001Y-83741703D01*
X71159899Y-83744579D01*
X71263250Y-83765606D01*
X71277299Y-83764410D01*
X71281000Y-83754065D01*
X71281000Y-83753517D01*
X71789000Y-83753517D01*
X71793064Y-83767359D01*
X71806478Y-83769393D01*
X71813184Y-83768534D01*
X71823262Y-83766392D01*
X72027255Y-83705191D01*
X72036842Y-83701433D01*
X72228095Y-83607739D01*
X72236945Y-83602464D01*
X72410328Y-83478792D01*
X72418200Y-83472139D01*
X72569052Y-83321812D01*
X72575730Y-83313965D01*
X72700003Y-83141020D01*
X72705313Y-83132183D01*
X72799670Y-82941267D01*
X72803469Y-82931672D01*
X72865377Y-82727910D01*
X72867555Y-82717837D01*
X72868986Y-82706962D01*
X72866775Y-82692778D01*
X72853617Y-82689000D01*
X71807115Y-82689000D01*
X71791876Y-82693475D01*
X71790671Y-82694865D01*
X71789000Y-82702548D01*
X71789000Y-83753517D01*
X71281000Y-83753517D01*
X71281000Y-82707115D01*
X71276525Y-82691876D01*
X71275135Y-82690671D01*
X71267452Y-82689000D01*
X70218225Y-82689000D01*
X70204694Y-82692973D01*
X70203257Y-82702966D01*
X55793500Y-82702966D01*
X55793500Y-80793134D01*
X70176500Y-80793134D01*
X70183255Y-80855316D01*
X70234385Y-80991705D01*
X70321739Y-81108261D01*
X70438295Y-81195615D01*
X70446704Y-81198767D01*
X70446705Y-81198768D01*
X70555960Y-81239726D01*
X70612725Y-81282367D01*
X70637425Y-81348929D01*
X70622218Y-81418278D01*
X70602825Y-81444759D01*
X70479590Y-81573717D01*
X70473104Y-81581727D01*
X70353098Y-81757649D01*
X70348000Y-81766623D01*
X70258338Y-81959783D01*
X70254775Y-81969470D01*
X70199389Y-82169183D01*
X70200912Y-82177607D01*
X70213292Y-82181000D01*
X72853344Y-82181000D01*
X72866875Y-82177027D01*
X72868180Y-82167947D01*
X72826214Y-82000875D01*
X72822894Y-81991124D01*
X72737972Y-81795814D01*
X72733105Y-81786739D01*
X72617426Y-81607926D01*
X72611136Y-81599757D01*
X72467293Y-81441677D01*
X72436241Y-81377831D01*
X72444635Y-81307333D01*
X72489812Y-81252564D01*
X72516256Y-81238895D01*
X72623297Y-81198767D01*
X72631705Y-81195615D01*
X72748261Y-81108261D01*
X72835615Y-80991705D01*
X72886745Y-80855316D01*
X72893500Y-80793134D01*
X72893500Y-78996866D01*
X72886745Y-78934684D01*
X72835615Y-78798295D01*
X72748261Y-78681739D01*
X72631705Y-78594385D01*
X72495316Y-78543255D01*
X72433134Y-78536500D01*
X70636866Y-78536500D01*
X70574684Y-78543255D01*
X70438295Y-78594385D01*
X70321739Y-78681739D01*
X70234385Y-78798295D01*
X70183255Y-78934684D01*
X70176500Y-78996866D01*
X70176500Y-80793134D01*
X55793500Y-80793134D01*
X55793500Y-72670000D01*
X78871496Y-72670000D01*
X78872186Y-72676565D01*
X78889367Y-72840030D01*
X78891458Y-72859928D01*
X78950473Y-73041556D01*
X78953776Y-73047278D01*
X78953777Y-73047279D01*
X78971380Y-73077768D01*
X79045960Y-73206944D01*
X79119137Y-73288215D01*
X79149853Y-73352221D01*
X79151500Y-73372524D01*
X79151500Y-79341233D01*
X79150973Y-79352416D01*
X79149298Y-79359909D01*
X79149547Y-79367835D01*
X79149547Y-79367836D01*
X79151438Y-79427986D01*
X79151500Y-79431945D01*
X79151500Y-79459856D01*
X79151997Y-79463790D01*
X79151997Y-79463791D01*
X79152005Y-79463856D01*
X79152938Y-79475693D01*
X79154327Y-79519889D01*
X79159978Y-79539339D01*
X79163987Y-79558700D01*
X79166526Y-79578797D01*
X79169445Y-79586168D01*
X79169445Y-79586170D01*
X79182804Y-79619912D01*
X79186649Y-79631142D01*
X79191366Y-79647378D01*
X79198982Y-79673593D01*
X79203015Y-79680412D01*
X79203017Y-79680417D01*
X79209293Y-79691028D01*
X79217988Y-79708776D01*
X79225448Y-79727617D01*
X79230110Y-79734033D01*
X79230110Y-79734034D01*
X79251436Y-79763387D01*
X79257952Y-79773307D01*
X79275513Y-79803000D01*
X79280458Y-79811362D01*
X79294779Y-79825683D01*
X79307619Y-79840716D01*
X79319528Y-79857107D01*
X79347236Y-79880029D01*
X79353605Y-79885298D01*
X79362384Y-79893288D01*
X80031343Y-80562247D01*
X80038887Y-80570537D01*
X80043000Y-80577018D01*
X80048777Y-80582443D01*
X80092667Y-80623658D01*
X80095509Y-80626413D01*
X82337878Y-82868782D01*
X82371904Y-82931094D01*
X82374092Y-82944703D01*
X82391458Y-83109928D01*
X82450473Y-83291556D01*
X82453776Y-83297278D01*
X82453777Y-83297279D01*
X82467941Y-83321812D01*
X82545960Y-83456944D01*
X82550378Y-83461851D01*
X82550379Y-83461852D01*
X82627871Y-83547916D01*
X82673747Y-83598866D01*
X82828248Y-83711118D01*
X82834276Y-83713802D01*
X82834278Y-83713803D01*
X82952396Y-83766392D01*
X83002712Y-83788794D01*
X83077680Y-83804729D01*
X83183056Y-83827128D01*
X83183061Y-83827128D01*
X83189513Y-83828500D01*
X83380487Y-83828500D01*
X83386939Y-83827128D01*
X83386944Y-83827128D01*
X83492320Y-83804729D01*
X83567288Y-83788794D01*
X83617604Y-83766392D01*
X83735722Y-83713803D01*
X83735724Y-83713802D01*
X83741752Y-83711118D01*
X83896253Y-83598866D01*
X83942129Y-83547916D01*
X84019621Y-83461852D01*
X84019622Y-83461851D01*
X84024040Y-83456944D01*
X84102059Y-83321812D01*
X84116223Y-83297279D01*
X84116224Y-83297278D01*
X84119527Y-83291556D01*
X84178542Y-83109928D01*
X84185333Y-83045321D01*
X84197814Y-82926565D01*
X84198504Y-82920000D01*
X84178542Y-82730072D01*
X84119527Y-82548444D01*
X84024040Y-82383056D01*
X83896253Y-82241134D01*
X83761105Y-82142943D01*
X83747094Y-82132763D01*
X83747093Y-82132762D01*
X83741752Y-82128882D01*
X83735724Y-82126198D01*
X83735722Y-82126197D01*
X83573319Y-82053891D01*
X83573318Y-82053891D01*
X83567288Y-82051206D01*
X83380487Y-82011500D01*
X83380986Y-82009151D01*
X83325436Y-81986301D01*
X83284802Y-81928083D01*
X83282094Y-81857138D01*
X83318171Y-81795991D01*
X83353007Y-81772891D01*
X83485722Y-81713803D01*
X83485724Y-81713802D01*
X83491752Y-81711118D01*
X83646253Y-81598866D01*
X83650668Y-81593963D01*
X83655580Y-81589540D01*
X83656705Y-81590789D01*
X83710014Y-81557949D01*
X83743200Y-81553500D01*
X85970406Y-81553500D01*
X86038527Y-81573502D01*
X86059501Y-81590405D01*
X87337878Y-82868783D01*
X87371904Y-82931095D01*
X87374093Y-82944708D01*
X87383938Y-83038375D01*
X87391458Y-83109928D01*
X87450473Y-83291556D01*
X87453776Y-83297278D01*
X87453777Y-83297279D01*
X87467941Y-83321812D01*
X87545960Y-83456944D01*
X87550378Y-83461851D01*
X87550379Y-83461852D01*
X87627871Y-83547916D01*
X87673747Y-83598866D01*
X87828248Y-83711118D01*
X87834276Y-83713802D01*
X87834278Y-83713803D01*
X87952396Y-83766392D01*
X88002712Y-83788794D01*
X88077680Y-83804729D01*
X88183056Y-83827128D01*
X88183061Y-83827128D01*
X88189513Y-83828500D01*
X88380487Y-83828500D01*
X88386939Y-83827128D01*
X88386944Y-83827128D01*
X88492320Y-83804729D01*
X88567288Y-83788794D01*
X88617604Y-83766392D01*
X88735722Y-83713803D01*
X88735724Y-83713802D01*
X88741752Y-83711118D01*
X88896253Y-83598866D01*
X88942129Y-83547916D01*
X89019621Y-83461852D01*
X89019622Y-83461851D01*
X89024040Y-83456944D01*
X89102059Y-83321812D01*
X89116223Y-83297279D01*
X89116224Y-83297278D01*
X89119527Y-83291556D01*
X89178542Y-83109928D01*
X89185333Y-83045321D01*
X89197814Y-82926565D01*
X89198504Y-82920000D01*
X89178542Y-82730072D01*
X89119527Y-82548444D01*
X89024040Y-82383056D01*
X88896253Y-82241134D01*
X88761105Y-82142943D01*
X88747094Y-82132763D01*
X88747093Y-82132762D01*
X88741752Y-82128882D01*
X88735724Y-82126198D01*
X88735722Y-82126197D01*
X88573319Y-82053891D01*
X88573318Y-82053891D01*
X88567288Y-82051206D01*
X88473887Y-82031353D01*
X88386944Y-82012872D01*
X88386939Y-82012872D01*
X88380487Y-82011500D01*
X88324594Y-82011500D01*
X88256473Y-81991498D01*
X88235503Y-81974599D01*
X87279498Y-81018593D01*
X87245474Y-80956283D01*
X87250539Y-80885467D01*
X87293086Y-80828632D01*
X87359606Y-80803821D01*
X87368595Y-80803500D01*
X92956233Y-80803500D01*
X92967416Y-80804027D01*
X92974909Y-80805702D01*
X92982835Y-80805453D01*
X92982836Y-80805453D01*
X93042986Y-80803562D01*
X93046945Y-80803500D01*
X93074856Y-80803500D01*
X93078791Y-80803003D01*
X93078856Y-80802995D01*
X93090693Y-80802062D01*
X93122951Y-80801048D01*
X93126970Y-80800922D01*
X93134889Y-80800673D01*
X93154343Y-80795021D01*
X93173700Y-80791013D01*
X93185930Y-80789468D01*
X93185931Y-80789468D01*
X93193797Y-80788474D01*
X93201168Y-80785555D01*
X93201170Y-80785555D01*
X93234912Y-80772196D01*
X93246142Y-80768351D01*
X93280983Y-80758229D01*
X93280984Y-80758229D01*
X93288593Y-80756018D01*
X93295412Y-80751985D01*
X93295417Y-80751983D01*
X93306028Y-80745707D01*
X93323776Y-80737012D01*
X93342617Y-80729552D01*
X93378387Y-80703564D01*
X93388307Y-80697048D01*
X93419535Y-80678580D01*
X93419538Y-80678578D01*
X93426362Y-80674542D01*
X93440683Y-80660221D01*
X93455717Y-80647380D01*
X93465694Y-80640131D01*
X93472107Y-80635472D01*
X93500298Y-80601395D01*
X93508288Y-80592616D01*
X94177247Y-79923657D01*
X94185537Y-79916113D01*
X94192018Y-79912000D01*
X94238659Y-79862332D01*
X94241413Y-79859491D01*
X94261134Y-79839770D01*
X94263612Y-79836575D01*
X94271318Y-79827553D01*
X94296158Y-79801101D01*
X94301586Y-79795321D01*
X94311346Y-79777568D01*
X94322199Y-79761045D01*
X94329753Y-79751306D01*
X94334613Y-79745041D01*
X94352176Y-79704457D01*
X94357383Y-79693827D01*
X94378695Y-79655060D01*
X94380666Y-79647383D01*
X94380668Y-79647378D01*
X94383732Y-79635442D01*
X94390138Y-79616730D01*
X94395033Y-79605419D01*
X94398181Y-79598145D01*
X94399421Y-79590317D01*
X94399423Y-79590310D01*
X94405099Y-79554476D01*
X94407505Y-79542856D01*
X94416528Y-79507711D01*
X94416528Y-79507710D01*
X94418500Y-79500030D01*
X94418500Y-79479776D01*
X94420051Y-79460065D01*
X94421980Y-79447886D01*
X94423220Y-79440057D01*
X94419059Y-79396038D01*
X94418500Y-79384181D01*
X94418500Y-76372524D01*
X94438502Y-76304403D01*
X94450858Y-76288221D01*
X94524040Y-76206944D01*
X94619527Y-76041556D01*
X94678542Y-75859928D01*
X94694776Y-75705475D01*
X94697814Y-75676565D01*
X94698504Y-75670000D01*
X94692190Y-75609928D01*
X94679232Y-75486635D01*
X94679232Y-75486633D01*
X94678542Y-75480072D01*
X94619527Y-75298444D01*
X94589119Y-75245775D01*
X94527341Y-75138774D01*
X94524040Y-75133056D01*
X94453512Y-75054726D01*
X94400675Y-74996045D01*
X94400674Y-74996044D01*
X94396253Y-74991134D01*
X94241752Y-74878882D01*
X94235726Y-74876199D01*
X94235719Y-74876195D01*
X94105577Y-74818253D01*
X94051481Y-74772273D01*
X94030831Y-74704346D01*
X94049868Y-74637151D01*
X94051586Y-74635321D01*
X94055403Y-74628378D01*
X94055405Y-74628375D01*
X94061346Y-74617568D01*
X94072202Y-74601041D01*
X94079757Y-74591302D01*
X94079758Y-74591300D01*
X94084614Y-74585040D01*
X94102174Y-74544460D01*
X94107391Y-74533812D01*
X94124875Y-74502009D01*
X94124876Y-74502007D01*
X94128695Y-74495060D01*
X94133733Y-74475437D01*
X94140137Y-74456734D01*
X94145033Y-74445420D01*
X94145033Y-74445419D01*
X94148181Y-74438145D01*
X94149420Y-74430322D01*
X94149423Y-74430312D01*
X94155099Y-74394476D01*
X94157505Y-74382856D01*
X94166528Y-74347711D01*
X94166528Y-74347710D01*
X94168500Y-74340030D01*
X94168500Y-74319776D01*
X94170051Y-74300065D01*
X94171980Y-74287886D01*
X94173220Y-74280057D01*
X94169059Y-74236038D01*
X94168500Y-74224181D01*
X94168500Y-73484595D01*
X94188502Y-73416474D01*
X94205405Y-73395499D01*
X94735501Y-72865404D01*
X94797813Y-72831379D01*
X94824596Y-72828500D01*
X94880487Y-72828500D01*
X94886939Y-72827128D01*
X94886944Y-72827128D01*
X94984139Y-72806468D01*
X95067288Y-72788794D01*
X95086912Y-72780057D01*
X95235722Y-72713803D01*
X95235724Y-72713802D01*
X95241752Y-72711118D01*
X95248870Y-72705947D01*
X95345869Y-72635472D01*
X95396253Y-72598866D01*
X95487569Y-72497450D01*
X95548014Y-72460210D01*
X95618997Y-72461562D01*
X95677982Y-72501075D01*
X95696310Y-72530509D01*
X95698432Y-72535276D01*
X95700473Y-72541556D01*
X95795960Y-72706944D01*
X95800378Y-72711851D01*
X95800379Y-72711852D01*
X95882452Y-72803003D01*
X95923747Y-72848866D01*
X95985150Y-72893478D01*
X96056642Y-72945420D01*
X96078248Y-72961118D01*
X96084276Y-72963802D01*
X96084278Y-72963803D01*
X96244799Y-73035271D01*
X96252712Y-73038794D01*
X96330738Y-73055379D01*
X96433056Y-73077128D01*
X96433061Y-73077128D01*
X96439513Y-73078500D01*
X96630487Y-73078500D01*
X96636939Y-73077128D01*
X96636944Y-73077128D01*
X96739262Y-73055379D01*
X96817288Y-73038794D01*
X96825201Y-73035271D01*
X96985722Y-72963803D01*
X96985724Y-72963802D01*
X96991752Y-72961118D01*
X97013359Y-72945420D01*
X97140061Y-72853365D01*
X97146253Y-72848866D01*
X97150668Y-72843963D01*
X97155580Y-72839540D01*
X97156705Y-72840789D01*
X97210014Y-72807949D01*
X97243200Y-72803500D01*
X98456233Y-72803500D01*
X98467416Y-72804027D01*
X98474909Y-72805702D01*
X98482835Y-72805453D01*
X98482836Y-72805453D01*
X98542986Y-72803562D01*
X98546945Y-72803500D01*
X98574856Y-72803500D01*
X98578791Y-72803003D01*
X98578856Y-72802995D01*
X98590693Y-72802062D01*
X98622951Y-72801048D01*
X98626970Y-72800922D01*
X98634889Y-72800673D01*
X98654343Y-72795021D01*
X98673700Y-72791013D01*
X98685930Y-72789468D01*
X98685931Y-72789468D01*
X98693797Y-72788474D01*
X98701168Y-72785555D01*
X98701170Y-72785555D01*
X98734912Y-72772196D01*
X98746142Y-72768351D01*
X98780983Y-72758229D01*
X98780984Y-72758229D01*
X98788593Y-72756018D01*
X98795412Y-72751985D01*
X98795417Y-72751983D01*
X98806028Y-72745707D01*
X98823776Y-72737012D01*
X98842617Y-72729552D01*
X98873332Y-72707237D01*
X98878387Y-72703564D01*
X98888307Y-72697048D01*
X98919535Y-72678580D01*
X98919538Y-72678578D01*
X98926362Y-72674542D01*
X98940683Y-72660221D01*
X98955717Y-72647380D01*
X98965693Y-72640132D01*
X98972107Y-72635472D01*
X99000288Y-72601407D01*
X99008278Y-72592626D01*
X99427258Y-72173647D01*
X99435537Y-72166113D01*
X99442018Y-72162000D01*
X99488644Y-72112348D01*
X99491398Y-72109507D01*
X99511135Y-72089770D01*
X99513615Y-72086573D01*
X99521320Y-72077551D01*
X99551586Y-72045321D01*
X99555405Y-72038375D01*
X99555407Y-72038372D01*
X99561348Y-72027566D01*
X99572199Y-72011047D01*
X99574378Y-72008238D01*
X99584614Y-71995041D01*
X99587759Y-71987772D01*
X99587762Y-71987768D01*
X99602174Y-71954463D01*
X99607391Y-71943813D01*
X99628695Y-71905060D01*
X99633733Y-71885437D01*
X99640137Y-71866734D01*
X99645033Y-71855420D01*
X99645033Y-71855419D01*
X99648181Y-71848145D01*
X99649420Y-71840322D01*
X99649423Y-71840312D01*
X99655099Y-71804476D01*
X99657505Y-71792856D01*
X99666528Y-71757711D01*
X99666528Y-71757710D01*
X99668500Y-71750030D01*
X99668500Y-71729776D01*
X99670051Y-71710065D01*
X99671980Y-71697886D01*
X99673220Y-71690057D01*
X99669059Y-71646038D01*
X99668500Y-71634181D01*
X99668500Y-69734594D01*
X99688502Y-69666473D01*
X99705405Y-69645499D01*
X100760499Y-68590405D01*
X100822811Y-68556379D01*
X100849594Y-68553500D01*
X115330406Y-68553500D01*
X115398527Y-68573502D01*
X115419501Y-68590405D01*
X116535848Y-69706752D01*
X116569874Y-69769064D01*
X116568459Y-69828459D01*
X116552882Y-69886591D01*
X116552881Y-69886598D01*
X116551457Y-69891913D01*
X116531502Y-70120000D01*
X116551457Y-70348087D01*
X116552881Y-70353400D01*
X116552881Y-70353402D01*
X116564669Y-70397393D01*
X116610716Y-70569243D01*
X116613039Y-70574224D01*
X116613039Y-70574225D01*
X116705151Y-70771762D01*
X116705154Y-70771767D01*
X116707477Y-70776749D01*
X116838802Y-70964300D01*
X117000700Y-71126198D01*
X117005208Y-71129355D01*
X117005211Y-71129357D01*
X117046542Y-71158297D01*
X117188251Y-71257523D01*
X117193233Y-71259846D01*
X117193238Y-71259849D01*
X117227457Y-71275805D01*
X117280742Y-71322722D01*
X117300203Y-71390999D01*
X117279661Y-71458959D01*
X117227457Y-71504195D01*
X117193238Y-71520151D01*
X117193233Y-71520154D01*
X117188251Y-71522477D01*
X117093354Y-71588925D01*
X117005211Y-71650643D01*
X117005208Y-71650645D01*
X117000700Y-71653802D01*
X116838802Y-71815700D01*
X116835645Y-71820208D01*
X116835643Y-71820211D01*
X116796441Y-71876197D01*
X116707477Y-72003251D01*
X116705154Y-72008233D01*
X116705151Y-72008238D01*
X116619916Y-72191028D01*
X116610716Y-72210757D01*
X116609294Y-72216065D01*
X116609293Y-72216067D01*
X116553439Y-72424517D01*
X116551457Y-72431913D01*
X116531502Y-72660000D01*
X116551457Y-72888087D01*
X116552881Y-72893400D01*
X116552881Y-72893402D01*
X116591120Y-73036109D01*
X116610716Y-73109243D01*
X116613039Y-73114224D01*
X116613039Y-73114225D01*
X116705151Y-73311762D01*
X116705154Y-73311767D01*
X116707477Y-73316749D01*
X116838802Y-73504300D01*
X117000700Y-73666198D01*
X117005208Y-73669355D01*
X117005211Y-73669357D01*
X117083389Y-73724098D01*
X117188251Y-73797523D01*
X117193233Y-73799846D01*
X117193238Y-73799849D01*
X117227457Y-73815805D01*
X117280742Y-73862722D01*
X117300203Y-73930999D01*
X117279661Y-73998959D01*
X117227457Y-74044195D01*
X117193238Y-74060151D01*
X117193233Y-74060154D01*
X117188251Y-74062477D01*
X117083389Y-74135902D01*
X117005211Y-74190643D01*
X117005208Y-74190645D01*
X117000700Y-74193802D01*
X116838802Y-74355700D01*
X116835645Y-74360208D01*
X116835643Y-74360211D01*
X116803261Y-74406457D01*
X116707477Y-74543251D01*
X116705154Y-74548233D01*
X116705151Y-74548238D01*
X116623836Y-74722620D01*
X116610716Y-74750757D01*
X116609294Y-74756065D01*
X116609293Y-74756067D01*
X116552883Y-74966591D01*
X116551457Y-74971913D01*
X116531502Y-75200000D01*
X116551457Y-75428087D01*
X116552881Y-75433400D01*
X116552881Y-75433402D01*
X116600182Y-75609928D01*
X116610716Y-75649243D01*
X116613039Y-75654224D01*
X116613039Y-75654225D01*
X116705151Y-75851762D01*
X116705154Y-75851767D01*
X116707477Y-75856749D01*
X116778263Y-75957842D01*
X116834540Y-76038213D01*
X116838802Y-76044300D01*
X117000700Y-76206198D01*
X117005208Y-76209355D01*
X117005211Y-76209357D01*
X117083389Y-76264098D01*
X117188251Y-76337523D01*
X117193233Y-76339846D01*
X117193238Y-76339849D01*
X117227457Y-76355805D01*
X117280742Y-76402722D01*
X117300203Y-76470999D01*
X117279661Y-76538959D01*
X117227457Y-76584195D01*
X117193238Y-76600151D01*
X117193233Y-76600154D01*
X117188251Y-76602477D01*
X117087911Y-76672736D01*
X117005211Y-76730643D01*
X117005208Y-76730645D01*
X117000700Y-76733802D01*
X116838802Y-76895700D01*
X116835645Y-76900208D01*
X116835643Y-76900211D01*
X116803460Y-76946173D01*
X116707477Y-77083251D01*
X116705154Y-77088233D01*
X116705151Y-77088238D01*
X116623719Y-77262872D01*
X116610716Y-77290757D01*
X116609294Y-77296065D01*
X116609293Y-77296067D01*
X116583554Y-77392125D01*
X116551457Y-77511913D01*
X116531502Y-77740000D01*
X116551457Y-77968087D01*
X116552880Y-77973398D01*
X116552881Y-77973402D01*
X116607557Y-78177452D01*
X116610716Y-78189243D01*
X116613039Y-78194224D01*
X116613039Y-78194225D01*
X116705151Y-78391762D01*
X116705154Y-78391767D01*
X116707477Y-78396749D01*
X116778263Y-78497842D01*
X116812880Y-78547279D01*
X116838802Y-78584300D01*
X117000700Y-78746198D01*
X117005208Y-78749355D01*
X117005211Y-78749357D01*
X117056502Y-78785271D01*
X117188251Y-78877523D01*
X117193233Y-78879846D01*
X117193238Y-78879849D01*
X117358571Y-78956944D01*
X117395757Y-78974284D01*
X117401065Y-78975706D01*
X117401067Y-78975707D01*
X117611598Y-79032119D01*
X117611600Y-79032119D01*
X117616913Y-79033543D01*
X117845000Y-79053498D01*
X118073087Y-79033543D01*
X118078400Y-79032119D01*
X118078402Y-79032119D01*
X118288933Y-78975707D01*
X118288935Y-78975706D01*
X118294243Y-78974284D01*
X118331429Y-78956944D01*
X118496762Y-78879849D01*
X118496767Y-78879846D01*
X118501749Y-78877523D01*
X118633498Y-78785271D01*
X118684789Y-78749357D01*
X118684792Y-78749355D01*
X118689300Y-78746198D01*
X118851198Y-78584300D01*
X118877121Y-78547279D01*
X118911737Y-78497842D01*
X118966242Y-78420000D01*
X119371496Y-78420000D01*
X119372186Y-78426565D01*
X119381178Y-78512115D01*
X119391458Y-78609928D01*
X119450473Y-78791556D01*
X119545960Y-78956944D01*
X119550378Y-78961851D01*
X119550379Y-78961852D01*
X119666158Y-79090438D01*
X119673747Y-79098866D01*
X119828248Y-79211118D01*
X119834276Y-79213802D01*
X119834278Y-79213803D01*
X119948142Y-79264498D01*
X120002712Y-79288794D01*
X120089714Y-79307287D01*
X120183056Y-79327128D01*
X120183061Y-79327128D01*
X120189513Y-79328500D01*
X120380487Y-79328500D01*
X120386939Y-79327128D01*
X120386944Y-79327128D01*
X120480286Y-79307287D01*
X120567288Y-79288794D01*
X120621858Y-79264498D01*
X120735722Y-79213803D01*
X120735724Y-79213802D01*
X120741752Y-79211118D01*
X120896253Y-79098866D01*
X120903842Y-79090438D01*
X121019621Y-78961852D01*
X121019622Y-78961851D01*
X121024040Y-78956944D01*
X121119527Y-78791556D01*
X121178542Y-78609928D01*
X121187474Y-78524945D01*
X121191533Y-78486329D01*
X121218546Y-78420672D01*
X121276768Y-78380043D01*
X121316843Y-78373500D01*
X122215606Y-78373500D01*
X122283727Y-78393502D01*
X122318819Y-78427229D01*
X122425643Y-78579789D01*
X122428802Y-78584300D01*
X122590700Y-78746198D01*
X122595208Y-78749355D01*
X122595211Y-78749357D01*
X122646502Y-78785271D01*
X122778251Y-78877523D01*
X122783233Y-78879846D01*
X122783238Y-78879849D01*
X122948571Y-78956944D01*
X122985757Y-78974284D01*
X122991065Y-78975706D01*
X122991067Y-78975707D01*
X123201598Y-79032119D01*
X123201600Y-79032119D01*
X123206913Y-79033543D01*
X123435000Y-79053498D01*
X123663087Y-79033543D01*
X123668400Y-79032119D01*
X123668402Y-79032119D01*
X123878933Y-78975707D01*
X123878935Y-78975706D01*
X123884243Y-78974284D01*
X123921429Y-78956944D01*
X124086762Y-78879849D01*
X124086767Y-78879846D01*
X124091749Y-78877523D01*
X124223498Y-78785271D01*
X124274789Y-78749357D01*
X124274792Y-78749355D01*
X124279300Y-78746198D01*
X124441198Y-78584300D01*
X124467121Y-78547279D01*
X124501737Y-78497842D01*
X124572523Y-78396749D01*
X124574846Y-78391767D01*
X124574849Y-78391762D01*
X124666961Y-78194225D01*
X124666961Y-78194224D01*
X124669284Y-78189243D01*
X124672444Y-78177452D01*
X124727119Y-77973402D01*
X124727120Y-77973398D01*
X124728543Y-77968087D01*
X124748498Y-77740000D01*
X124728543Y-77511913D01*
X124696446Y-77392125D01*
X124670707Y-77296067D01*
X124670706Y-77296065D01*
X124669284Y-77290757D01*
X124656281Y-77262872D01*
X124574849Y-77088238D01*
X124574846Y-77088233D01*
X124572523Y-77083251D01*
X124476540Y-76946173D01*
X124444357Y-76900211D01*
X124444355Y-76900208D01*
X124441198Y-76895700D01*
X124279300Y-76733802D01*
X124274792Y-76730645D01*
X124274789Y-76730643D01*
X124192089Y-76672736D01*
X124091749Y-76602477D01*
X124086767Y-76600154D01*
X124086762Y-76600151D01*
X124052543Y-76584195D01*
X123999258Y-76537278D01*
X123979797Y-76469001D01*
X124000339Y-76401041D01*
X124052543Y-76355805D01*
X124086762Y-76339849D01*
X124086767Y-76339846D01*
X124091749Y-76337523D01*
X124196611Y-76264098D01*
X124274789Y-76209357D01*
X124274792Y-76209355D01*
X124279300Y-76206198D01*
X124441198Y-76044300D01*
X124445461Y-76038213D01*
X124501737Y-75957842D01*
X124572523Y-75856749D01*
X124574846Y-75851767D01*
X124574849Y-75851762D01*
X124666961Y-75654225D01*
X124666961Y-75654224D01*
X124669284Y-75649243D01*
X124679819Y-75609928D01*
X124727119Y-75433402D01*
X124727119Y-75433400D01*
X124728543Y-75428087D01*
X124748498Y-75200000D01*
X124728543Y-74971913D01*
X124727117Y-74966591D01*
X124670707Y-74756067D01*
X124670706Y-74756065D01*
X124669284Y-74750757D01*
X124656164Y-74722620D01*
X124574849Y-74548238D01*
X124574846Y-74548233D01*
X124572523Y-74543251D01*
X124476739Y-74406457D01*
X124444357Y-74360211D01*
X124444355Y-74360208D01*
X124441198Y-74355700D01*
X124279300Y-74193802D01*
X124274792Y-74190645D01*
X124274789Y-74190643D01*
X124196611Y-74135902D01*
X124091749Y-74062477D01*
X124086767Y-74060154D01*
X124086762Y-74060151D01*
X124052543Y-74044195D01*
X123999258Y-73997278D01*
X123979797Y-73929001D01*
X124000339Y-73861041D01*
X124052543Y-73815805D01*
X124086762Y-73799849D01*
X124086767Y-73799846D01*
X124091749Y-73797523D01*
X124196611Y-73724098D01*
X124274789Y-73669357D01*
X124274792Y-73669355D01*
X124279300Y-73666198D01*
X124441198Y-73504300D01*
X124572523Y-73316749D01*
X124574846Y-73311767D01*
X124574849Y-73311762D01*
X124666961Y-73114225D01*
X124666961Y-73114224D01*
X124669284Y-73109243D01*
X124688881Y-73036109D01*
X124727119Y-72893402D01*
X124727119Y-72893400D01*
X124728543Y-72888087D01*
X124748498Y-72660000D01*
X124728543Y-72431913D01*
X124726561Y-72424517D01*
X124670707Y-72216067D01*
X124670706Y-72216065D01*
X124669284Y-72210757D01*
X124660084Y-72191028D01*
X124574849Y-72008238D01*
X124574846Y-72008233D01*
X124572523Y-72003251D01*
X124483559Y-71876197D01*
X124444357Y-71820211D01*
X124444355Y-71820208D01*
X124441198Y-71815700D01*
X124279300Y-71653802D01*
X124274789Y-71650643D01*
X124270576Y-71647108D01*
X124271527Y-71645974D01*
X124231529Y-71595929D01*
X124224224Y-71525310D01*
X124256258Y-71461951D01*
X124317462Y-71425970D01*
X124334517Y-71422918D01*
X124345316Y-71421745D01*
X124481705Y-71370615D01*
X124598261Y-71283261D01*
X124685615Y-71166705D01*
X124736745Y-71030316D01*
X124743500Y-70968134D01*
X124743500Y-69271866D01*
X124736745Y-69209684D01*
X124685615Y-69073295D01*
X124598261Y-68956739D01*
X124481705Y-68869385D01*
X124345316Y-68818255D01*
X124283134Y-68811500D01*
X122586866Y-68811500D01*
X122524684Y-68818255D01*
X122388295Y-68869385D01*
X122381110Y-68874770D01*
X122381108Y-68874771D01*
X122370066Y-68883047D01*
X122303560Y-68907896D01*
X122234178Y-68892844D01*
X122183947Y-68842670D01*
X122168500Y-68782222D01*
X122168500Y-68734594D01*
X122188502Y-68666473D01*
X122205405Y-68645499D01*
X123260499Y-67590405D01*
X123322811Y-67556379D01*
X123349594Y-67553500D01*
X133970406Y-67553500D01*
X134038527Y-67573502D01*
X134059501Y-67590405D01*
X135364595Y-68895500D01*
X135398621Y-68957812D01*
X135401500Y-68984595D01*
X135401500Y-72445406D01*
X135381498Y-72513527D01*
X135364595Y-72534501D01*
X135121589Y-72777507D01*
X135059277Y-72811533D01*
X134988462Y-72806468D01*
X134931626Y-72763921D01*
X134906815Y-72697401D01*
X134906974Y-72677430D01*
X134908019Y-72665486D01*
X134908019Y-72665475D01*
X134908498Y-72660000D01*
X134888543Y-72431913D01*
X134886561Y-72424517D01*
X134830707Y-72216067D01*
X134830706Y-72216065D01*
X134829284Y-72210757D01*
X134820084Y-72191028D01*
X134734849Y-72008238D01*
X134734846Y-72008233D01*
X134732523Y-72003251D01*
X134643559Y-71876197D01*
X134604357Y-71820211D01*
X134604355Y-71820208D01*
X134601198Y-71815700D01*
X134439300Y-71653802D01*
X134434792Y-71650645D01*
X134434789Y-71650643D01*
X134346646Y-71588925D01*
X134251749Y-71522477D01*
X134246767Y-71520154D01*
X134246762Y-71520151D01*
X134212543Y-71504195D01*
X134159258Y-71457278D01*
X134139797Y-71389001D01*
X134160339Y-71321041D01*
X134212543Y-71275805D01*
X134246762Y-71259849D01*
X134246767Y-71259846D01*
X134251749Y-71257523D01*
X134393458Y-71158297D01*
X134434789Y-71129357D01*
X134434792Y-71129355D01*
X134439300Y-71126198D01*
X134601198Y-70964300D01*
X134732523Y-70776749D01*
X134734846Y-70771767D01*
X134734849Y-70771762D01*
X134826961Y-70574225D01*
X134826961Y-70574224D01*
X134829284Y-70569243D01*
X134875332Y-70397393D01*
X134887119Y-70353402D01*
X134887119Y-70353400D01*
X134888543Y-70348087D01*
X134908498Y-70120000D01*
X134888543Y-69891913D01*
X134887117Y-69886591D01*
X134830707Y-69676067D01*
X134830706Y-69676065D01*
X134829284Y-69670757D01*
X134780486Y-69566109D01*
X134734849Y-69468238D01*
X134734846Y-69468233D01*
X134732523Y-69463251D01*
X134651752Y-69347899D01*
X134604357Y-69280211D01*
X134604355Y-69280208D01*
X134601198Y-69275700D01*
X134439300Y-69113802D01*
X134434792Y-69110645D01*
X134434789Y-69110643D01*
X134294553Y-69012449D01*
X134251749Y-68982477D01*
X134246767Y-68980154D01*
X134246762Y-68980151D01*
X134049225Y-68888039D01*
X134049224Y-68888039D01*
X134044243Y-68885716D01*
X134038935Y-68884294D01*
X134038933Y-68884293D01*
X133828402Y-68827881D01*
X133828400Y-68827881D01*
X133823087Y-68826457D01*
X133595000Y-68806502D01*
X133366913Y-68826457D01*
X133361600Y-68827881D01*
X133361598Y-68827881D01*
X133151067Y-68884293D01*
X133151065Y-68884294D01*
X133145757Y-68885716D01*
X133140776Y-68888039D01*
X133140775Y-68888039D01*
X132943238Y-68980151D01*
X132943233Y-68980154D01*
X132938251Y-68982477D01*
X132895447Y-69012449D01*
X132755211Y-69110643D01*
X132755208Y-69110645D01*
X132750700Y-69113802D01*
X132588802Y-69275700D01*
X132585645Y-69280208D01*
X132585643Y-69280211D01*
X132538248Y-69347899D01*
X132457477Y-69463251D01*
X132455154Y-69468233D01*
X132455151Y-69468238D01*
X132409514Y-69566109D01*
X132360716Y-69670757D01*
X132359294Y-69676065D01*
X132359293Y-69676067D01*
X132302883Y-69886591D01*
X132301457Y-69891913D01*
X132281502Y-70120000D01*
X132301457Y-70348087D01*
X132302881Y-70353400D01*
X132302881Y-70353402D01*
X132314669Y-70397393D01*
X132360716Y-70569243D01*
X132363039Y-70574224D01*
X132363039Y-70574225D01*
X132455151Y-70771762D01*
X132455154Y-70771767D01*
X132457477Y-70776749D01*
X132588802Y-70964300D01*
X132750700Y-71126198D01*
X132755208Y-71129355D01*
X132755211Y-71129357D01*
X132796542Y-71158297D01*
X132938251Y-71257523D01*
X132943233Y-71259846D01*
X132943238Y-71259849D01*
X132977457Y-71275805D01*
X133030742Y-71322722D01*
X133050203Y-71390999D01*
X133029661Y-71458959D01*
X132977457Y-71504195D01*
X132943238Y-71520151D01*
X132943233Y-71520154D01*
X132938251Y-71522477D01*
X132843354Y-71588925D01*
X132755211Y-71650643D01*
X132755208Y-71650645D01*
X132750700Y-71653802D01*
X132588802Y-71815700D01*
X132585645Y-71820208D01*
X132585643Y-71820211D01*
X132546441Y-71876197D01*
X132457477Y-72003251D01*
X132455154Y-72008233D01*
X132455151Y-72008238D01*
X132369916Y-72191028D01*
X132360716Y-72210757D01*
X132359294Y-72216065D01*
X132359293Y-72216067D01*
X132303439Y-72424517D01*
X132301457Y-72431913D01*
X132281502Y-72660000D01*
X132301457Y-72888087D01*
X132302881Y-72893400D01*
X132302881Y-72893402D01*
X132341120Y-73036109D01*
X132360716Y-73109243D01*
X132363039Y-73114224D01*
X132363039Y-73114225D01*
X132455151Y-73311762D01*
X132455154Y-73311767D01*
X132457477Y-73316749D01*
X132588802Y-73504300D01*
X132750700Y-73666198D01*
X132755208Y-73669355D01*
X132755211Y-73669357D01*
X132833389Y-73724098D01*
X132938251Y-73797523D01*
X132943233Y-73799846D01*
X132943238Y-73799849D01*
X132977457Y-73815805D01*
X133030742Y-73862722D01*
X133050203Y-73930999D01*
X133029661Y-73998959D01*
X132977457Y-74044195D01*
X132943238Y-74060151D01*
X132943233Y-74060154D01*
X132938251Y-74062477D01*
X132833389Y-74135902D01*
X132755211Y-74190643D01*
X132755208Y-74190645D01*
X132750700Y-74193802D01*
X132588802Y-74355700D01*
X132585645Y-74360208D01*
X132585643Y-74360211D01*
X132553261Y-74406457D01*
X132457477Y-74543251D01*
X132455154Y-74548233D01*
X132455151Y-74548238D01*
X132373836Y-74722620D01*
X132360716Y-74750757D01*
X132359294Y-74756065D01*
X132359293Y-74756067D01*
X132302883Y-74966591D01*
X132301457Y-74971913D01*
X132281502Y-75200000D01*
X132301457Y-75428087D01*
X132302881Y-75433400D01*
X132302881Y-75433402D01*
X132350182Y-75609928D01*
X132360716Y-75649243D01*
X132363039Y-75654224D01*
X132363039Y-75654225D01*
X132455151Y-75851762D01*
X132455154Y-75851767D01*
X132457477Y-75856749D01*
X132528263Y-75957842D01*
X132584540Y-76038213D01*
X132588802Y-76044300D01*
X132750700Y-76206198D01*
X132755208Y-76209355D01*
X132755211Y-76209357D01*
X132833389Y-76264098D01*
X132938251Y-76337523D01*
X132943233Y-76339846D01*
X132943238Y-76339849D01*
X132977457Y-76355805D01*
X133030742Y-76402722D01*
X133050203Y-76470999D01*
X133029661Y-76538959D01*
X132977457Y-76584195D01*
X132943238Y-76600151D01*
X132943233Y-76600154D01*
X132938251Y-76602477D01*
X132837911Y-76672736D01*
X132755211Y-76730643D01*
X132755208Y-76730645D01*
X132750700Y-76733802D01*
X132588802Y-76895700D01*
X132585645Y-76900208D01*
X132585643Y-76900211D01*
X132553460Y-76946173D01*
X132457477Y-77083251D01*
X132455154Y-77088233D01*
X132455151Y-77088238D01*
X132373719Y-77262872D01*
X132360716Y-77290757D01*
X132359294Y-77296065D01*
X132359293Y-77296067D01*
X132333554Y-77392125D01*
X132301457Y-77511913D01*
X132281502Y-77740000D01*
X132301457Y-77968087D01*
X132302880Y-77973398D01*
X132302881Y-77973402D01*
X132357557Y-78177452D01*
X132360716Y-78189243D01*
X132363039Y-78194224D01*
X132363039Y-78194225D01*
X132455151Y-78391762D01*
X132455154Y-78391767D01*
X132457477Y-78396749D01*
X132528263Y-78497842D01*
X132562880Y-78547279D01*
X132588802Y-78584300D01*
X132750700Y-78746198D01*
X132755208Y-78749355D01*
X132755211Y-78749357D01*
X132806502Y-78785271D01*
X132938251Y-78877523D01*
X132943233Y-78879846D01*
X132943238Y-78879849D01*
X133108571Y-78956944D01*
X133145757Y-78974284D01*
X133151065Y-78975706D01*
X133151067Y-78975707D01*
X133361598Y-79032119D01*
X133361600Y-79032119D01*
X133366913Y-79033543D01*
X133595000Y-79053498D01*
X133823087Y-79033543D01*
X133828400Y-79032119D01*
X133828402Y-79032119D01*
X134038933Y-78975707D01*
X134038935Y-78975706D01*
X134044243Y-78974284D01*
X134081429Y-78956944D01*
X134246762Y-78879849D01*
X134246767Y-78879846D01*
X134251749Y-78877523D01*
X134383498Y-78785271D01*
X134434789Y-78749357D01*
X134434792Y-78749355D01*
X134439300Y-78746198D01*
X134601198Y-78584300D01*
X134627121Y-78547279D01*
X134661737Y-78497842D01*
X134732523Y-78396749D01*
X134734846Y-78391767D01*
X134734849Y-78391762D01*
X134826961Y-78194225D01*
X134826961Y-78194224D01*
X134829284Y-78189243D01*
X134832444Y-78177452D01*
X134887119Y-77973402D01*
X134887120Y-77973398D01*
X134888543Y-77968087D01*
X134908498Y-77740000D01*
X134908019Y-77734525D01*
X134908019Y-77734514D01*
X134906974Y-77722570D01*
X134920962Y-77652965D01*
X134970361Y-77601973D01*
X135039487Y-77585782D01*
X135106393Y-77609534D01*
X135121589Y-77622493D01*
X137614595Y-80115499D01*
X137648621Y-80177811D01*
X137651500Y-80204594D01*
X137651500Y-82841233D01*
X137650973Y-82852416D01*
X137649298Y-82859909D01*
X137649547Y-82867835D01*
X137649547Y-82867836D01*
X137651438Y-82927986D01*
X137651500Y-82931945D01*
X137651500Y-82959856D01*
X137651997Y-82963790D01*
X137651997Y-82963791D01*
X137652005Y-82963856D01*
X137652938Y-82975693D01*
X137654327Y-83019889D01*
X137656587Y-83027667D01*
X137659978Y-83039339D01*
X137663987Y-83058700D01*
X137666526Y-83078797D01*
X137669445Y-83086168D01*
X137669445Y-83086170D01*
X137682804Y-83119912D01*
X137686649Y-83131142D01*
X137689313Y-83140312D01*
X137698982Y-83173593D01*
X137703015Y-83180412D01*
X137703017Y-83180417D01*
X137709293Y-83191028D01*
X137717988Y-83208776D01*
X137725448Y-83227617D01*
X137730110Y-83234033D01*
X137730110Y-83234034D01*
X137751436Y-83263387D01*
X137757952Y-83273307D01*
X137776040Y-83303891D01*
X137780458Y-83311362D01*
X137794779Y-83325683D01*
X137807619Y-83340716D01*
X137819528Y-83357107D01*
X137850541Y-83382763D01*
X137853605Y-83385298D01*
X137862384Y-83393288D01*
X141614595Y-87145499D01*
X141648621Y-87207811D01*
X141651500Y-87234594D01*
X141651500Y-95091233D01*
X141650973Y-95102416D01*
X141649298Y-95109909D01*
X141649547Y-95117835D01*
X141649547Y-95117836D01*
X141651438Y-95177986D01*
X141651500Y-95181945D01*
X141651500Y-95209856D01*
X141651997Y-95213790D01*
X141651997Y-95213791D01*
X141652005Y-95213856D01*
X141652938Y-95225693D01*
X141654327Y-95269889D01*
X141659153Y-95286500D01*
X141659978Y-95289339D01*
X141663987Y-95308700D01*
X141666526Y-95328797D01*
X141669445Y-95336168D01*
X141669445Y-95336170D01*
X141682804Y-95369912D01*
X141686649Y-95381142D01*
X141698982Y-95423593D01*
X141703015Y-95430412D01*
X141703017Y-95430417D01*
X141709293Y-95441028D01*
X141717988Y-95458776D01*
X141725448Y-95477617D01*
X141730110Y-95484033D01*
X141730110Y-95484034D01*
X141751436Y-95513387D01*
X141757952Y-95523307D01*
X141774390Y-95551101D01*
X141780458Y-95561362D01*
X141794779Y-95575683D01*
X141807619Y-95590716D01*
X141819528Y-95607107D01*
X141853605Y-95635298D01*
X141862384Y-95643288D01*
X143031348Y-96812253D01*
X143038888Y-96820539D01*
X143043000Y-96827018D01*
X143048777Y-96832443D01*
X143092651Y-96873643D01*
X143095493Y-96876398D01*
X143115230Y-96896135D01*
X143118427Y-96898615D01*
X143127447Y-96906318D01*
X143159679Y-96936586D01*
X143166625Y-96940405D01*
X143166628Y-96940407D01*
X143177434Y-96946348D01*
X143193953Y-96957199D01*
X143209959Y-96969614D01*
X143217228Y-96972759D01*
X143217232Y-96972762D01*
X143250537Y-96987174D01*
X143261187Y-96992391D01*
X143299940Y-97013695D01*
X143307615Y-97015666D01*
X143307616Y-97015666D01*
X143319562Y-97018733D01*
X143338266Y-97025137D01*
X143344053Y-97027641D01*
X143356855Y-97033181D01*
X143364678Y-97034420D01*
X143364688Y-97034423D01*
X143400524Y-97040099D01*
X143412144Y-97042505D01*
X143443959Y-97050673D01*
X143454970Y-97053500D01*
X143475224Y-97053500D01*
X143494934Y-97055051D01*
X143514943Y-97058220D01*
X143522835Y-97057474D01*
X143541580Y-97055702D01*
X143558962Y-97054059D01*
X143570819Y-97053500D01*
X149456233Y-97053500D01*
X149467416Y-97054027D01*
X149474909Y-97055702D01*
X149482835Y-97055453D01*
X149482836Y-97055453D01*
X149542986Y-97053562D01*
X149546945Y-97053500D01*
X149574856Y-97053500D01*
X149578791Y-97053003D01*
X149578856Y-97052995D01*
X149590693Y-97052062D01*
X149622951Y-97051048D01*
X149626970Y-97050922D01*
X149634889Y-97050673D01*
X149654343Y-97045021D01*
X149673700Y-97041013D01*
X149685930Y-97039468D01*
X149685931Y-97039468D01*
X149693797Y-97038474D01*
X149701168Y-97035555D01*
X149701170Y-97035555D01*
X149734912Y-97022196D01*
X149746142Y-97018351D01*
X149780983Y-97008229D01*
X149780984Y-97008229D01*
X149788593Y-97006018D01*
X149795412Y-97001985D01*
X149795417Y-97001983D01*
X149806028Y-96995707D01*
X149823776Y-96987012D01*
X149842617Y-96979552D01*
X149878387Y-96953564D01*
X149888307Y-96947048D01*
X149919535Y-96928580D01*
X149919538Y-96928578D01*
X149926362Y-96924542D01*
X149940683Y-96910221D01*
X149955717Y-96897380D01*
X149965693Y-96890132D01*
X149972107Y-96885472D01*
X149978710Y-96877491D01*
X149981443Y-96874187D01*
X150040275Y-96834447D01*
X150078529Y-96828500D01*
X150130487Y-96828500D01*
X150136939Y-96827128D01*
X150136944Y-96827128D01*
X150223888Y-96808647D01*
X150317288Y-96788794D01*
X150345038Y-96776439D01*
X150485722Y-96713803D01*
X150485724Y-96713802D01*
X150491752Y-96711118D01*
X150646253Y-96598866D01*
X150687548Y-96553003D01*
X150769621Y-96461852D01*
X150769622Y-96461851D01*
X150774040Y-96456944D01*
X150869527Y-96291556D01*
X150928542Y-96109928D01*
X150931690Y-96079982D01*
X150947814Y-95926565D01*
X150948504Y-95920000D01*
X150934473Y-95786500D01*
X150929232Y-95736635D01*
X150929232Y-95736633D01*
X150928542Y-95730072D01*
X150869527Y-95548444D01*
X150860619Y-95533014D01*
X150777341Y-95388774D01*
X150774040Y-95383056D01*
X150767537Y-95375833D01*
X150650675Y-95246045D01*
X150650674Y-95246044D01*
X150646253Y-95241134D01*
X150542185Y-95165524D01*
X150497094Y-95132763D01*
X150497093Y-95132762D01*
X150491752Y-95128882D01*
X150485724Y-95126198D01*
X150485722Y-95126197D01*
X150445581Y-95108325D01*
X161322466Y-95108325D01*
X161322641Y-95112777D01*
X161333068Y-95378148D01*
X161333355Y-95385464D01*
X161345958Y-95454473D01*
X161378983Y-95635298D01*
X161383184Y-95658303D01*
X161396907Y-95699437D01*
X161447623Y-95851449D01*
X161470960Y-95921400D01*
X161472952Y-95925387D01*
X161472953Y-95925389D01*
X161590679Y-96160996D01*
X161594930Y-96169504D01*
X161752623Y-96397666D01*
X161781200Y-96428580D01*
X161937874Y-96598070D01*
X161937879Y-96598075D01*
X161940890Y-96601332D01*
X162155975Y-96776439D01*
X162159793Y-96778738D01*
X162159795Y-96778739D01*
X162364954Y-96902255D01*
X162393588Y-96919494D01*
X162397683Y-96921228D01*
X162397685Y-96921229D01*
X162644886Y-97025905D01*
X162644893Y-97025907D01*
X162648987Y-97027641D01*
X162727513Y-97048462D01*
X162912779Y-97097585D01*
X162912784Y-97097586D01*
X162917076Y-97098724D01*
X162921485Y-97099246D01*
X162921491Y-97099247D01*
X163101663Y-97120571D01*
X163192506Y-97131323D01*
X163469782Y-97124789D01*
X163556018Y-97110435D01*
X163738981Y-97079982D01*
X163738985Y-97079981D01*
X163743371Y-97079251D01*
X163747612Y-97077910D01*
X163747615Y-97077909D01*
X164003568Y-96996962D01*
X164003570Y-96996961D01*
X164007814Y-96995619D01*
X164011825Y-96993693D01*
X164011830Y-96993691D01*
X164253816Y-96877491D01*
X164253817Y-96877490D01*
X164257835Y-96875561D01*
X164410393Y-96773625D01*
X164484737Y-96723950D01*
X164484741Y-96723947D01*
X164488445Y-96721472D01*
X164675912Y-96553562D01*
X164691725Y-96539399D01*
X164691726Y-96539398D01*
X164695043Y-96536427D01*
X164873507Y-96324118D01*
X165014076Y-96098724D01*
X165017918Y-96092563D01*
X165017918Y-96092562D01*
X165020276Y-96088782D01*
X165132422Y-95835113D01*
X165149764Y-95773625D01*
X165177957Y-95673657D01*
X165207707Y-95568173D01*
X165223638Y-95449563D01*
X165244201Y-95296471D01*
X165244202Y-95296463D01*
X165244628Y-95293289D01*
X165245124Y-95277497D01*
X165248402Y-95173222D01*
X165248402Y-95173217D01*
X165248503Y-95170000D01*
X165228914Y-94893340D01*
X165170540Y-94622200D01*
X165074543Y-94361990D01*
X165046659Y-94310311D01*
X164944953Y-94121818D01*
X164942840Y-94117902D01*
X164778059Y-93894807D01*
X164774940Y-93891638D01*
X164774936Y-93891634D01*
X164659499Y-93774370D01*
X164583488Y-93697155D01*
X164557379Y-93677229D01*
X164366553Y-93531595D01*
X164366549Y-93531592D01*
X164363008Y-93528890D01*
X164121019Y-93393369D01*
X164116870Y-93391764D01*
X164116866Y-93391762D01*
X163885680Y-93302324D01*
X163862349Y-93293298D01*
X163858024Y-93292295D01*
X163858019Y-93292294D01*
X163749729Y-93267194D01*
X163592160Y-93230671D01*
X163315841Y-93206739D01*
X163311406Y-93206983D01*
X163311402Y-93206983D01*
X163043351Y-93221735D01*
X163043344Y-93221736D01*
X163038908Y-93221980D01*
X162903917Y-93248831D01*
X162771256Y-93275219D01*
X162771251Y-93275220D01*
X162766884Y-93276089D01*
X162762681Y-93277565D01*
X162509407Y-93366508D01*
X162509404Y-93366509D01*
X162505199Y-93367986D01*
X162501246Y-93370039D01*
X162501240Y-93370042D01*
X162378245Y-93433933D01*
X162259073Y-93495838D01*
X162255458Y-93498421D01*
X162255452Y-93498425D01*
X162158694Y-93567570D01*
X162033416Y-93657095D01*
X161832732Y-93848538D01*
X161661025Y-94066348D01*
X161658793Y-94070190D01*
X161658790Y-94070195D01*
X161523958Y-94302324D01*
X161523955Y-94302330D01*
X161521720Y-94306178D01*
X161520046Y-94310311D01*
X161419271Y-94559112D01*
X161419268Y-94559120D01*
X161417598Y-94563244D01*
X161350735Y-94832417D01*
X161322466Y-95108325D01*
X150445581Y-95108325D01*
X150323319Y-95053891D01*
X150323318Y-95053891D01*
X150317288Y-95051206D01*
X150223888Y-95031353D01*
X150136944Y-95012872D01*
X150136939Y-95012872D01*
X150130487Y-95011500D01*
X149939513Y-95011500D01*
X149933061Y-95012872D01*
X149933056Y-95012872D01*
X149846112Y-95031353D01*
X149752712Y-95051206D01*
X149746682Y-95053891D01*
X149746681Y-95053891D01*
X149584278Y-95126197D01*
X149584276Y-95126198D01*
X149578248Y-95128882D01*
X149572907Y-95132762D01*
X149572906Y-95132763D01*
X149527815Y-95165524D01*
X149423747Y-95241134D01*
X149419326Y-95246044D01*
X149419325Y-95246045D01*
X149302464Y-95375833D01*
X149295960Y-95383056D01*
X149292659Y-95388774D01*
X149209382Y-95533014D01*
X149200473Y-95548444D01*
X149151412Y-95699437D01*
X149111338Y-95758042D01*
X149045941Y-95785679D01*
X149031579Y-95786500D01*
X143849595Y-95786500D01*
X143781474Y-95766498D01*
X143760499Y-95749595D01*
X142955404Y-94944499D01*
X142921379Y-94882187D01*
X142918500Y-94855404D01*
X142918500Y-90448621D01*
X145040933Y-90448621D01*
X145050227Y-90460635D01*
X145084146Y-90484385D01*
X145093641Y-90489868D01*
X145278413Y-90576028D01*
X145288705Y-90579774D01*
X145485632Y-90632540D01*
X145496425Y-90634443D01*
X145699525Y-90652212D01*
X145710475Y-90652212D01*
X145913575Y-90634443D01*
X145924368Y-90632540D01*
X146121295Y-90579774D01*
X146131587Y-90576028D01*
X146316359Y-90489868D01*
X146325854Y-90484385D01*
X146360607Y-90460051D01*
X146368983Y-90449572D01*
X146361916Y-90436127D01*
X145717811Y-89792021D01*
X145703868Y-89784408D01*
X145702034Y-89784539D01*
X145695420Y-89788790D01*
X145047360Y-90436851D01*
X145040933Y-90448621D01*
X142918500Y-90448621D01*
X142918500Y-89425475D01*
X144472788Y-89425475D01*
X144490557Y-89628575D01*
X144492460Y-89639368D01*
X144545226Y-89836295D01*
X144548972Y-89846587D01*
X144635135Y-90031364D01*
X144640613Y-90040850D01*
X144664949Y-90075607D01*
X144675428Y-90083983D01*
X144688872Y-90076917D01*
X145332979Y-89432811D01*
X145339356Y-89421132D01*
X146069408Y-89421132D01*
X146069539Y-89422966D01*
X146073790Y-89429580D01*
X146721851Y-90077640D01*
X146733621Y-90084067D01*
X146745635Y-90074772D01*
X146769387Y-90040850D01*
X146774865Y-90031364D01*
X146861028Y-89846587D01*
X146864774Y-89836295D01*
X146917540Y-89639368D01*
X146919443Y-89628575D01*
X146937212Y-89425475D01*
X146937212Y-89420000D01*
X149551807Y-89420000D01*
X149570542Y-89634142D01*
X149571966Y-89639455D01*
X149571966Y-89639457D01*
X149585930Y-89691569D01*
X149626178Y-89841777D01*
X149628500Y-89846757D01*
X149628501Y-89846759D01*
X149697989Y-89995775D01*
X149717024Y-90036596D01*
X149840319Y-90212681D01*
X149992319Y-90364681D01*
X150168403Y-90487976D01*
X150173381Y-90490297D01*
X150173384Y-90490299D01*
X150357231Y-90576028D01*
X150363223Y-90578822D01*
X150368531Y-90580244D01*
X150368533Y-90580245D01*
X150565543Y-90633034D01*
X150565545Y-90633034D01*
X150570858Y-90634458D01*
X150785000Y-90653193D01*
X150999142Y-90634458D01*
X151004455Y-90633034D01*
X151004457Y-90633034D01*
X151201467Y-90580245D01*
X151201469Y-90580244D01*
X151206777Y-90578822D01*
X151212769Y-90576028D01*
X151396616Y-90490299D01*
X151396619Y-90490297D01*
X151401597Y-90487976D01*
X151577681Y-90364681D01*
X151729681Y-90212681D01*
X151852976Y-90036596D01*
X151872012Y-89995775D01*
X151941499Y-89846759D01*
X151941500Y-89846757D01*
X151943822Y-89841777D01*
X151984071Y-89691569D01*
X151998034Y-89639457D01*
X151998034Y-89639455D01*
X151999458Y-89634142D01*
X152018193Y-89420000D01*
X151999458Y-89205858D01*
X151997769Y-89199553D01*
X151945245Y-89003533D01*
X151945244Y-89003531D01*
X151943822Y-88998223D01*
X151941499Y-88993241D01*
X151855299Y-88808385D01*
X151855297Y-88808382D01*
X151852976Y-88803404D01*
X151729681Y-88627319D01*
X151577681Y-88475319D01*
X151401597Y-88352024D01*
X151396619Y-88349703D01*
X151396616Y-88349701D01*
X151211759Y-88263501D01*
X151211758Y-88263500D01*
X151206777Y-88261178D01*
X151201469Y-88259756D01*
X151201467Y-88259755D01*
X151004457Y-88206966D01*
X151004455Y-88206966D01*
X150999142Y-88205542D01*
X150785000Y-88186807D01*
X150570858Y-88205542D01*
X150565545Y-88206966D01*
X150565543Y-88206966D01*
X150368533Y-88259755D01*
X150368531Y-88259756D01*
X150363223Y-88261178D01*
X150358243Y-88263500D01*
X150358241Y-88263501D01*
X150173385Y-88349701D01*
X150173382Y-88349703D01*
X150168404Y-88352024D01*
X149992319Y-88475319D01*
X149840319Y-88627319D01*
X149717024Y-88803404D01*
X149714703Y-88808382D01*
X149714701Y-88808385D01*
X149628501Y-88993241D01*
X149626178Y-88998223D01*
X149624756Y-89003531D01*
X149624755Y-89003533D01*
X149572231Y-89199553D01*
X149570542Y-89205858D01*
X149551807Y-89420000D01*
X146937212Y-89420000D01*
X146937212Y-89414525D01*
X146919443Y-89211425D01*
X146917540Y-89200632D01*
X146864774Y-89003705D01*
X146861028Y-88993413D01*
X146774865Y-88808636D01*
X146769387Y-88799150D01*
X146745051Y-88764393D01*
X146734572Y-88756017D01*
X146721128Y-88763083D01*
X146077021Y-89407189D01*
X146069408Y-89421132D01*
X145339356Y-89421132D01*
X145340592Y-89418868D01*
X145340461Y-89417034D01*
X145336210Y-89410420D01*
X144688149Y-88762360D01*
X144676379Y-88755933D01*
X144664365Y-88765228D01*
X144640613Y-88799150D01*
X144635135Y-88808636D01*
X144548972Y-88993413D01*
X144545226Y-89003705D01*
X144492460Y-89200632D01*
X144490557Y-89211425D01*
X144472788Y-89414525D01*
X144472788Y-89425475D01*
X142918500Y-89425475D01*
X142918500Y-88390428D01*
X145041017Y-88390428D01*
X145048083Y-88403872D01*
X145692189Y-89047979D01*
X145706132Y-89055592D01*
X145707966Y-89055461D01*
X145714580Y-89051210D01*
X146362640Y-88403149D01*
X146369067Y-88391379D01*
X146359773Y-88379365D01*
X146325854Y-88355615D01*
X146316359Y-88350132D01*
X146131587Y-88263972D01*
X146121295Y-88260226D01*
X145924368Y-88207460D01*
X145913575Y-88205557D01*
X145710475Y-88187788D01*
X145699525Y-88187788D01*
X145496425Y-88205557D01*
X145485632Y-88207460D01*
X145288705Y-88260226D01*
X145278413Y-88263972D01*
X145093636Y-88350135D01*
X145084150Y-88355613D01*
X145049393Y-88379949D01*
X145041017Y-88390428D01*
X142918500Y-88390428D01*
X142918500Y-86998767D01*
X142919027Y-86987584D01*
X142920702Y-86980091D01*
X142918562Y-86912014D01*
X142918500Y-86908055D01*
X142918500Y-86880144D01*
X142918482Y-86880000D01*
X147011807Y-86880000D01*
X147030542Y-87094142D01*
X147031966Y-87099455D01*
X147031966Y-87099457D01*
X147082751Y-87288986D01*
X147086178Y-87301777D01*
X147088500Y-87306757D01*
X147088501Y-87306759D01*
X147157989Y-87455775D01*
X147177024Y-87496596D01*
X147300319Y-87672681D01*
X147452319Y-87824681D01*
X147628403Y-87947976D01*
X147633381Y-87950297D01*
X147633384Y-87950299D01*
X147731487Y-87996045D01*
X147823223Y-88038822D01*
X147828531Y-88040244D01*
X147828533Y-88040245D01*
X148025543Y-88093034D01*
X148025545Y-88093034D01*
X148030858Y-88094458D01*
X148245000Y-88113193D01*
X148459142Y-88094458D01*
X148464455Y-88093034D01*
X148464457Y-88093034D01*
X148661467Y-88040245D01*
X148661469Y-88040244D01*
X148666777Y-88038822D01*
X148758513Y-87996045D01*
X148856616Y-87950299D01*
X148856619Y-87950297D01*
X148861597Y-87947976D01*
X149037681Y-87824681D01*
X149189681Y-87672681D01*
X149312976Y-87496596D01*
X149332012Y-87455775D01*
X149401499Y-87306759D01*
X149401500Y-87306757D01*
X149403822Y-87301777D01*
X149407250Y-87288986D01*
X149458034Y-87099457D01*
X149458034Y-87099455D01*
X149459458Y-87094142D01*
X149478193Y-86880000D01*
X149459458Y-86665858D01*
X149445129Y-86612383D01*
X149405245Y-86463533D01*
X149405244Y-86463531D01*
X149403822Y-86458223D01*
X149363756Y-86372301D01*
X149315299Y-86268385D01*
X149315297Y-86268382D01*
X149312976Y-86263404D01*
X149189681Y-86087319D01*
X149037681Y-85935319D01*
X148861597Y-85812024D01*
X148856619Y-85809703D01*
X148856616Y-85809701D01*
X148671759Y-85723501D01*
X148671758Y-85723500D01*
X148666777Y-85721178D01*
X148661469Y-85719756D01*
X148661467Y-85719755D01*
X148464457Y-85666966D01*
X148464455Y-85666966D01*
X148459142Y-85665542D01*
X148245000Y-85646807D01*
X148030858Y-85665542D01*
X148025545Y-85666966D01*
X148025543Y-85666966D01*
X147828533Y-85719755D01*
X147828531Y-85719756D01*
X147823223Y-85721178D01*
X147818243Y-85723500D01*
X147818241Y-85723501D01*
X147633385Y-85809701D01*
X147633382Y-85809703D01*
X147628404Y-85812024D01*
X147452319Y-85935319D01*
X147300319Y-86087319D01*
X147177024Y-86263404D01*
X147174703Y-86268382D01*
X147174701Y-86268385D01*
X147126244Y-86372301D01*
X147086178Y-86458223D01*
X147084756Y-86463531D01*
X147084755Y-86463533D01*
X147044871Y-86612383D01*
X147030542Y-86665858D01*
X147011807Y-86880000D01*
X142918482Y-86880000D01*
X142917995Y-86876144D01*
X142917062Y-86864301D01*
X142915922Y-86828029D01*
X142915673Y-86820110D01*
X142910022Y-86800658D01*
X142906014Y-86781306D01*
X142904898Y-86772477D01*
X142903474Y-86761203D01*
X142900556Y-86753832D01*
X142887200Y-86720097D01*
X142883355Y-86708870D01*
X142873796Y-86675970D01*
X142871018Y-86666407D01*
X142866984Y-86659585D01*
X142866981Y-86659579D01*
X142860706Y-86648968D01*
X142852010Y-86631218D01*
X142847472Y-86619756D01*
X142847469Y-86619751D01*
X142844552Y-86612383D01*
X142818573Y-86576625D01*
X142812057Y-86566707D01*
X142793575Y-86535457D01*
X142789542Y-86528637D01*
X142775218Y-86514313D01*
X142762376Y-86499278D01*
X142750472Y-86482893D01*
X142716406Y-86454711D01*
X142707627Y-86446722D01*
X138955405Y-82694500D01*
X138921379Y-82632188D01*
X138918500Y-82605405D01*
X138918500Y-79968768D01*
X138919027Y-79957585D01*
X138920702Y-79950092D01*
X138918562Y-79882001D01*
X138918500Y-79878044D01*
X138918500Y-79850144D01*
X138917996Y-79846153D01*
X138917063Y-79834311D01*
X138917013Y-79832697D01*
X138915674Y-79790111D01*
X138910021Y-79770652D01*
X138906012Y-79751293D01*
X138904558Y-79739786D01*
X138903474Y-79731203D01*
X138900558Y-79723837D01*
X138900556Y-79723831D01*
X138887200Y-79690098D01*
X138883355Y-79678868D01*
X138873230Y-79644017D01*
X138873230Y-79644016D01*
X138871019Y-79636407D01*
X138860705Y-79618966D01*
X138852008Y-79601213D01*
X138847472Y-79589758D01*
X138844552Y-79582383D01*
X138818563Y-79546612D01*
X138812047Y-79536692D01*
X138789542Y-79498638D01*
X138775221Y-79484317D01*
X138762380Y-79469283D01*
X138758437Y-79463856D01*
X138750472Y-79452893D01*
X138716395Y-79424702D01*
X138707616Y-79416712D01*
X137797426Y-78506522D01*
X141902273Y-78506522D01*
X141949764Y-78683761D01*
X141953510Y-78694053D01*
X142045586Y-78891511D01*
X142051069Y-78901007D01*
X142176028Y-79079467D01*
X142183084Y-79087875D01*
X142337125Y-79241916D01*
X142345533Y-79248972D01*
X142523993Y-79373931D01*
X142533489Y-79379414D01*
X142730947Y-79471490D01*
X142741239Y-79475236D01*
X142913503Y-79521394D01*
X142927599Y-79521058D01*
X142931000Y-79513116D01*
X142931000Y-79507967D01*
X143439000Y-79507967D01*
X143442973Y-79521498D01*
X143451522Y-79522727D01*
X143628761Y-79475236D01*
X143639053Y-79471490D01*
X143836511Y-79379414D01*
X143846007Y-79373931D01*
X144024467Y-79248972D01*
X144032875Y-79241916D01*
X144186916Y-79087875D01*
X144193972Y-79079467D01*
X144318931Y-78901007D01*
X144324414Y-78891511D01*
X144416490Y-78694053D01*
X144420236Y-78683761D01*
X144466394Y-78511497D01*
X144466058Y-78497401D01*
X144458116Y-78494000D01*
X143457115Y-78494000D01*
X143441876Y-78498475D01*
X143440671Y-78499865D01*
X143439000Y-78507548D01*
X143439000Y-79507967D01*
X142931000Y-79507967D01*
X142931000Y-78512115D01*
X142926525Y-78496876D01*
X142925135Y-78495671D01*
X142917452Y-78494000D01*
X141917033Y-78494000D01*
X141903502Y-78497973D01*
X141902273Y-78506522D01*
X137797426Y-78506522D01*
X137530904Y-78240000D01*
X152031502Y-78240000D01*
X152051457Y-78468087D01*
X152052881Y-78473400D01*
X152052881Y-78473402D01*
X152091146Y-78616206D01*
X152110716Y-78689243D01*
X152113039Y-78694224D01*
X152113039Y-78694225D01*
X152205151Y-78891762D01*
X152205154Y-78891767D01*
X152207477Y-78896749D01*
X152280902Y-79001611D01*
X152334741Y-79078500D01*
X152338802Y-79084300D01*
X152500700Y-79246198D01*
X152505208Y-79249355D01*
X152505211Y-79249357D01*
X152561533Y-79288794D01*
X152688251Y-79377523D01*
X152693233Y-79379846D01*
X152693238Y-79379849D01*
X152885032Y-79469283D01*
X152895757Y-79474284D01*
X152901065Y-79475706D01*
X152901067Y-79475707D01*
X153111598Y-79532119D01*
X153111600Y-79532119D01*
X153116913Y-79533543D01*
X153345000Y-79553498D01*
X153573087Y-79533543D01*
X153578400Y-79532119D01*
X153578402Y-79532119D01*
X153788933Y-79475707D01*
X153788935Y-79475706D01*
X153794243Y-79474284D01*
X153804968Y-79469283D01*
X153996762Y-79379849D01*
X153996767Y-79379846D01*
X154001749Y-79377523D01*
X154055810Y-79339669D01*
X162427001Y-79339669D01*
X162427371Y-79346490D01*
X162432895Y-79397352D01*
X162436521Y-79412604D01*
X162481676Y-79533054D01*
X162490214Y-79548649D01*
X162566715Y-79650724D01*
X162579276Y-79663285D01*
X162681351Y-79739786D01*
X162696946Y-79748324D01*
X162817394Y-79793478D01*
X162832649Y-79797105D01*
X162883514Y-79802631D01*
X162890328Y-79803000D01*
X163512885Y-79803000D01*
X163528124Y-79798525D01*
X163529329Y-79797135D01*
X163531000Y-79789452D01*
X163531000Y-79784884D01*
X164039000Y-79784884D01*
X164043475Y-79800123D01*
X164044865Y-79801328D01*
X164052548Y-79802999D01*
X164679669Y-79802999D01*
X164686490Y-79802629D01*
X164737352Y-79797105D01*
X164752604Y-79793479D01*
X164873054Y-79748324D01*
X164888649Y-79739786D01*
X164990724Y-79663285D01*
X165003285Y-79650724D01*
X165079786Y-79548649D01*
X165088324Y-79533054D01*
X165133478Y-79412606D01*
X165137105Y-79397351D01*
X165142631Y-79346486D01*
X165143000Y-79339672D01*
X165143000Y-78717115D01*
X165138525Y-78701876D01*
X165137135Y-78700671D01*
X165129452Y-78699000D01*
X164057115Y-78699000D01*
X164041876Y-78703475D01*
X164040671Y-78704865D01*
X164039000Y-78712548D01*
X164039000Y-79784884D01*
X163531000Y-79784884D01*
X163531000Y-78717115D01*
X163526525Y-78701876D01*
X163525135Y-78700671D01*
X163517452Y-78699000D01*
X162445116Y-78699000D01*
X162429877Y-78703475D01*
X162428672Y-78704865D01*
X162427001Y-78712548D01*
X162427001Y-79339669D01*
X154055810Y-79339669D01*
X154128467Y-79288794D01*
X154184789Y-79249357D01*
X154184792Y-79249355D01*
X154189300Y-79246198D01*
X154351198Y-79084300D01*
X154355260Y-79078500D01*
X154409098Y-79001611D01*
X154482523Y-78896749D01*
X154484846Y-78891767D01*
X154484849Y-78891762D01*
X154576961Y-78694225D01*
X154576961Y-78694224D01*
X154579284Y-78689243D01*
X154598855Y-78616206D01*
X154637119Y-78473402D01*
X154637119Y-78473400D01*
X154638543Y-78468087D01*
X154658498Y-78240000D01*
X154638543Y-78011913D01*
X154625332Y-77962608D01*
X154580707Y-77796067D01*
X154580706Y-77796064D01*
X154579284Y-77790757D01*
X154508414Y-77638774D01*
X154484849Y-77588238D01*
X154484846Y-77588233D01*
X154482523Y-77583251D01*
X154351198Y-77395700D01*
X154189300Y-77233802D01*
X154184790Y-77230644D01*
X154184789Y-77230643D01*
X154097240Y-77169341D01*
X154001749Y-77102477D01*
X153996767Y-77100154D01*
X153996762Y-77100151D01*
X153962543Y-77084195D01*
X153909258Y-77037278D01*
X153889797Y-76969001D01*
X153910339Y-76901041D01*
X153962543Y-76855805D01*
X153996762Y-76839849D01*
X153996767Y-76839846D01*
X154001749Y-76837523D01*
X154183745Y-76710088D01*
X154184789Y-76709357D01*
X154184792Y-76709355D01*
X154189300Y-76706198D01*
X154351198Y-76544300D01*
X154365399Y-76524020D01*
X154479366Y-76361257D01*
X154482523Y-76356749D01*
X154484846Y-76351767D01*
X154484849Y-76351762D01*
X154576961Y-76154225D01*
X154576961Y-76154224D01*
X154579284Y-76149243D01*
X154586444Y-76122524D01*
X154637119Y-75933402D01*
X154637119Y-75933400D01*
X154638543Y-75928087D01*
X154643477Y-75871695D01*
X162422251Y-75871695D01*
X162422548Y-75876848D01*
X162422548Y-75876851D01*
X162431852Y-76038213D01*
X162435110Y-76094715D01*
X162436247Y-76099761D01*
X162436248Y-76099767D01*
X162448521Y-76154225D01*
X162484222Y-76312639D01*
X162568266Y-76519616D01*
X162684987Y-76710088D01*
X162831250Y-76878938D01*
X162835225Y-76882238D01*
X162835231Y-76882244D01*
X162840425Y-76886556D01*
X162880059Y-76945460D01*
X162881555Y-77016441D01*
X162844439Y-77076962D01*
X162804168Y-77101480D01*
X162696946Y-77141676D01*
X162681351Y-77150214D01*
X162579276Y-77226715D01*
X162566715Y-77239276D01*
X162490214Y-77341351D01*
X162481676Y-77356946D01*
X162436522Y-77477394D01*
X162432895Y-77492649D01*
X162427369Y-77543514D01*
X162427000Y-77550328D01*
X162427000Y-78172885D01*
X162431475Y-78188124D01*
X162432865Y-78189329D01*
X162440548Y-78191000D01*
X165124884Y-78191000D01*
X165140123Y-78186525D01*
X165141328Y-78185135D01*
X165142999Y-78177452D01*
X165142999Y-77550331D01*
X165142629Y-77543510D01*
X165137105Y-77492648D01*
X165133479Y-77477396D01*
X165088324Y-77356946D01*
X165079786Y-77341351D01*
X165003285Y-77239276D01*
X164990724Y-77226715D01*
X164888649Y-77150214D01*
X164873054Y-77141676D01*
X164762813Y-77100348D01*
X164706049Y-77057706D01*
X164681349Y-76991145D01*
X164696557Y-76921796D01*
X164718104Y-76893115D01*
X164819430Y-76792144D01*
X164819440Y-76792132D01*
X164823096Y-76788489D01*
X164882594Y-76705689D01*
X164950435Y-76611277D01*
X164953453Y-76607077D01*
X165003549Y-76505716D01*
X165050136Y-76411453D01*
X165050137Y-76411451D01*
X165052430Y-76406811D01*
X165112421Y-76209357D01*
X165115865Y-76198023D01*
X165115865Y-76198021D01*
X165117370Y-76193069D01*
X165146529Y-75971590D01*
X165148156Y-75905000D01*
X165129852Y-75682361D01*
X165075431Y-75465702D01*
X164986354Y-75260840D01*
X164937080Y-75184674D01*
X164867822Y-75077617D01*
X164867820Y-75077614D01*
X164865014Y-75073277D01*
X164714670Y-74908051D01*
X164710619Y-74904852D01*
X164710615Y-74904848D01*
X164543414Y-74772800D01*
X164543410Y-74772798D01*
X164539359Y-74769598D01*
X164505229Y-74750757D01*
X164480762Y-74737251D01*
X164343789Y-74661638D01*
X164338920Y-74659914D01*
X164338916Y-74659912D01*
X164138087Y-74588795D01*
X164138083Y-74588794D01*
X164133212Y-74587069D01*
X164128119Y-74586162D01*
X164128116Y-74586161D01*
X163918373Y-74548800D01*
X163918367Y-74548799D01*
X163913284Y-74547894D01*
X163839452Y-74546992D01*
X163695081Y-74545228D01*
X163695079Y-74545228D01*
X163689911Y-74545165D01*
X163469091Y-74578955D01*
X163256756Y-74648357D01*
X163058607Y-74751507D01*
X163054474Y-74754610D01*
X163054471Y-74754612D01*
X162888959Y-74878882D01*
X162879965Y-74885635D01*
X162876393Y-74889373D01*
X162729344Y-75043251D01*
X162725629Y-75047138D01*
X162599743Y-75231680D01*
X162584003Y-75265590D01*
X162509281Y-75426565D01*
X162505688Y-75434305D01*
X162445989Y-75649570D01*
X162422251Y-75871695D01*
X154643477Y-75871695D01*
X154658498Y-75700000D01*
X154638543Y-75471913D01*
X154625332Y-75422609D01*
X154580707Y-75256067D01*
X154580706Y-75256064D01*
X154579284Y-75250757D01*
X154570388Y-75231680D01*
X154484849Y-75048238D01*
X154484846Y-75048233D01*
X154482523Y-75043251D01*
X154369985Y-74882530D01*
X154354357Y-74860211D01*
X154354355Y-74860208D01*
X154351198Y-74855700D01*
X154189300Y-74693802D01*
X154184792Y-74690645D01*
X154184789Y-74690643D01*
X154102457Y-74632994D01*
X154001749Y-74562477D01*
X153996767Y-74560154D01*
X153996762Y-74560151D01*
X153962543Y-74544195D01*
X153909258Y-74497278D01*
X153889797Y-74429001D01*
X153910339Y-74361041D01*
X153962543Y-74315805D01*
X153996762Y-74299849D01*
X153996767Y-74299846D01*
X154001749Y-74297523D01*
X154154389Y-74190643D01*
X154184789Y-74169357D01*
X154184792Y-74169355D01*
X154189300Y-74166198D01*
X154351198Y-74004300D01*
X154482523Y-73816749D01*
X154484846Y-73811767D01*
X154484849Y-73811762D01*
X154576961Y-73614225D01*
X154576961Y-73614224D01*
X154579284Y-73609243D01*
X154606360Y-73508197D01*
X154637119Y-73393402D01*
X154637119Y-73393400D01*
X154638543Y-73388087D01*
X154658498Y-73160000D01*
X154638543Y-72931913D01*
X154625398Y-72882856D01*
X154580707Y-72716067D01*
X154580706Y-72716065D01*
X154579284Y-72710757D01*
X154573056Y-72697401D01*
X154484849Y-72508238D01*
X154484846Y-72508233D01*
X154482523Y-72503251D01*
X154380192Y-72357107D01*
X154354357Y-72320211D01*
X154354355Y-72320208D01*
X154351198Y-72315700D01*
X154189300Y-72153802D01*
X154184792Y-72150645D01*
X154184789Y-72150643D01*
X154083262Y-72079553D01*
X154001749Y-72022477D01*
X153996767Y-72020154D01*
X153996762Y-72020151D01*
X153962543Y-72004195D01*
X153909258Y-71957278D01*
X153889797Y-71889001D01*
X153910339Y-71821041D01*
X153962543Y-71775805D01*
X153996762Y-71759849D01*
X153996767Y-71759846D01*
X154001749Y-71757523D01*
X154154389Y-71650643D01*
X154184789Y-71629357D01*
X154184792Y-71629355D01*
X154189300Y-71626198D01*
X154351198Y-71464300D01*
X154361103Y-71450155D01*
X154428232Y-71354284D01*
X154482523Y-71276749D01*
X154484846Y-71271767D01*
X154484849Y-71271762D01*
X154576961Y-71074225D01*
X154576961Y-71074224D01*
X154579284Y-71069243D01*
X154606360Y-70968197D01*
X154637119Y-70853402D01*
X154637119Y-70853400D01*
X154638543Y-70848087D01*
X154658498Y-70620000D01*
X154638543Y-70391913D01*
X154626800Y-70348087D01*
X154580707Y-70176067D01*
X154580706Y-70176065D01*
X154579284Y-70170757D01*
X154553063Y-70114525D01*
X154484849Y-69968238D01*
X154484846Y-69968233D01*
X154482523Y-69963251D01*
X154351198Y-69775700D01*
X154189300Y-69613802D01*
X154184792Y-69610645D01*
X154184789Y-69610643D01*
X154106611Y-69555902D01*
X154001749Y-69482477D01*
X153996767Y-69480154D01*
X153996762Y-69480151D01*
X153799225Y-69388039D01*
X153799224Y-69388039D01*
X153794243Y-69385716D01*
X153788935Y-69384294D01*
X153788933Y-69384293D01*
X153578402Y-69327881D01*
X153578400Y-69327881D01*
X153573087Y-69326457D01*
X153345000Y-69306502D01*
X153116913Y-69326457D01*
X153111600Y-69327881D01*
X153111598Y-69327881D01*
X152901067Y-69384293D01*
X152901065Y-69384294D01*
X152895757Y-69385716D01*
X152890776Y-69388039D01*
X152890775Y-69388039D01*
X152693238Y-69480151D01*
X152693233Y-69480154D01*
X152688251Y-69482477D01*
X152583389Y-69555902D01*
X152505211Y-69610643D01*
X152505208Y-69610645D01*
X152500700Y-69613802D01*
X152338802Y-69775700D01*
X152207477Y-69963251D01*
X152205154Y-69968233D01*
X152205151Y-69968238D01*
X152136937Y-70114525D01*
X152110716Y-70170757D01*
X152109294Y-70176065D01*
X152109293Y-70176067D01*
X152063200Y-70348087D01*
X152051457Y-70391913D01*
X152031502Y-70620000D01*
X152051457Y-70848087D01*
X152052881Y-70853400D01*
X152052881Y-70853402D01*
X152083641Y-70968197D01*
X152110716Y-71069243D01*
X152113039Y-71074224D01*
X152113039Y-71074225D01*
X152205151Y-71271762D01*
X152205154Y-71271767D01*
X152207477Y-71276749D01*
X152261768Y-71354284D01*
X152328898Y-71450155D01*
X152338802Y-71464300D01*
X152500700Y-71626198D01*
X152505208Y-71629355D01*
X152505211Y-71629357D01*
X152535611Y-71650643D01*
X152688251Y-71757523D01*
X152693233Y-71759846D01*
X152693238Y-71759849D01*
X152727457Y-71775805D01*
X152780742Y-71822722D01*
X152800203Y-71890999D01*
X152779661Y-71958959D01*
X152727457Y-72004195D01*
X152693238Y-72020151D01*
X152693233Y-72020154D01*
X152688251Y-72022477D01*
X152606738Y-72079553D01*
X152505211Y-72150643D01*
X152505208Y-72150645D01*
X152500700Y-72153802D01*
X152338802Y-72315700D01*
X152335645Y-72320208D01*
X152335643Y-72320211D01*
X152309808Y-72357107D01*
X152207477Y-72503251D01*
X152205154Y-72508233D01*
X152205151Y-72508238D01*
X152116944Y-72697401D01*
X152110716Y-72710757D01*
X152109294Y-72716065D01*
X152109293Y-72716067D01*
X152064602Y-72882856D01*
X152051457Y-72931913D01*
X152031502Y-73160000D01*
X152051457Y-73388087D01*
X152052881Y-73393400D01*
X152052881Y-73393402D01*
X152083641Y-73508197D01*
X152110716Y-73609243D01*
X152113039Y-73614224D01*
X152113039Y-73614225D01*
X152205151Y-73811762D01*
X152205154Y-73811767D01*
X152207477Y-73816749D01*
X152338802Y-74004300D01*
X152500700Y-74166198D01*
X152505208Y-74169355D01*
X152505211Y-74169357D01*
X152535611Y-74190643D01*
X152688251Y-74297523D01*
X152693233Y-74299846D01*
X152693238Y-74299849D01*
X152727457Y-74315805D01*
X152780742Y-74362722D01*
X152800203Y-74430999D01*
X152779661Y-74498959D01*
X152727457Y-74544195D01*
X152693238Y-74560151D01*
X152693233Y-74560154D01*
X152688251Y-74562477D01*
X152587543Y-74632994D01*
X152505211Y-74690643D01*
X152505208Y-74690645D01*
X152500700Y-74693802D01*
X152338802Y-74855700D01*
X152335645Y-74860208D01*
X152335643Y-74860211D01*
X152320015Y-74882530D01*
X152207477Y-75043251D01*
X152205154Y-75048233D01*
X152205151Y-75048238D01*
X152119612Y-75231680D01*
X152110716Y-75250757D01*
X152109294Y-75256064D01*
X152109293Y-75256067D01*
X152064668Y-75422609D01*
X152051457Y-75471913D01*
X152031502Y-75700000D01*
X152051457Y-75928087D01*
X152052881Y-75933400D01*
X152052881Y-75933402D01*
X152103557Y-76122524D01*
X152110716Y-76149243D01*
X152113039Y-76154224D01*
X152113039Y-76154225D01*
X152205151Y-76351762D01*
X152205154Y-76351767D01*
X152207477Y-76356749D01*
X152210634Y-76361257D01*
X152324602Y-76524020D01*
X152338802Y-76544300D01*
X152500700Y-76706198D01*
X152505208Y-76709355D01*
X152505211Y-76709357D01*
X152506255Y-76710088D01*
X152688251Y-76837523D01*
X152693233Y-76839846D01*
X152693238Y-76839849D01*
X152727457Y-76855805D01*
X152780742Y-76902722D01*
X152800203Y-76970999D01*
X152779661Y-77038959D01*
X152727457Y-77084195D01*
X152693238Y-77100151D01*
X152693233Y-77100154D01*
X152688251Y-77102477D01*
X152592760Y-77169341D01*
X152505211Y-77230643D01*
X152505210Y-77230644D01*
X152500700Y-77233802D01*
X152338802Y-77395700D01*
X152207477Y-77583251D01*
X152205154Y-77588233D01*
X152205151Y-77588238D01*
X152181586Y-77638774D01*
X152110716Y-77790757D01*
X152109294Y-77796064D01*
X152109293Y-77796067D01*
X152064668Y-77962608D01*
X152051457Y-78011913D01*
X152031502Y-78240000D01*
X137530904Y-78240000D01*
X134990904Y-75700000D01*
X141871502Y-75700000D01*
X141891457Y-75928087D01*
X141892881Y-75933400D01*
X141892881Y-75933402D01*
X141943557Y-76122524D01*
X141950716Y-76149243D01*
X141953039Y-76154224D01*
X141953039Y-76154225D01*
X142045151Y-76351762D01*
X142045154Y-76351767D01*
X142047477Y-76356749D01*
X142050634Y-76361257D01*
X142164602Y-76524020D01*
X142178802Y-76544300D01*
X142340700Y-76706198D01*
X142345208Y-76709355D01*
X142345211Y-76709357D01*
X142346255Y-76710088D01*
X142528251Y-76837523D01*
X142533233Y-76839846D01*
X142533238Y-76839849D01*
X142568049Y-76856081D01*
X142621334Y-76902998D01*
X142640795Y-76971275D01*
X142620253Y-77039235D01*
X142568049Y-77084471D01*
X142533489Y-77100586D01*
X142523993Y-77106069D01*
X142345533Y-77231028D01*
X142337125Y-77238084D01*
X142183084Y-77392125D01*
X142176028Y-77400533D01*
X142051069Y-77578993D01*
X142045586Y-77588489D01*
X141953510Y-77785947D01*
X141949764Y-77796239D01*
X141903606Y-77968503D01*
X141903942Y-77982599D01*
X141911884Y-77986000D01*
X144452967Y-77986000D01*
X144466498Y-77982027D01*
X144467727Y-77973478D01*
X144420236Y-77796239D01*
X144416490Y-77785947D01*
X144324414Y-77588489D01*
X144318931Y-77578993D01*
X144193972Y-77400533D01*
X144186916Y-77392125D01*
X144032875Y-77238084D01*
X144024467Y-77231028D01*
X143846007Y-77106069D01*
X143836511Y-77100586D01*
X143801951Y-77084471D01*
X143748666Y-77037554D01*
X143729205Y-76969277D01*
X143749747Y-76901317D01*
X143801951Y-76856081D01*
X143836762Y-76839849D01*
X143836767Y-76839846D01*
X143841749Y-76837523D01*
X144023745Y-76710088D01*
X144024789Y-76709357D01*
X144024792Y-76709355D01*
X144029300Y-76706198D01*
X144191198Y-76544300D01*
X144205399Y-76524020D01*
X144319366Y-76361257D01*
X144322523Y-76356749D01*
X144324846Y-76351767D01*
X144324849Y-76351762D01*
X144416961Y-76154225D01*
X144416961Y-76154224D01*
X144419284Y-76149243D01*
X144426444Y-76122524D01*
X144477119Y-75933402D01*
X144477119Y-75933400D01*
X144478543Y-75928087D01*
X144498498Y-75700000D01*
X144478543Y-75471913D01*
X144465332Y-75422609D01*
X144420707Y-75256067D01*
X144420706Y-75256064D01*
X144419284Y-75250757D01*
X144410388Y-75231680D01*
X144324849Y-75048238D01*
X144324846Y-75048233D01*
X144322523Y-75043251D01*
X144209985Y-74882530D01*
X144194357Y-74860211D01*
X144194355Y-74860208D01*
X144191198Y-74855700D01*
X144029300Y-74693802D01*
X144024792Y-74690645D01*
X144024789Y-74690643D01*
X143942457Y-74632994D01*
X143841749Y-74562477D01*
X143836767Y-74560154D01*
X143836762Y-74560151D01*
X143801951Y-74543919D01*
X143748666Y-74497002D01*
X143729205Y-74428725D01*
X143749747Y-74360765D01*
X143801951Y-74315529D01*
X143836511Y-74299414D01*
X143846007Y-74293931D01*
X144024467Y-74168972D01*
X144032875Y-74161916D01*
X144186916Y-74007875D01*
X144193972Y-73999467D01*
X144318931Y-73821007D01*
X144324414Y-73811511D01*
X144416490Y-73614053D01*
X144420236Y-73603761D01*
X144466394Y-73431497D01*
X144466058Y-73417401D01*
X144458116Y-73414000D01*
X141917033Y-73414000D01*
X141903502Y-73417973D01*
X141902273Y-73426522D01*
X141949764Y-73603761D01*
X141953510Y-73614053D01*
X142045586Y-73811511D01*
X142051069Y-73821007D01*
X142176028Y-73999467D01*
X142183084Y-74007875D01*
X142337125Y-74161916D01*
X142345533Y-74168972D01*
X142523993Y-74293931D01*
X142533489Y-74299414D01*
X142568049Y-74315529D01*
X142621334Y-74362446D01*
X142640795Y-74430723D01*
X142620253Y-74498683D01*
X142568049Y-74543919D01*
X142533238Y-74560151D01*
X142533233Y-74560154D01*
X142528251Y-74562477D01*
X142427543Y-74632994D01*
X142345211Y-74690643D01*
X142345208Y-74690645D01*
X142340700Y-74693802D01*
X142178802Y-74855700D01*
X142175645Y-74860208D01*
X142175643Y-74860211D01*
X142160015Y-74882530D01*
X142047477Y-75043251D01*
X142045154Y-75048233D01*
X142045151Y-75048238D01*
X141959612Y-75231680D01*
X141950716Y-75250757D01*
X141949294Y-75256064D01*
X141949293Y-75256067D01*
X141904668Y-75422609D01*
X141891457Y-75471913D01*
X141871502Y-75700000D01*
X134990904Y-75700000D01*
X134904152Y-75613248D01*
X134870126Y-75550936D01*
X134871541Y-75491541D01*
X134887118Y-75433409D01*
X134887120Y-75433398D01*
X134888543Y-75428087D01*
X134908498Y-75200000D01*
X134888543Y-74971913D01*
X134887119Y-74966598D01*
X134887118Y-74966591D01*
X134871541Y-74908459D01*
X134873230Y-74837483D01*
X134904152Y-74786752D01*
X135646710Y-74044195D01*
X136427253Y-73263652D01*
X136435539Y-73256112D01*
X136442018Y-73252000D01*
X136488644Y-73202348D01*
X136491398Y-73199507D01*
X136511135Y-73179770D01*
X136513615Y-73176573D01*
X136521320Y-73167551D01*
X136551586Y-73135321D01*
X136555405Y-73128375D01*
X136555407Y-73128372D01*
X136561348Y-73117566D01*
X136572199Y-73101047D01*
X136579758Y-73091301D01*
X136584614Y-73085041D01*
X136587759Y-73077772D01*
X136587762Y-73077768D01*
X136602174Y-73044463D01*
X136607391Y-73033813D01*
X136628695Y-72995060D01*
X136633733Y-72975437D01*
X136640137Y-72956734D01*
X136645033Y-72945420D01*
X136645033Y-72945419D01*
X136648181Y-72938145D01*
X136649420Y-72930322D01*
X136649423Y-72930312D01*
X136655099Y-72894476D01*
X136657505Y-72882856D01*
X136666528Y-72847711D01*
X136666528Y-72847710D01*
X136668500Y-72840030D01*
X136668500Y-72819776D01*
X136670051Y-72800065D01*
X136671980Y-72787886D01*
X136673220Y-72780057D01*
X136669059Y-72736038D01*
X136668500Y-72724181D01*
X136668500Y-71468134D01*
X141876500Y-71468134D01*
X141883255Y-71530316D01*
X141934385Y-71666705D01*
X142021739Y-71783261D01*
X142138295Y-71870615D01*
X142274684Y-71921745D01*
X142286229Y-71922999D01*
X142288910Y-71924113D01*
X142290222Y-71924425D01*
X142290172Y-71924637D01*
X142351790Y-71950238D01*
X142392218Y-72008599D01*
X142394677Y-72079553D01*
X142358384Y-72140572D01*
X142347775Y-72149147D01*
X142337125Y-72158084D01*
X142183084Y-72312125D01*
X142176028Y-72320533D01*
X142051069Y-72498993D01*
X142045586Y-72508489D01*
X141953510Y-72705947D01*
X141949764Y-72716239D01*
X141903606Y-72888503D01*
X141903942Y-72902599D01*
X141911884Y-72906000D01*
X144452967Y-72906000D01*
X144466498Y-72902027D01*
X144467727Y-72893478D01*
X144420236Y-72716239D01*
X144416490Y-72705947D01*
X144324414Y-72508489D01*
X144318931Y-72498993D01*
X144193972Y-72320533D01*
X144186916Y-72312125D01*
X144032875Y-72158084D01*
X144020254Y-72147493D01*
X144021108Y-72146475D01*
X143980776Y-72096016D01*
X143973468Y-72025397D01*
X144005500Y-71962037D01*
X144066702Y-71926053D01*
X144083762Y-71923000D01*
X144095316Y-71921745D01*
X144231705Y-71870615D01*
X144348261Y-71783261D01*
X144435615Y-71666705D01*
X144486745Y-71530316D01*
X144493500Y-71468134D01*
X144493500Y-69771866D01*
X144486745Y-69709684D01*
X144435615Y-69573295D01*
X144348261Y-69456739D01*
X144231705Y-69369385D01*
X144095316Y-69318255D01*
X144033134Y-69311500D01*
X142336866Y-69311500D01*
X142274684Y-69318255D01*
X142138295Y-69369385D01*
X142021739Y-69456739D01*
X141934385Y-69573295D01*
X141883255Y-69709684D01*
X141876500Y-69771866D01*
X141876500Y-71468134D01*
X136668500Y-71468134D01*
X136668500Y-68748768D01*
X136669027Y-68737585D01*
X136670702Y-68730092D01*
X136668562Y-68662001D01*
X136668500Y-68658044D01*
X136668500Y-68630144D01*
X136667996Y-68626153D01*
X136667063Y-68614311D01*
X136665923Y-68578036D01*
X136665674Y-68570111D01*
X136663462Y-68562497D01*
X136663461Y-68562492D01*
X136660023Y-68550659D01*
X136656012Y-68531295D01*
X136654467Y-68519064D01*
X136653474Y-68511203D01*
X136650557Y-68503836D01*
X136650556Y-68503831D01*
X136637198Y-68470092D01*
X136633354Y-68458865D01*
X136630742Y-68449875D01*
X136621018Y-68416407D01*
X136610707Y-68398972D01*
X136602012Y-68381224D01*
X136594552Y-68362383D01*
X136568564Y-68326613D01*
X136562048Y-68316693D01*
X136543580Y-68285465D01*
X136543578Y-68285462D01*
X136539542Y-68278638D01*
X136525221Y-68264317D01*
X136512380Y-68249283D01*
X136505131Y-68239306D01*
X136500472Y-68232893D01*
X136466395Y-68204702D01*
X136457616Y-68196712D01*
X134788652Y-66527747D01*
X134781112Y-66519461D01*
X134777000Y-66512982D01*
X134727348Y-66466356D01*
X134724507Y-66463602D01*
X134704770Y-66443865D01*
X134701573Y-66441385D01*
X134692551Y-66433680D01*
X134679116Y-66421064D01*
X134660321Y-66403414D01*
X134653375Y-66399595D01*
X134653372Y-66399593D01*
X134642566Y-66393652D01*
X134626047Y-66382801D01*
X134625583Y-66382441D01*
X134610041Y-66370386D01*
X134602772Y-66367241D01*
X134602768Y-66367238D01*
X134569463Y-66352826D01*
X134558813Y-66347609D01*
X134520060Y-66326305D01*
X134500437Y-66321267D01*
X134481734Y-66314863D01*
X134470420Y-66309967D01*
X134470419Y-66309967D01*
X134463145Y-66306819D01*
X134455322Y-66305580D01*
X134455312Y-66305577D01*
X134419476Y-66299901D01*
X134407856Y-66297495D01*
X134372711Y-66288472D01*
X134372710Y-66288472D01*
X134365030Y-66286500D01*
X134344776Y-66286500D01*
X134325065Y-66284949D01*
X134322534Y-66284548D01*
X134305057Y-66281780D01*
X134297165Y-66282526D01*
X134261039Y-66285941D01*
X134249181Y-66286500D01*
X123113763Y-66286500D01*
X123102579Y-66285973D01*
X123095091Y-66284299D01*
X123087168Y-66284548D01*
X123027033Y-66286438D01*
X123023075Y-66286500D01*
X122995144Y-66286500D01*
X122991229Y-66286995D01*
X122991225Y-66286995D01*
X122991167Y-66287003D01*
X122991138Y-66287006D01*
X122979296Y-66287939D01*
X122935110Y-66289327D01*
X122917744Y-66294372D01*
X122915658Y-66294978D01*
X122896306Y-66298986D01*
X122889235Y-66299880D01*
X122876203Y-66301526D01*
X122868834Y-66304443D01*
X122868832Y-66304444D01*
X122835097Y-66317800D01*
X122823869Y-66321645D01*
X122781407Y-66333982D01*
X122774585Y-66338016D01*
X122774579Y-66338019D01*
X122763968Y-66344294D01*
X122746218Y-66352990D01*
X122734756Y-66357528D01*
X122734751Y-66357531D01*
X122727383Y-66360448D01*
X122709970Y-66373099D01*
X122691625Y-66386427D01*
X122681707Y-66392943D01*
X122670463Y-66399593D01*
X122643637Y-66415458D01*
X122629313Y-66429782D01*
X122614281Y-66442621D01*
X122597893Y-66454528D01*
X122569712Y-66488593D01*
X122561722Y-66497373D01*
X121142747Y-67916348D01*
X121134461Y-67923888D01*
X121127982Y-67928000D01*
X121122557Y-67933777D01*
X121081357Y-67977651D01*
X121078602Y-67980493D01*
X121058865Y-68000230D01*
X121056385Y-68003427D01*
X121048682Y-68012447D01*
X121018414Y-68044679D01*
X121014595Y-68051625D01*
X121014593Y-68051628D01*
X121008652Y-68062434D01*
X120997801Y-68078953D01*
X120985386Y-68094959D01*
X120982241Y-68102228D01*
X120982238Y-68102232D01*
X120967826Y-68135537D01*
X120962609Y-68146187D01*
X120941305Y-68184940D01*
X120939334Y-68192615D01*
X120939334Y-68192616D01*
X120936267Y-68204562D01*
X120929863Y-68223266D01*
X120921819Y-68241855D01*
X120920580Y-68249678D01*
X120920577Y-68249688D01*
X120914901Y-68285524D01*
X120912495Y-68297144D01*
X120901500Y-68339970D01*
X120901500Y-68360224D01*
X120899949Y-68379934D01*
X120896780Y-68399943D01*
X120897526Y-68407835D01*
X120900941Y-68443961D01*
X120901500Y-68455819D01*
X120901500Y-71841233D01*
X120900973Y-71852416D01*
X120899298Y-71859909D01*
X120899547Y-71867835D01*
X120899547Y-71867836D01*
X120901438Y-71927986D01*
X120901500Y-71931945D01*
X120901500Y-71959856D01*
X120901997Y-71963790D01*
X120901997Y-71963791D01*
X120902005Y-71963856D01*
X120902938Y-71975693D01*
X120904327Y-72019889D01*
X120909697Y-72038372D01*
X120909978Y-72039339D01*
X120913987Y-72058700D01*
X120916526Y-72078797D01*
X120919445Y-72086168D01*
X120919445Y-72086170D01*
X120932804Y-72119912D01*
X120936649Y-72131142D01*
X120944364Y-72157699D01*
X120948982Y-72173593D01*
X120953015Y-72180412D01*
X120953017Y-72180417D01*
X120959293Y-72191028D01*
X120967988Y-72208776D01*
X120975448Y-72227617D01*
X120980110Y-72234033D01*
X120980110Y-72234034D01*
X121001436Y-72263387D01*
X121007952Y-72273307D01*
X121019434Y-72292721D01*
X121030458Y-72311362D01*
X121044779Y-72325683D01*
X121057619Y-72340716D01*
X121069528Y-72357107D01*
X121101413Y-72383484D01*
X121103593Y-72385288D01*
X121112374Y-72393278D01*
X121771353Y-73052258D01*
X121778887Y-73060537D01*
X121783000Y-73067018D01*
X121832651Y-73113643D01*
X121835493Y-73116398D01*
X121855230Y-73136135D01*
X121858427Y-73138615D01*
X121867447Y-73146318D01*
X121899679Y-73176586D01*
X121906625Y-73180405D01*
X121906628Y-73180407D01*
X121917434Y-73186348D01*
X121933953Y-73197199D01*
X121949959Y-73209614D01*
X121957228Y-73212759D01*
X121957232Y-73212762D01*
X121990537Y-73227174D01*
X122001187Y-73232391D01*
X122039940Y-73253695D01*
X122047615Y-73255666D01*
X122047616Y-73255666D01*
X122059562Y-73258733D01*
X122078267Y-73265137D01*
X122096855Y-73273181D01*
X122104678Y-73274420D01*
X122104688Y-73274423D01*
X122140524Y-73280099D01*
X122152144Y-73282505D01*
X122187289Y-73291528D01*
X122194970Y-73293500D01*
X122215224Y-73293500D01*
X122234905Y-73295047D01*
X122235335Y-73295115D01*
X122299495Y-73325511D01*
X122318867Y-73347297D01*
X122412105Y-73480454D01*
X122428802Y-73504300D01*
X122590700Y-73666198D01*
X122595208Y-73669355D01*
X122595211Y-73669357D01*
X122673389Y-73724098D01*
X122778251Y-73797523D01*
X122783233Y-73799846D01*
X122783238Y-73799849D01*
X122817457Y-73815805D01*
X122870742Y-73862722D01*
X122890203Y-73930999D01*
X122869661Y-73998959D01*
X122817457Y-74044195D01*
X122783238Y-74060151D01*
X122783233Y-74060154D01*
X122778251Y-74062477D01*
X122673389Y-74135902D01*
X122595211Y-74190643D01*
X122595208Y-74190645D01*
X122590700Y-74193802D01*
X122428802Y-74355700D01*
X122425645Y-74360208D01*
X122425643Y-74360211D01*
X122393261Y-74406457D01*
X122297477Y-74543251D01*
X122295154Y-74548233D01*
X122295151Y-74548238D01*
X122213836Y-74722620D01*
X122200716Y-74750757D01*
X122199294Y-74756065D01*
X122199293Y-74756067D01*
X122142883Y-74966591D01*
X122141457Y-74971913D01*
X122121502Y-75200000D01*
X122141457Y-75428087D01*
X122142881Y-75433400D01*
X122142881Y-75433402D01*
X122190182Y-75609928D01*
X122200716Y-75649243D01*
X122203039Y-75654224D01*
X122203039Y-75654225D01*
X122295151Y-75851762D01*
X122295154Y-75851767D01*
X122297477Y-75856749D01*
X122368263Y-75957842D01*
X122424540Y-76038213D01*
X122428802Y-76044300D01*
X122590700Y-76206198D01*
X122595208Y-76209355D01*
X122595211Y-76209357D01*
X122673389Y-76264098D01*
X122778251Y-76337523D01*
X122783233Y-76339846D01*
X122783238Y-76339849D01*
X122817457Y-76355805D01*
X122870742Y-76402722D01*
X122890203Y-76470999D01*
X122869661Y-76538959D01*
X122817457Y-76584195D01*
X122783238Y-76600151D01*
X122783233Y-76600154D01*
X122778251Y-76602477D01*
X122677911Y-76672736D01*
X122595211Y-76730643D01*
X122595208Y-76730645D01*
X122590700Y-76733802D01*
X122428802Y-76895700D01*
X122425645Y-76900208D01*
X122425643Y-76900211D01*
X122318819Y-77052771D01*
X122263362Y-77097099D01*
X122215606Y-77106500D01*
X121043767Y-77106500D01*
X121032584Y-77105973D01*
X121025091Y-77104298D01*
X121017165Y-77104547D01*
X121017164Y-77104547D01*
X120957014Y-77106438D01*
X120953055Y-77106500D01*
X120925144Y-77106500D01*
X120921210Y-77106997D01*
X120921209Y-77106997D01*
X120921144Y-77107005D01*
X120909307Y-77107938D01*
X120877490Y-77108938D01*
X120873029Y-77109078D01*
X120865110Y-77109327D01*
X120847454Y-77114456D01*
X120845658Y-77114978D01*
X120826306Y-77118986D01*
X120819235Y-77119880D01*
X120806203Y-77121526D01*
X120798834Y-77124443D01*
X120798832Y-77124444D01*
X120765097Y-77137800D01*
X120753869Y-77141645D01*
X120711407Y-77153982D01*
X120704585Y-77158016D01*
X120704579Y-77158019D01*
X120693968Y-77164294D01*
X120676218Y-77172990D01*
X120664756Y-77177528D01*
X120664751Y-77177531D01*
X120657383Y-77180448D01*
X120650968Y-77185109D01*
X120621625Y-77206427D01*
X120611707Y-77212943D01*
X120593019Y-77223995D01*
X120573637Y-77235458D01*
X120559313Y-77249782D01*
X120544281Y-77262621D01*
X120527893Y-77274528D01*
X120506958Y-77299834D01*
X120499712Y-77308593D01*
X120491722Y-77317373D01*
X120334500Y-77474595D01*
X120272188Y-77508621D01*
X120245405Y-77511500D01*
X120189513Y-77511500D01*
X120183061Y-77512872D01*
X120183056Y-77512872D01*
X120096112Y-77531353D01*
X120002712Y-77551206D01*
X119996682Y-77553891D01*
X119996681Y-77553891D01*
X119834278Y-77626197D01*
X119834276Y-77626198D01*
X119828248Y-77628882D01*
X119673747Y-77741134D01*
X119545960Y-77883056D01*
X119450473Y-78048444D01*
X119391458Y-78230072D01*
X119390768Y-78236633D01*
X119390768Y-78236635D01*
X119377810Y-78359928D01*
X119371496Y-78420000D01*
X118966242Y-78420000D01*
X118982523Y-78396749D01*
X118984846Y-78391767D01*
X118984849Y-78391762D01*
X119076961Y-78194225D01*
X119076961Y-78194224D01*
X119079284Y-78189243D01*
X119082444Y-78177452D01*
X119137119Y-77973402D01*
X119137120Y-77973398D01*
X119138543Y-77968087D01*
X119158498Y-77740000D01*
X119138543Y-77511913D01*
X119106446Y-77392125D01*
X119080707Y-77296067D01*
X119080706Y-77296065D01*
X119079284Y-77290757D01*
X119066281Y-77262872D01*
X118984849Y-77088238D01*
X118984846Y-77088233D01*
X118982523Y-77083251D01*
X118886540Y-76946173D01*
X118854357Y-76900211D01*
X118854355Y-76900208D01*
X118851198Y-76895700D01*
X118689300Y-76733802D01*
X118684792Y-76730645D01*
X118684789Y-76730643D01*
X118602089Y-76672736D01*
X118501749Y-76602477D01*
X118496767Y-76600154D01*
X118496762Y-76600151D01*
X118462543Y-76584195D01*
X118409258Y-76537278D01*
X118389797Y-76469001D01*
X118410339Y-76401041D01*
X118462543Y-76355805D01*
X118496762Y-76339849D01*
X118496767Y-76339846D01*
X118501749Y-76337523D01*
X118606611Y-76264098D01*
X118684789Y-76209357D01*
X118684792Y-76209355D01*
X118689300Y-76206198D01*
X118851198Y-76044300D01*
X118855461Y-76038213D01*
X118911737Y-75957842D01*
X118982523Y-75856749D01*
X118984846Y-75851767D01*
X118984849Y-75851762D01*
X119076961Y-75654225D01*
X119076961Y-75654224D01*
X119079284Y-75649243D01*
X119089819Y-75609928D01*
X119137119Y-75433402D01*
X119137119Y-75433400D01*
X119138543Y-75428087D01*
X119158498Y-75200000D01*
X119138543Y-74971913D01*
X119137117Y-74966591D01*
X119080707Y-74756067D01*
X119080706Y-74756065D01*
X119079284Y-74750757D01*
X119066164Y-74722620D01*
X118984849Y-74548238D01*
X118984846Y-74548233D01*
X118982523Y-74543251D01*
X118886739Y-74406457D01*
X118854357Y-74360211D01*
X118854355Y-74360208D01*
X118851198Y-74355700D01*
X118689300Y-74193802D01*
X118684792Y-74190645D01*
X118684789Y-74190643D01*
X118606611Y-74135902D01*
X118501749Y-74062477D01*
X118496767Y-74060154D01*
X118496762Y-74060151D01*
X118462543Y-74044195D01*
X118409258Y-73997278D01*
X118389797Y-73929001D01*
X118410339Y-73861041D01*
X118462543Y-73815805D01*
X118496762Y-73799849D01*
X118496767Y-73799846D01*
X118501749Y-73797523D01*
X118606611Y-73724098D01*
X118684789Y-73669357D01*
X118684792Y-73669355D01*
X118689300Y-73666198D01*
X118851198Y-73504300D01*
X118982523Y-73316749D01*
X118984846Y-73311767D01*
X118984849Y-73311762D01*
X119076961Y-73114225D01*
X119076961Y-73114224D01*
X119079284Y-73109243D01*
X119098881Y-73036109D01*
X119137119Y-72893402D01*
X119137119Y-72893400D01*
X119138543Y-72888087D01*
X119158498Y-72660000D01*
X119138543Y-72431913D01*
X119136561Y-72424517D01*
X119080707Y-72216067D01*
X119080706Y-72216065D01*
X119079284Y-72210757D01*
X119070084Y-72191028D01*
X118984849Y-72008238D01*
X118984846Y-72008233D01*
X118982523Y-72003251D01*
X118893559Y-71876197D01*
X118854357Y-71820211D01*
X118854355Y-71820208D01*
X118851198Y-71815700D01*
X118689300Y-71653802D01*
X118684792Y-71650645D01*
X118684789Y-71650643D01*
X118596646Y-71588925D01*
X118501749Y-71522477D01*
X118496767Y-71520154D01*
X118496762Y-71520151D01*
X118462543Y-71504195D01*
X118409258Y-71457278D01*
X118389797Y-71389001D01*
X118410339Y-71321041D01*
X118462543Y-71275805D01*
X118496762Y-71259849D01*
X118496767Y-71259846D01*
X118501749Y-71257523D01*
X118643458Y-71158297D01*
X118684789Y-71129357D01*
X118684792Y-71129355D01*
X118689300Y-71126198D01*
X118851198Y-70964300D01*
X118982523Y-70776749D01*
X118984846Y-70771767D01*
X118984849Y-70771762D01*
X119076961Y-70574225D01*
X119076961Y-70574224D01*
X119079284Y-70569243D01*
X119125332Y-70397393D01*
X119137119Y-70353402D01*
X119137119Y-70353400D01*
X119138543Y-70348087D01*
X119158498Y-70120000D01*
X119138543Y-69891913D01*
X119137117Y-69886591D01*
X119080707Y-69676067D01*
X119080706Y-69676065D01*
X119079284Y-69670757D01*
X119030486Y-69566109D01*
X118984849Y-69468238D01*
X118984846Y-69468233D01*
X118982523Y-69463251D01*
X118901752Y-69347899D01*
X118854357Y-69280211D01*
X118854355Y-69280208D01*
X118851198Y-69275700D01*
X118689300Y-69113802D01*
X118684792Y-69110645D01*
X118684789Y-69110643D01*
X118544553Y-69012449D01*
X118501749Y-68982477D01*
X118496767Y-68980154D01*
X118496762Y-68980151D01*
X118299225Y-68888039D01*
X118299224Y-68888039D01*
X118294243Y-68885716D01*
X118288935Y-68884294D01*
X118288933Y-68884293D01*
X118078402Y-68827881D01*
X118078400Y-68827881D01*
X118073087Y-68826457D01*
X117845000Y-68806502D01*
X117616913Y-68826457D01*
X117611602Y-68827880D01*
X117611591Y-68827882D01*
X117553459Y-68843459D01*
X117482483Y-68841770D01*
X117431752Y-68810848D01*
X116805845Y-68184940D01*
X116148652Y-67527747D01*
X116141112Y-67519461D01*
X116137000Y-67512982D01*
X116087348Y-67466356D01*
X116084507Y-67463602D01*
X116064770Y-67443865D01*
X116061573Y-67441385D01*
X116052551Y-67433680D01*
X116039116Y-67421064D01*
X116020321Y-67403414D01*
X116013375Y-67399595D01*
X116013372Y-67399593D01*
X116002566Y-67393652D01*
X115986047Y-67382801D01*
X115985583Y-67382441D01*
X115970041Y-67370386D01*
X115962772Y-67367241D01*
X115962768Y-67367238D01*
X115929463Y-67352826D01*
X115918813Y-67347609D01*
X115880060Y-67326305D01*
X115860437Y-67321267D01*
X115841734Y-67314863D01*
X115830420Y-67309967D01*
X115830419Y-67309967D01*
X115823145Y-67306819D01*
X115815322Y-67305580D01*
X115815312Y-67305577D01*
X115779476Y-67299901D01*
X115767856Y-67297495D01*
X115732711Y-67288472D01*
X115732710Y-67288472D01*
X115725030Y-67286500D01*
X115704776Y-67286500D01*
X115685065Y-67284949D01*
X115682534Y-67284548D01*
X115665057Y-67281780D01*
X115657165Y-67282526D01*
X115621039Y-67285941D01*
X115609181Y-67286500D01*
X100613763Y-67286500D01*
X100602579Y-67285973D01*
X100595091Y-67284299D01*
X100587168Y-67284548D01*
X100527033Y-67286438D01*
X100523075Y-67286500D01*
X100495144Y-67286500D01*
X100491229Y-67286995D01*
X100491225Y-67286995D01*
X100491167Y-67287003D01*
X100491138Y-67287006D01*
X100479296Y-67287939D01*
X100435110Y-67289327D01*
X100417744Y-67294372D01*
X100415658Y-67294978D01*
X100396306Y-67298986D01*
X100389235Y-67299880D01*
X100376203Y-67301526D01*
X100368834Y-67304443D01*
X100368832Y-67304444D01*
X100335097Y-67317800D01*
X100323869Y-67321645D01*
X100281407Y-67333982D01*
X100274585Y-67338016D01*
X100274579Y-67338019D01*
X100263968Y-67344294D01*
X100246218Y-67352990D01*
X100234756Y-67357528D01*
X100234751Y-67357531D01*
X100227383Y-67360448D01*
X100209970Y-67373099D01*
X100191625Y-67386427D01*
X100181707Y-67392943D01*
X100170463Y-67399593D01*
X100143637Y-67415458D01*
X100129313Y-67429782D01*
X100114281Y-67442621D01*
X100097893Y-67454528D01*
X100069712Y-67488593D01*
X100061722Y-67497373D01*
X98642747Y-68916348D01*
X98634461Y-68923888D01*
X98627982Y-68928000D01*
X98622557Y-68933777D01*
X98581357Y-68977651D01*
X98578602Y-68980493D01*
X98558865Y-69000230D01*
X98556385Y-69003427D01*
X98548682Y-69012447D01*
X98518414Y-69044679D01*
X98514595Y-69051625D01*
X98514593Y-69051628D01*
X98508652Y-69062434D01*
X98497801Y-69078953D01*
X98485386Y-69094959D01*
X98482241Y-69102228D01*
X98482238Y-69102232D01*
X98467826Y-69135537D01*
X98462609Y-69146187D01*
X98441305Y-69184940D01*
X98439334Y-69192615D01*
X98439334Y-69192616D01*
X98436267Y-69204562D01*
X98429863Y-69223266D01*
X98421819Y-69241855D01*
X98420580Y-69249678D01*
X98420577Y-69249688D01*
X98414901Y-69285524D01*
X98412495Y-69297144D01*
X98408715Y-69311869D01*
X98401500Y-69339970D01*
X98401500Y-69360224D01*
X98399949Y-69379934D01*
X98396780Y-69399943D01*
X98397526Y-69407835D01*
X98400941Y-69443961D01*
X98401500Y-69455819D01*
X98401500Y-71355405D01*
X98381498Y-71423526D01*
X98364595Y-71444501D01*
X98309499Y-71499596D01*
X98247186Y-71533621D01*
X98220404Y-71536500D01*
X97243200Y-71536500D01*
X97175079Y-71516498D01*
X97155853Y-71500157D01*
X97155580Y-71500460D01*
X97150668Y-71496037D01*
X97146253Y-71491134D01*
X97106086Y-71461951D01*
X96997094Y-71382763D01*
X96997093Y-71382762D01*
X96991752Y-71378882D01*
X96985724Y-71376198D01*
X96985722Y-71376197D01*
X96823319Y-71303891D01*
X96823318Y-71303891D01*
X96817288Y-71301206D01*
X96699085Y-71276081D01*
X96636944Y-71262872D01*
X96636939Y-71262872D01*
X96630487Y-71261500D01*
X96439513Y-71261500D01*
X96433061Y-71262872D01*
X96433056Y-71262872D01*
X96370915Y-71276081D01*
X96252712Y-71301206D01*
X96246682Y-71303891D01*
X96246681Y-71303891D01*
X96084278Y-71376197D01*
X96084276Y-71376198D01*
X96078248Y-71378882D01*
X96072907Y-71382762D01*
X96072906Y-71382763D01*
X96062945Y-71390000D01*
X95923747Y-71491134D01*
X95919326Y-71496044D01*
X95919325Y-71496045D01*
X95832432Y-71592550D01*
X95771986Y-71629790D01*
X95701003Y-71628438D01*
X95642018Y-71588925D01*
X95623690Y-71559491D01*
X95621568Y-71554724D01*
X95619527Y-71548444D01*
X95524040Y-71383056D01*
X95479024Y-71333060D01*
X95400675Y-71246045D01*
X95400674Y-71246044D01*
X95396253Y-71241134D01*
X95241752Y-71128882D01*
X95235724Y-71126198D01*
X95235722Y-71126197D01*
X95073319Y-71053891D01*
X95073318Y-71053891D01*
X95067288Y-71051206D01*
X94969009Y-71030316D01*
X94886944Y-71012872D01*
X94886939Y-71012872D01*
X94880487Y-71011500D01*
X94689513Y-71011500D01*
X94683061Y-71012872D01*
X94683056Y-71012872D01*
X94600991Y-71030316D01*
X94502712Y-71051206D01*
X94496682Y-71053891D01*
X94496681Y-71053891D01*
X94334278Y-71126197D01*
X94334276Y-71126198D01*
X94328248Y-71128882D01*
X94173747Y-71241134D01*
X94169326Y-71246044D01*
X94169325Y-71246045D01*
X94090977Y-71333060D01*
X94045960Y-71383056D01*
X93950473Y-71548444D01*
X93891458Y-71730072D01*
X93890768Y-71736633D01*
X93890768Y-71736635D01*
X93874093Y-71895292D01*
X93847080Y-71960949D01*
X93837878Y-71971217D01*
X93368899Y-72440196D01*
X93306587Y-72474222D01*
X93235772Y-72469157D01*
X93176591Y-72423372D01*
X93104357Y-72320211D01*
X93104355Y-72320208D01*
X93101198Y-72315700D01*
X92939300Y-72153802D01*
X92934792Y-72150645D01*
X92934789Y-72150643D01*
X92833262Y-72079553D01*
X92751749Y-72022477D01*
X92746767Y-72020154D01*
X92746762Y-72020151D01*
X92712543Y-72004195D01*
X92659258Y-71957278D01*
X92639797Y-71889001D01*
X92660339Y-71821041D01*
X92712543Y-71775805D01*
X92746762Y-71759849D01*
X92746767Y-71759846D01*
X92751749Y-71757523D01*
X92904389Y-71650643D01*
X92934789Y-71629357D01*
X92934792Y-71629355D01*
X92939300Y-71626198D01*
X93101198Y-71464300D01*
X93111103Y-71450155D01*
X93178232Y-71354284D01*
X93232523Y-71276749D01*
X93234846Y-71271767D01*
X93234849Y-71271762D01*
X93326961Y-71074225D01*
X93326961Y-71074224D01*
X93329284Y-71069243D01*
X93356360Y-70968197D01*
X93387119Y-70853402D01*
X93387119Y-70853400D01*
X93388543Y-70848087D01*
X93408498Y-70620000D01*
X93388543Y-70391913D01*
X93376800Y-70348087D01*
X93330707Y-70176067D01*
X93330706Y-70176065D01*
X93329284Y-70170757D01*
X93303063Y-70114525D01*
X93234849Y-69968238D01*
X93234846Y-69968233D01*
X93232523Y-69963251D01*
X93101198Y-69775700D01*
X92939300Y-69613802D01*
X92934792Y-69610645D01*
X92934789Y-69610643D01*
X92856611Y-69555902D01*
X92751749Y-69482477D01*
X92746767Y-69480154D01*
X92746762Y-69480151D01*
X92549225Y-69388039D01*
X92549224Y-69388039D01*
X92544243Y-69385716D01*
X92538935Y-69384294D01*
X92538933Y-69384293D01*
X92328402Y-69327881D01*
X92328400Y-69327881D01*
X92323087Y-69326457D01*
X92095000Y-69306502D01*
X91866913Y-69326457D01*
X91861600Y-69327881D01*
X91861598Y-69327881D01*
X91651067Y-69384293D01*
X91651065Y-69384294D01*
X91645757Y-69385716D01*
X91640776Y-69388039D01*
X91640775Y-69388039D01*
X91443238Y-69480151D01*
X91443233Y-69480154D01*
X91438251Y-69482477D01*
X91333389Y-69555902D01*
X91255211Y-69610643D01*
X91255208Y-69610645D01*
X91250700Y-69613802D01*
X91088802Y-69775700D01*
X90957477Y-69963251D01*
X90955154Y-69968233D01*
X90955151Y-69968238D01*
X90886937Y-70114525D01*
X90860716Y-70170757D01*
X90859294Y-70176065D01*
X90859293Y-70176067D01*
X90813200Y-70348087D01*
X90801457Y-70391913D01*
X90781502Y-70620000D01*
X90801457Y-70848087D01*
X90802881Y-70853400D01*
X90802881Y-70853402D01*
X90833641Y-70968197D01*
X90860716Y-71069243D01*
X90863039Y-71074224D01*
X90863039Y-71074225D01*
X90955151Y-71271762D01*
X90955154Y-71271767D01*
X90957477Y-71276749D01*
X91011768Y-71354284D01*
X91078898Y-71450155D01*
X91088802Y-71464300D01*
X91250700Y-71626198D01*
X91255208Y-71629355D01*
X91255211Y-71629357D01*
X91285611Y-71650643D01*
X91438251Y-71757523D01*
X91443233Y-71759846D01*
X91443238Y-71759849D01*
X91477457Y-71775805D01*
X91530742Y-71822722D01*
X91550203Y-71890999D01*
X91529661Y-71958959D01*
X91477457Y-72004195D01*
X91443238Y-72020151D01*
X91443233Y-72020154D01*
X91438251Y-72022477D01*
X91356738Y-72079553D01*
X91255211Y-72150643D01*
X91255208Y-72150645D01*
X91250700Y-72153802D01*
X91088802Y-72315700D01*
X91085645Y-72320208D01*
X91085643Y-72320211D01*
X91059808Y-72357107D01*
X90957477Y-72503251D01*
X90955154Y-72508233D01*
X90955151Y-72508238D01*
X90866944Y-72697401D01*
X90860716Y-72710757D01*
X90859294Y-72716065D01*
X90859293Y-72716067D01*
X90814602Y-72882856D01*
X90801457Y-72931913D01*
X90781502Y-73160000D01*
X90801457Y-73388087D01*
X90802881Y-73393400D01*
X90802881Y-73393402D01*
X90833641Y-73508197D01*
X90860716Y-73609243D01*
X90863039Y-73614224D01*
X90863039Y-73614225D01*
X90955151Y-73811762D01*
X90955154Y-73811767D01*
X90957477Y-73816749D01*
X91088802Y-74004300D01*
X91250700Y-74166198D01*
X91255208Y-74169355D01*
X91255211Y-74169357D01*
X91285611Y-74190643D01*
X91438251Y-74297523D01*
X91443233Y-74299846D01*
X91443238Y-74299849D01*
X91477457Y-74315805D01*
X91530742Y-74362722D01*
X91550203Y-74430999D01*
X91529661Y-74498959D01*
X91477457Y-74544195D01*
X91443238Y-74560151D01*
X91443233Y-74560154D01*
X91438251Y-74562477D01*
X91337543Y-74632994D01*
X91255211Y-74690643D01*
X91255208Y-74690645D01*
X91250700Y-74693802D01*
X91088802Y-74855700D01*
X91085645Y-74860208D01*
X91085643Y-74860211D01*
X91070015Y-74882530D01*
X90957477Y-75043251D01*
X90955154Y-75048233D01*
X90955151Y-75048238D01*
X90869612Y-75231680D01*
X90860716Y-75250757D01*
X90859294Y-75256064D01*
X90859293Y-75256067D01*
X90814668Y-75422609D01*
X90801457Y-75471913D01*
X90781502Y-75700000D01*
X90801457Y-75928087D01*
X90802881Y-75933400D01*
X90802881Y-75933402D01*
X90853557Y-76122524D01*
X90860716Y-76149243D01*
X90863039Y-76154224D01*
X90863039Y-76154225D01*
X90955151Y-76351762D01*
X90955154Y-76351767D01*
X90957477Y-76356749D01*
X90960634Y-76361257D01*
X91074602Y-76524020D01*
X91088802Y-76544300D01*
X91250700Y-76706198D01*
X91255208Y-76709355D01*
X91255211Y-76709357D01*
X91256255Y-76710088D01*
X91438251Y-76837523D01*
X91443233Y-76839846D01*
X91443238Y-76839849D01*
X91477457Y-76855805D01*
X91530742Y-76902722D01*
X91550203Y-76970999D01*
X91529661Y-77038959D01*
X91477457Y-77084195D01*
X91443238Y-77100151D01*
X91443233Y-77100154D01*
X91438251Y-77102477D01*
X91342760Y-77169341D01*
X91255211Y-77230643D01*
X91255210Y-77230644D01*
X91250700Y-77233802D01*
X91088802Y-77395700D01*
X90957477Y-77583251D01*
X90955154Y-77588233D01*
X90955151Y-77588238D01*
X90931586Y-77638774D01*
X90860716Y-77790757D01*
X90859294Y-77796064D01*
X90859293Y-77796067D01*
X90814668Y-77962608D01*
X90801457Y-78011913D01*
X90781502Y-78240000D01*
X90801457Y-78468087D01*
X90802881Y-78473400D01*
X90802881Y-78473402D01*
X90841146Y-78616206D01*
X90860716Y-78689243D01*
X90863039Y-78694224D01*
X90863039Y-78694225D01*
X90955151Y-78891762D01*
X90955154Y-78891767D01*
X90957477Y-78896749D01*
X91030902Y-79001611D01*
X91084741Y-79078500D01*
X91088802Y-79084300D01*
X91250700Y-79246198D01*
X91255208Y-79249355D01*
X91255211Y-79249357D01*
X91337944Y-79307287D01*
X91382272Y-79362744D01*
X91389581Y-79433363D01*
X91357550Y-79496724D01*
X91296349Y-79532709D01*
X91265673Y-79536500D01*
X82764327Y-79536500D01*
X82696206Y-79516498D01*
X82649713Y-79462842D01*
X82639609Y-79392568D01*
X82669103Y-79327988D01*
X82692056Y-79307287D01*
X82774789Y-79249357D01*
X82774792Y-79249355D01*
X82779300Y-79246198D01*
X82941198Y-79084300D01*
X82945260Y-79078500D01*
X82999098Y-79001611D01*
X83072523Y-78896749D01*
X83074846Y-78891767D01*
X83074849Y-78891762D01*
X83166961Y-78694225D01*
X83166961Y-78694224D01*
X83169284Y-78689243D01*
X83188855Y-78616206D01*
X83227119Y-78473402D01*
X83227119Y-78473400D01*
X83228543Y-78468087D01*
X83248498Y-78240000D01*
X83228543Y-78011913D01*
X83215332Y-77962608D01*
X83170707Y-77796067D01*
X83170706Y-77796064D01*
X83169284Y-77790757D01*
X83098414Y-77638774D01*
X83074849Y-77588238D01*
X83074846Y-77588233D01*
X83072523Y-77583251D01*
X82941198Y-77395700D01*
X82779300Y-77233802D01*
X82774790Y-77230644D01*
X82774789Y-77230643D01*
X82687240Y-77169341D01*
X82591749Y-77102477D01*
X82586767Y-77100154D01*
X82586762Y-77100151D01*
X82552543Y-77084195D01*
X82499258Y-77037278D01*
X82479797Y-76969001D01*
X82500339Y-76901041D01*
X82552543Y-76855805D01*
X82586762Y-76839849D01*
X82586767Y-76839846D01*
X82591749Y-76837523D01*
X82773745Y-76710088D01*
X82774789Y-76709357D01*
X82774792Y-76709355D01*
X82779300Y-76706198D01*
X82941198Y-76544300D01*
X82955399Y-76524020D01*
X83069366Y-76361257D01*
X83072523Y-76356749D01*
X83074846Y-76351767D01*
X83074849Y-76351762D01*
X83166961Y-76154225D01*
X83166961Y-76154224D01*
X83169284Y-76149243D01*
X83176444Y-76122524D01*
X83227119Y-75933402D01*
X83227119Y-75933400D01*
X83228543Y-75928087D01*
X83248498Y-75700000D01*
X83228543Y-75471913D01*
X83215332Y-75422609D01*
X83170707Y-75256067D01*
X83170706Y-75256064D01*
X83169284Y-75250757D01*
X83160388Y-75231680D01*
X83074849Y-75048238D01*
X83074846Y-75048233D01*
X83072523Y-75043251D01*
X82959985Y-74882530D01*
X82944357Y-74860211D01*
X82944355Y-74860208D01*
X82941198Y-74855700D01*
X82779300Y-74693802D01*
X82774792Y-74690645D01*
X82774789Y-74690643D01*
X82692457Y-74632994D01*
X82591749Y-74562477D01*
X82586767Y-74560154D01*
X82586762Y-74560151D01*
X82552543Y-74544195D01*
X82499258Y-74497278D01*
X82479797Y-74429001D01*
X82500339Y-74361041D01*
X82552543Y-74315805D01*
X82586762Y-74299849D01*
X82586767Y-74299846D01*
X82591749Y-74297523D01*
X82744389Y-74190643D01*
X82774789Y-74169357D01*
X82774792Y-74169355D01*
X82779300Y-74166198D01*
X82941198Y-74004300D01*
X83072523Y-73816749D01*
X83074846Y-73811767D01*
X83074849Y-73811762D01*
X83166961Y-73614225D01*
X83166961Y-73614224D01*
X83169284Y-73609243D01*
X83196360Y-73508197D01*
X83227119Y-73393402D01*
X83227119Y-73393400D01*
X83228543Y-73388087D01*
X83248498Y-73160000D01*
X83228543Y-72931913D01*
X83215398Y-72882856D01*
X83170707Y-72716067D01*
X83170706Y-72716065D01*
X83169284Y-72710757D01*
X83163056Y-72697401D01*
X83074849Y-72508238D01*
X83074846Y-72508233D01*
X83072523Y-72503251D01*
X82970192Y-72357107D01*
X82944357Y-72320211D01*
X82944355Y-72320208D01*
X82941198Y-72315700D01*
X82779300Y-72153802D01*
X82774789Y-72150643D01*
X82770576Y-72147108D01*
X82771527Y-72145974D01*
X82731529Y-72095929D01*
X82724224Y-72025310D01*
X82756258Y-71961951D01*
X82817462Y-71925970D01*
X82834517Y-71922918D01*
X82845316Y-71921745D01*
X82981705Y-71870615D01*
X83098261Y-71783261D01*
X83185615Y-71666705D01*
X83236745Y-71530316D01*
X83243500Y-71468134D01*
X83243500Y-69771866D01*
X83236745Y-69709684D01*
X83185615Y-69573295D01*
X83098261Y-69456739D01*
X82981705Y-69369385D01*
X82845316Y-69318255D01*
X82783134Y-69311500D01*
X81086866Y-69311500D01*
X81024684Y-69318255D01*
X80888295Y-69369385D01*
X80771739Y-69456739D01*
X80684385Y-69573295D01*
X80633255Y-69709684D01*
X80626500Y-69771866D01*
X80626500Y-71468134D01*
X80633255Y-71530316D01*
X80684385Y-71666705D01*
X80771739Y-71783261D01*
X80888295Y-71870615D01*
X81024684Y-71921745D01*
X81035474Y-71922917D01*
X81037606Y-71923803D01*
X81040222Y-71924425D01*
X81040121Y-71924848D01*
X81101035Y-71950155D01*
X81141463Y-72008517D01*
X81143922Y-72079471D01*
X81107629Y-72140490D01*
X81098969Y-72147489D01*
X81095207Y-72150646D01*
X81090700Y-72153802D01*
X80928802Y-72315700D01*
X80925645Y-72320208D01*
X80925643Y-72320211D01*
X80866335Y-72404911D01*
X80810877Y-72449239D01*
X80740258Y-72456548D01*
X80676898Y-72424517D01*
X80643289Y-72371576D01*
X80639505Y-72359928D01*
X80619527Y-72298444D01*
X80524040Y-72133056D01*
X80517175Y-72125431D01*
X80400675Y-71996045D01*
X80400674Y-71996044D01*
X80396253Y-71991134D01*
X80267218Y-71897384D01*
X80247094Y-71882763D01*
X80247093Y-71882762D01*
X80241752Y-71878882D01*
X80235724Y-71876198D01*
X80235722Y-71876197D01*
X80073319Y-71803891D01*
X80073318Y-71803891D01*
X80067288Y-71801206D01*
X79949085Y-71776081D01*
X79886944Y-71762872D01*
X79886939Y-71762872D01*
X79880487Y-71761500D01*
X79689513Y-71761500D01*
X79683061Y-71762872D01*
X79683056Y-71762872D01*
X79620915Y-71776081D01*
X79502712Y-71801206D01*
X79496682Y-71803891D01*
X79496681Y-71803891D01*
X79334278Y-71876197D01*
X79334276Y-71876198D01*
X79328248Y-71878882D01*
X79322907Y-71882762D01*
X79322906Y-71882763D01*
X79302782Y-71897384D01*
X79173747Y-71991134D01*
X79169326Y-71996044D01*
X79169325Y-71996045D01*
X79052826Y-72125431D01*
X79045960Y-72133056D01*
X78950473Y-72298444D01*
X78891458Y-72480072D01*
X78890768Y-72486633D01*
X78890768Y-72486635D01*
X78879187Y-72596828D01*
X78871496Y-72670000D01*
X55793500Y-72670000D01*
X55793501Y-63608325D01*
X58572466Y-63608325D01*
X58583355Y-63885464D01*
X58633184Y-64158303D01*
X58720960Y-64421400D01*
X58722952Y-64425387D01*
X58722953Y-64425389D01*
X58804596Y-64588782D01*
X58844930Y-64669504D01*
X59002623Y-64897666D01*
X59005645Y-64900935D01*
X59187874Y-65098070D01*
X59187879Y-65098075D01*
X59190890Y-65101332D01*
X59405975Y-65276439D01*
X59643588Y-65419494D01*
X59647683Y-65421228D01*
X59647685Y-65421229D01*
X59894886Y-65525905D01*
X59894893Y-65525907D01*
X59898987Y-65527641D01*
X59997760Y-65553830D01*
X60162779Y-65597585D01*
X60162784Y-65597586D01*
X60167076Y-65598724D01*
X60171485Y-65599246D01*
X60171491Y-65599247D01*
X60351663Y-65620571D01*
X60442506Y-65631323D01*
X60719782Y-65624789D01*
X60806018Y-65610435D01*
X60988981Y-65579982D01*
X60988985Y-65579981D01*
X60993371Y-65579251D01*
X60997612Y-65577910D01*
X60997615Y-65577909D01*
X61253568Y-65496962D01*
X61253570Y-65496961D01*
X61257814Y-65495619D01*
X61261825Y-65493693D01*
X61261830Y-65493691D01*
X61503816Y-65377491D01*
X61503817Y-65377490D01*
X61507835Y-65375561D01*
X61660393Y-65273625D01*
X61734737Y-65223950D01*
X61734741Y-65223947D01*
X61738445Y-65221472D01*
X61945043Y-65036427D01*
X62123507Y-64824118D01*
X62270276Y-64588782D01*
X62382422Y-64335113D01*
X62457707Y-64068173D01*
X62494628Y-63793289D01*
X62498503Y-63670000D01*
X62494136Y-63608325D01*
X161322466Y-63608325D01*
X161333355Y-63885464D01*
X161383184Y-64158303D01*
X161470960Y-64421400D01*
X161472952Y-64425387D01*
X161472953Y-64425389D01*
X161554596Y-64588782D01*
X161594930Y-64669504D01*
X161752623Y-64897666D01*
X161755645Y-64900935D01*
X161937874Y-65098070D01*
X161937879Y-65098075D01*
X161940890Y-65101332D01*
X162155975Y-65276439D01*
X162393588Y-65419494D01*
X162397683Y-65421228D01*
X162397685Y-65421229D01*
X162644886Y-65525905D01*
X162644893Y-65525907D01*
X162648987Y-65527641D01*
X162747760Y-65553830D01*
X162912779Y-65597585D01*
X162912784Y-65597586D01*
X162917076Y-65598724D01*
X162921485Y-65599246D01*
X162921491Y-65599247D01*
X163101663Y-65620571D01*
X163192506Y-65631323D01*
X163469782Y-65624789D01*
X163556018Y-65610435D01*
X163738981Y-65579982D01*
X163738985Y-65579981D01*
X163743371Y-65579251D01*
X163747612Y-65577910D01*
X163747615Y-65577909D01*
X164003568Y-65496962D01*
X164003570Y-65496961D01*
X164007814Y-65495619D01*
X164011825Y-65493693D01*
X164011830Y-65493691D01*
X164253816Y-65377491D01*
X164253817Y-65377490D01*
X164257835Y-65375561D01*
X164410393Y-65273625D01*
X164484737Y-65223950D01*
X164484741Y-65223947D01*
X164488445Y-65221472D01*
X164695043Y-65036427D01*
X164873507Y-64824118D01*
X165020276Y-64588782D01*
X165132422Y-64335113D01*
X165207707Y-64068173D01*
X165244628Y-63793289D01*
X165248503Y-63670000D01*
X165228914Y-63393340D01*
X165170540Y-63122200D01*
X165074543Y-62861990D01*
X165046659Y-62810311D01*
X164944953Y-62621818D01*
X164942840Y-62617902D01*
X164778059Y-62394807D01*
X164774940Y-62391638D01*
X164774936Y-62391634D01*
X164662003Y-62276913D01*
X164583488Y-62197155D01*
X164579948Y-62194453D01*
X164366553Y-62031595D01*
X164366549Y-62031592D01*
X164363008Y-62028890D01*
X164121019Y-61893369D01*
X164116870Y-61891764D01*
X164116866Y-61891762D01*
X163961664Y-61831720D01*
X163862349Y-61793298D01*
X163858024Y-61792295D01*
X163858019Y-61792294D01*
X163749729Y-61767194D01*
X163592160Y-61730671D01*
X163315841Y-61706739D01*
X163311406Y-61706983D01*
X163311402Y-61706983D01*
X163043351Y-61721735D01*
X163043344Y-61721736D01*
X163038908Y-61721980D01*
X162903917Y-61748831D01*
X162771256Y-61775219D01*
X162771251Y-61775220D01*
X162766884Y-61776089D01*
X162762681Y-61777565D01*
X162509407Y-61866508D01*
X162509404Y-61866509D01*
X162505199Y-61867986D01*
X162501246Y-61870039D01*
X162501240Y-61870042D01*
X162403119Y-61921012D01*
X162259073Y-61995838D01*
X162255458Y-61998421D01*
X162255452Y-61998425D01*
X162112671Y-62100458D01*
X162033416Y-62157095D01*
X161832732Y-62348538D01*
X161661025Y-62566348D01*
X161658793Y-62570190D01*
X161658790Y-62570195D01*
X161523958Y-62802324D01*
X161523955Y-62802330D01*
X161521720Y-62806178D01*
X161520046Y-62810311D01*
X161419271Y-63059112D01*
X161419268Y-63059120D01*
X161417598Y-63063244D01*
X161375450Y-63232921D01*
X161353442Y-63321521D01*
X161350735Y-63332417D01*
X161322466Y-63608325D01*
X62494136Y-63608325D01*
X62478914Y-63393340D01*
X62420540Y-63122200D01*
X62324543Y-62861990D01*
X62296659Y-62810311D01*
X62194953Y-62621818D01*
X62192840Y-62617902D01*
X62028059Y-62394807D01*
X62024940Y-62391638D01*
X62024936Y-62391634D01*
X61912003Y-62276913D01*
X61833488Y-62197155D01*
X61829948Y-62194453D01*
X61616553Y-62031595D01*
X61616549Y-62031592D01*
X61613008Y-62028890D01*
X61371019Y-61893369D01*
X61366870Y-61891764D01*
X61366866Y-61891762D01*
X61211664Y-61831720D01*
X61112349Y-61793298D01*
X61108024Y-61792295D01*
X61108019Y-61792294D01*
X60999729Y-61767194D01*
X60842160Y-61730671D01*
X60565841Y-61706739D01*
X60561406Y-61706983D01*
X60561402Y-61706983D01*
X60293351Y-61721735D01*
X60293344Y-61721736D01*
X60288908Y-61721980D01*
X60153917Y-61748831D01*
X60021256Y-61775219D01*
X60021251Y-61775220D01*
X60016884Y-61776089D01*
X60012681Y-61777565D01*
X59759407Y-61866508D01*
X59759404Y-61866509D01*
X59755199Y-61867986D01*
X59751246Y-61870039D01*
X59751240Y-61870042D01*
X59653119Y-61921012D01*
X59509073Y-61995838D01*
X59505458Y-61998421D01*
X59505452Y-61998425D01*
X59362671Y-62100458D01*
X59283416Y-62157095D01*
X59082732Y-62348538D01*
X58911025Y-62566348D01*
X58908793Y-62570190D01*
X58908790Y-62570195D01*
X58773958Y-62802324D01*
X58773955Y-62802330D01*
X58771720Y-62806178D01*
X58770046Y-62810311D01*
X58669271Y-63059112D01*
X58669268Y-63059120D01*
X58667598Y-63063244D01*
X58625450Y-63232921D01*
X58603442Y-63321521D01*
X58600735Y-63332417D01*
X58572466Y-63608325D01*
X55793501Y-63608325D01*
X55793501Y-63430903D01*
X55793558Y-63427109D01*
X55795234Y-63371487D01*
X55795234Y-63371484D01*
X55795504Y-63362512D01*
X55790690Y-63343998D01*
X55786974Y-63321521D01*
X55763722Y-63005001D01*
X55763435Y-62992153D01*
X55768886Y-62802324D01*
X55773381Y-62645838D01*
X55774404Y-62633033D01*
X55819576Y-62289553D01*
X55821899Y-62276913D01*
X55881223Y-62026711D01*
X55901830Y-61939801D01*
X55905423Y-61927481D01*
X56019278Y-61600269D01*
X56024114Y-61588364D01*
X56153012Y-61312348D01*
X56170708Y-61274454D01*
X56176725Y-61263117D01*
X56354538Y-60965768D01*
X56361687Y-60955090D01*
X56568855Y-60677415D01*
X56577056Y-60667519D01*
X56759704Y-60468701D01*
X56811438Y-60412387D01*
X56820594Y-60403388D01*
X57079762Y-60173446D01*
X57089783Y-60165430D01*
X57371006Y-59963100D01*
X57381807Y-59956136D01*
X57682180Y-59783505D01*
X57693636Y-59777677D01*
X57833494Y-59715291D01*
X58010043Y-59636539D01*
X58022011Y-59631917D01*
X58248911Y-59557345D01*
X58351143Y-59523746D01*
X58363541Y-59520361D01*
X58539542Y-59481837D01*
X58701983Y-59446281D01*
X58714652Y-59444179D01*
X58852346Y-59428491D01*
X59022686Y-59409084D01*
X59048526Y-59408807D01*
X59050054Y-59408948D01*
X59050388Y-59408979D01*
X59059324Y-59409804D01*
X59068135Y-59408087D01*
X59068136Y-59408087D01*
X59070832Y-59407562D01*
X59094959Y-59405236D01*
X160495292Y-59428491D01*
G37*
G04 #@! TD.AperFunction*
M02*
