M48
; DRILL file {KiCad (6.0.10)} date Fri Mar 10 15:44:36 2023
; FORMAT={-:-/ absolute / metric / decimal}
; #@! TF.CreationDate,2023-03-10T15:44:36+05:30
; #@! TF.GenerationSoftware,Kicad,Pcbnew,(6.0.10)
; #@! TF.FileFunction,Plated,1,2,PTH
FMAT,2
METRIC
; #@! TA.AperFunction,Plated,PTH,ViaDrill
T1C0.400
; #@! TA.AperFunction,Plated,PTH,ComponentDrill
T2C0.800
; #@! TA.AperFunction,Plated,PTH,ComponentDrill
T3C1.000
; #@! TA.AperFunction,Plated,PTH,ComponentDrill
T4C1.300
; #@! TA.AperFunction,Plated,PTH,ComponentDrill
T5C2.500
%
G90
G05
T1
X79.785Y-72.67
X83.035Y-80.92
X83.285Y-82.92
X88.285Y-82.92
X93.785Y-75.67
X94.785Y-71.92
X96.535Y-72.17
X96.785Y-84.17
X103.035Y-78.17
X103.785Y-75.42
X104.285Y-78.67
X117.035Y-88.67
X120.035Y-95.92
X120.285Y-78.42
X121.547Y-88.658
X141.285Y-82.92
X142.672Y-81.283
X150.035Y-95.92
T2
X81.935Y-70.62
X81.935Y-73.16
X81.935Y-75.7
X81.935Y-78.24
X92.095Y-70.62
X92.095Y-73.16
X92.095Y-75.7
X92.095Y-78.24
X107.685Y-70.12
X107.685Y-72.66
X107.685Y-75.2
X107.685Y-77.74
X117.845Y-70.12
X117.845Y-72.66
X117.845Y-75.2
X117.845Y-77.74
X123.435Y-70.12
X123.435Y-72.66
X123.435Y-75.2
X123.435Y-77.74
X123.435Y-85.37
X123.435Y-87.91
X123.435Y-90.45
X123.435Y-92.99
X133.595Y-70.12
X133.595Y-72.66
X133.595Y-75.2
X133.595Y-77.74
X133.595Y-85.37
X133.595Y-87.91
X133.595Y-90.45
X133.595Y-92.99
X143.185Y-70.62
X143.185Y-73.16
X143.185Y-75.7
X143.185Y-78.24
X145.705Y-89.42
X148.245Y-86.88
X150.785Y-89.42
X153.345Y-70.62
X153.345Y-73.16
X153.345Y-75.7
X153.345Y-78.24
T3
X71.535Y-79.895
X71.535Y-82.435
X163.785Y-75.905
X163.785Y-78.445
T4
X81.455Y-90.92
X86.455Y-90.92
X91.455Y-90.92
T5
X60.535Y-63.67
X62.035Y-94.17
X163.285Y-63.67
X163.285Y-95.17
T0
M30
