G04 #@! TF.GenerationSoftware,KiCad,Pcbnew,(6.0.10)*
G04 #@! TF.CreationDate,2023-03-10T15:43:37+05:30*
G04 #@! TF.ProjectId,EDL,45444c2e-6b69-4636-9164-5f7063625858,rev?*
G04 #@! TF.SameCoordinates,Original*
G04 #@! TF.FileFunction,Soldermask,Top*
G04 #@! TF.FilePolarity,Negative*
%FSLAX46Y46*%
G04 Gerber Fmt 4.6, Leading zero omitted, Abs format (unit mm)*
G04 Created by KiCad (PCBNEW (6.0.10)) date 2023-03-10 15:43:37*
%MOMM*%
%LPD*%
G01*
G04 APERTURE LIST*
G04 Aperture macros list*
%AMRoundRect*
0 Rectangle with rounded corners*
0 $1 Rounding radius*
0 $2 $3 $4 $5 $6 $7 $8 $9 X,Y pos of 4 corners*
0 Add a 4 corners polygon primitive as box body*
4,1,4,$2,$3,$4,$5,$6,$7,$8,$9,$2,$3,0*
0 Add four circle primitives for the rounded corners*
1,1,$1+$1,$2,$3*
1,1,$1+$1,$4,$5*
1,1,$1+$1,$6,$7*
1,1,$1+$1,$8,$9*
0 Add four rect primitives between the rounded corners*
20,1,$1+$1,$2,$3,$4,$5,0*
20,1,$1+$1,$4,$5,$6,$7,0*
20,1,$1+$1,$6,$7,$8,$9,0*
20,1,$1+$1,$8,$9,$2,$3,0*%
G04 Aperture macros list end*
%ADD10RoundRect,0.250000X0.350000X0.450000X-0.350000X0.450000X-0.350000X-0.450000X0.350000X-0.450000X0*%
%ADD11RoundRect,0.250000X-0.350000X-0.450000X0.350000X-0.450000X0.350000X0.450000X-0.350000X0.450000X0*%
%ADD12R,1.700000X1.700000*%
%ADD13O,1.700000X1.700000*%
%ADD14RoundRect,0.250000X0.450000X-0.350000X0.450000X0.350000X-0.450000X0.350000X-0.450000X-0.350000X0*%
%ADD15C,1.440000*%
%ADD16RoundRect,0.250000X-0.475000X0.337500X-0.475000X-0.337500X0.475000X-0.337500X0.475000X0.337500X0*%
%ADD17R,1.600000X1.600000*%
%ADD18O,1.600000X1.600000*%
%ADD19RoundRect,0.250000X-0.700000X1.825000X-0.700000X-1.825000X0.700000X-1.825000X0.700000X1.825000X0*%
%ADD20RoundRect,0.250000X-0.450000X0.350000X-0.450000X-0.350000X0.450000X-0.350000X0.450000X0.350000X0*%
%ADD21RoundRect,0.250000X-0.325000X-0.450000X0.325000X-0.450000X0.325000X0.450000X-0.325000X0.450000X0*%
%ADD22C,5.000000*%
%ADD23C,2.900000*%
%ADD24RoundRect,0.250000X0.337500X0.475000X-0.337500X0.475000X-0.337500X-0.475000X0.337500X-0.475000X0*%
%ADD25R,2.600000X2.600000*%
%ADD26C,2.600000*%
%ADD27RoundRect,0.250000X-0.337500X-0.475000X0.337500X-0.475000X0.337500X0.475000X-0.337500X0.475000X0*%
G04 APERTURE END LIST*
D10*
X102535000Y-85170000D03*
X100535000Y-85170000D03*
D11*
X75535000Y-74170000D03*
X77535000Y-74170000D03*
D10*
X97285000Y-70170000D03*
X95285000Y-70170000D03*
X83535000Y-65420000D03*
X81535000Y-65420000D03*
X139535000Y-86670000D03*
X137535000Y-86670000D03*
D11*
X95285000Y-80420000D03*
X97285000Y-80420000D03*
D12*
X163785000Y-78445000D03*
D13*
X163785000Y-75905000D03*
D14*
X113535000Y-89170000D03*
X113535000Y-87170000D03*
D15*
X150785000Y-89420000D03*
X148245000Y-86880000D03*
X145705000Y-89420000D03*
D16*
X158785000Y-79882500D03*
X158785000Y-81957500D03*
D17*
X123435000Y-85370000D03*
D18*
X123435000Y-87910000D03*
X123435000Y-90450000D03*
X123435000Y-92990000D03*
X133595000Y-92990000D03*
X133595000Y-90450000D03*
X133595000Y-87910000D03*
X133595000Y-85370000D03*
D19*
X62535000Y-71445000D03*
X62535000Y-78395000D03*
D20*
X101535000Y-69920000D03*
X101535000Y-71920000D03*
D17*
X107685000Y-70120000D03*
D18*
X107685000Y-72660000D03*
X107685000Y-75200000D03*
X107685000Y-77740000D03*
X117845000Y-77740000D03*
X117845000Y-75200000D03*
X117845000Y-72660000D03*
X117845000Y-70120000D03*
D17*
X143185000Y-70620000D03*
D18*
X143185000Y-73160000D03*
X143185000Y-75700000D03*
X143185000Y-78240000D03*
X153345000Y-78240000D03*
X153345000Y-75700000D03*
X153345000Y-73160000D03*
X153345000Y-70620000D03*
D20*
X158535000Y-69170000D03*
X158535000Y-71170000D03*
D17*
X123435000Y-70120000D03*
D18*
X123435000Y-72660000D03*
X123435000Y-75200000D03*
X123435000Y-77740000D03*
X133595000Y-77740000D03*
X133595000Y-75200000D03*
X133595000Y-72660000D03*
X133595000Y-70120000D03*
D21*
X137510000Y-91920000D03*
X139560000Y-91920000D03*
D10*
X97285000Y-75420000D03*
X95285000Y-75420000D03*
D22*
X62035000Y-94170000D03*
D23*
X62035000Y-94170000D03*
D22*
X60535000Y-63670000D03*
D23*
X60535000Y-63670000D03*
D24*
X102572500Y-75920000D03*
X100497500Y-75920000D03*
D22*
X163285000Y-63670000D03*
D23*
X163285000Y-63670000D03*
D25*
X81455000Y-90920000D03*
D26*
X86455000Y-90920000D03*
X91455000Y-90920000D03*
D24*
X102822500Y-80170000D03*
X100747500Y-80170000D03*
D22*
X163285000Y-95170000D03*
D23*
X163285000Y-95170000D03*
D17*
X81935000Y-70620000D03*
D18*
X81935000Y-73160000D03*
X81935000Y-75700000D03*
X81935000Y-78240000D03*
X92095000Y-78240000D03*
X92095000Y-75700000D03*
X92095000Y-73160000D03*
X92095000Y-70620000D03*
D10*
X114785000Y-93420000D03*
X112785000Y-93420000D03*
D20*
X71410000Y-68420000D03*
X71410000Y-70420000D03*
X76285000Y-78670000D03*
X76285000Y-80670000D03*
D11*
X112535000Y-82670000D03*
X114535000Y-82670000D03*
D12*
X71535000Y-79895000D03*
D13*
X71535000Y-82435000D03*
D27*
X70785000Y-74170000D03*
X72860000Y-74170000D03*
D10*
X107785000Y-82670000D03*
X105785000Y-82670000D03*
M02*
